<svg xmlns="http://www.w3.org/2000/svg" width="63.463" height="60" viewBox="0 0 63.463 60">
    <defs>
        <style>
            .cls-1{fill:#fff}
        </style>
    </defs>
    <g id="rgb" transform="translate(0 -13.917)">
        <path id="Path_111324" d="M302.841 236.8a.933.933 0 0 0-1.6.956 19.176 19.176 0 0 1 1.594 3.389.933.933 0 0 0 1.759-.625 21.039 21.039 0 0 0-1.753-3.72z" class="cls-1" transform="translate(-263.637 -194.749)"/>
        <path id="Path_111325" d="M299.857 382.371a.933.933 0 0 0 .79-.435 21.065 21.065 0 0 0 1.863-3.719.933.933 0 0 0-1.744-.667 19.188 19.188 0 0 1-1.7 3.389.934.934 0 0 0 .788 1.432z" class="cls-1" transform="translate(-261.727 -317.858)"/>
        <path id="Path_111326" d="M52.872 34.55a20.882 20.882 0 0 0-6.594-14.869A.933.933 0 1 0 45 21.037a19.02 19.02 0 0 1 5.963 12.539 21.129 21.129 0 0 0-19.227 1.045 21.127 21.127 0 0 0-19.1-1.1 19.219 19.219 0 0 1 29.316-14.835.933.933 0 1 0 .988-1.586 21.085 21.085 0 0 0-32.223 17.38A21.077 21.077 0 0 0 7.791 69.2a.933.933 0 0 0 1.178-1.448 19.21 19.21 0 0 1 1.8-31.126A21.113 21.113 0 0 0 21.3 53.283a21.269 21.269 0 0 0 .331 3.315.933.933 0 0 0 1.837-.331 19.311 19.311 0 0 1-.253-2.009 21.063 21.063 0 0 0 17.027.056 19.274 19.274 0 0 1-.248 1.952.933.933 0 1 0 1.837.331 21.256 21.256 0 0 0 .329-3.244A21.113 21.113 0 0 0 52.809 36.7a19.218 19.218 0 0 1-19.315 33.18 21.377 21.377 0 0 0 2.4-2.043.933.933 0 1 0-1.311-1.328 19.4 19.4 0 0 1-2.852 2.326 19.41 19.41 0 0 1-2.852-2.326.933.933 0 0 0-1.311 1.328 21.329 21.329 0 0 0 2.4 2.043 19.261 19.261 0 0 1-17.736.014.933.933 0 0 0-.861 1.656 21.12 21.12 0 0 0 20.359-.513A21.085 21.085 0 1 0 52.872 34.55zM42.1 51.211c-.043-.563-.108-1.124-.2-1.68a.933.933 0 1 0-1.844.29 19.442 19.442 0 0 1 .225 2.413 19.188 19.188 0 0 1-17.116-.061 19.461 19.461 0 0 1 .223-2.352.933.933 0 0 0-1.844-.29c-.083.53-.146 1.066-.19 1.6A19.221 19.221 0 0 1 12.587 35.6a19.264 19.264 0 0 1 17.384.179 21.45 21.45 0 0 0-2.858 2.513.933.933 0 1 0 1.352 1.288 19.459 19.459 0 0 1 3.268-2.754A19.469 19.469 0 0 1 35 39.58a.933.933 0 1 0 1.352-1.288 21.441 21.441 0 0 0-2.858-2.513A19.264 19.264 0 0 1 51 35.661a19.224 19.224 0 0 1-8.9 15.55z" class="cls-1"/>
        <path id="Path_111327" d="M184.481 382.373a.933.933 0 0 0 .788-1.432 19.191 19.191 0 0 1-1.7-3.389.933.933 0 1 0-1.744.667 21.06 21.06 0 0 0 1.863 3.719.933.933 0 0 0 .793.435z" class="cls-1" transform="translate(-159.148 -317.86)"/>
        <path id="Path_111328" d="M183.538 236.478a.933.933 0 0 0-1.28.324 21.043 21.043 0 0 0-1.75 3.719.933.933 0 1 0 1.759.625 19.158 19.158 0 0 1 1.594-3.389.933.933 0 0 0-.323-1.279z" class="cls-1" transform="translate(-157.999 -194.751)"/>
    </g>
</svg>
