<svg xmlns="http://www.w3.org/2000/svg" width="67.491" height="72" viewBox="0 0 67.491 72">
    <defs>
        <style>
            .cls-1{fill:#fff}
        </style>
    </defs>
    <g id="light-bulb" transform="translate(-16.032)">
        <path id="Path_111329" d="M200.458 233.9c-.553.553-.849.819-1.511.819s-.958-.266-1.511-.819a3.852 3.852 0 0 0-6 0c-.552.553-.847.818-1.507.818s-.954-.266-1.506-.818a3.952 3.952 0 0 0-3-1.436 1.055 1.055 0 0 0 0 2.109c.66 0 .954.266 1.506.818a3.848 3.848 0 0 0 6 0c.552-.553.847-.818 1.507-.818s.958.266 1.511.819a3.856 3.856 0 0 0 6 0c.553-.553.849-.819 1.511-.819a1.055 1.055 0 0 0 0-2.109 3.96 3.96 0 0 0-3 1.436z" class="cls-1" transform="translate(-144.665 -199.777)"/>
        <path id="Path_111330" d="M249.555 6.618a1.055 1.055 0 0 0 1.055-1.055V1.055a1.055 1.055 0 1 0-2.109 0v4.509a1.055 1.055 0 0 0 1.054 1.054z" class="cls-1" transform="translate(-199.777)"/>
        <path id="Path_111331" d="M454.468 232.468h-4.509a1.055 1.055 0 0 0 0 2.109h4.509a1.055 1.055 0 0 0 0-2.109z" class="cls-1" transform="translate(-371.999 -199.777)"/>
        <path id="Path_111332" d="M22.651 233.523a1.055 1.055 0 0 0-1.055-1.055h-4.509a1.055 1.055 0 1 0 0 2.109H21.6a1.055 1.055 0 0 0 1.051-1.054z" class="cls-1" transform="translate(0 -199.777)"/>
        <path id="Path_111333" d="M47.7 118.2l3.905 2.255a1.055 1.055 0 1 0 1.055-1.827l-3.905-2.255A1.055 1.055 0 1 0 47.7 118.2z" class="cls-1" transform="translate(-26.764 -99.887)"/>
        <path id="Path_111334" d="M427.54 335.065l-3.905-2.255a1.055 1.055 0 0 0-1.055 1.827l3.905 2.255a1.055 1.055 0 0 0 1.055-1.827z" class="cls-1" transform="translate(-348.924 -285.887)"/>
        <path id="Path_111335" d="M349.228 37.017a1.054 1.054 0 0 0 1.441-.386l2.255-3.905a1.055 1.055 0 1 0-1.827-1.055l-2.255 3.905a1.054 1.054 0 0 0 .386 1.441z" class="cls-1" transform="translate(-285.887 -26.764)"/>
        <path id="Path_111336" d="M136.1 406.162a1.055 1.055 0 0 0-1.441.386l-2.255 3.905a1.055 1.055 0 1 0 1.827 1.055l2.255-3.905a1.054 1.054 0 0 0-.386-1.441z" class="cls-1" transform="translate(-99.888 -348.924)"/>
        <path id="Path_111337" d="M423.109 120.6a1.05 1.05 0 0 0 .526-.141l3.905-2.255a1.055 1.055 0 1 0-1.055-1.827l-3.905 2.255a1.055 1.055 0 0 0 .528 1.968z" class="cls-1" transform="translate(-348.924 -99.889)"/>
        <path id="Path_111338" d="M51.608 332.81l-3.908 2.254a1.055 1.055 0 1 0 1.055 1.827l3.905-2.254a1.055 1.055 0 1 0-1.055-1.827z" class="cls-1" transform="translate(-26.764 -285.887)"/>
        <path id="Path_111339" d="M134.661 36.632a1.055 1.055 0 0 0 1.827-1.055l-2.255-3.905a1.055 1.055 0 0 0-1.827 1.055z" class="cls-1" transform="translate(-99.888 -26.765)"/>
        <path id="Path_111340" d="M350.669 406.548a1.055 1.055 0 0 0-1.827 1.055l2.254 3.905a1.055 1.055 0 1 0 1.827-1.055z" class="cls-1" transform="translate(-285.887 -348.924)"/>
        <path id="Path_111341" d="M123.956 73.122a1.055 1.055 0 1 0-1.626 1.344 22.584 22.584 0 0 1-7.535 34.7 5.45 5.45 0 0 0-2.389 2.308h-2.724l5.239-17.811a1.055 1.055 0 1 0-2.024-.6l-5.414 18.407H102.3l-5.416-18.401a1.055 1.055 0 0 0-2.024.6l5.239 17.811h-2.722a5.416 5.416 0 0 0-2.379-2.3 22.606 22.606 0 1 1 24.284-37.756 1.055 1.055 0 0 0 1.344-1.626 24.717 24.717 0 1 0-26.552 41.279 3.408 3.408 0 0 1 1.87 3.065v4.031a4.441 4.441 0 0 0 4.436 4.436h.073v1.2a3.313 3.313 0 0 0 3.309 3.309h2.255a3.313 3.313 0 0 0 3.309-3.309v-1.2h.073a4.441 4.441 0 0 0 4.436-4.436v-4.032a3.421 3.421 0 0 1 1.884-3.071 24.693 24.693 0 0 0 8.236-37.942zm-12.2 40.464c-.018.182-.031.365-.031.55V115l-13.672 1.953v-2.815c0-.185-.013-.369-.031-.551zm-4.54 10.218a1.2 1.2 0 0 1-1.2 1.2h-2.255a1.2 1.2 0 0 1-1.2-1.2v-1.2h4.654v1.2zm2.182-3.309h-9.018a2.33 2.33 0 0 1-2.15-1.438l13.495-1.928v1.039a2.33 2.33 0 0 1-2.325 2.326z" class="cls-1" transform="translate(-55.112 -55.113)"/>
    </g>
</svg>
