<svg id="Capa_1" enable-background="new 0 0 512 512" height="512" viewBox="0 0 512 512" width="512" xmlns="http://www.w3.org/2000/svg"><g><path d="m376 322.093h-160.674c-4.143 0-7.5 3.357-7.5 7.5s3.357 7.5 7.5 7.5h160.674c4.143 0 7.5-3.357 7.5-7.5s-3.357-7.5-7.5-7.5zm28.837-8.816c4.143 0 7.5-3.357 7.5-7.5v-268.277c0-20.678-16.822-37.5-37.5-37.5h-237.674c-20.678 0-37.5 16.822-37.5 37.5v437c0 20.678 16.822 37.5 37.5 37.5h237.674c20.678 0 37.5-16.822 37.5-37.5v-133.723c0-4.143-3.357-7.5-7.5-7.5s-7.5 3.357-7.5 7.5v133.723c0 12.406-10.094 22.5-22.5 22.5h-237.674c-12.406 0-22.5-10.094-22.5-22.5v-437c0-12.406 10.094-22.5 22.5-22.5h35.219v21.372c0 15.163 12.337 27.5 27.5 27.5h112.236c15.163 0 27.5-12.337 27.5-27.5v-21.372h35.219c12.406 0 22.5 10.094 22.5 22.5v268.277c0 4.143 3.357 7.5 7.5 7.5zm-80.219-276.905c0 6.893-5.607 12.5-12.5 12.5h-112.236c-6.893 0-12.5-5.607-12.5-12.5v-21.372h137.236zm51.382 415.628h-160.674c-4.143 0-7.5 3.357-7.5 7.5s3.357 7.5 7.5 7.5h160.674c4.143 0 7.5-3.357 7.5-7.5s-3.357-7.5-7.5-7.5zm0-99.907h-160.674c-4.143 0-7.5 3.357-7.5 7.5s3.357 7.5 7.5 7.5h160.674c4.143 0 7.5-3.357 7.5-7.5s-3.357-7.5-7.5-7.5zm0 69.907h-160.674c-4.143 0-7.5 3.357-7.5 7.5s3.357 7.5 7.5 7.5h160.674c4.143 0 7.5-3.357 7.5-7.5s-3.357-7.5-7.5-7.5zm-187.5-87.407c0-6.893-5.607-12.5-12.5-12.5h-35c-6.893 0-12.5 5.607-12.5 12.5v35c0 6.893 5.607 12.5 12.5 12.5h35c6.893 0 12.5-5.607 12.5-12.5zm-15 32.5h-30v-30h30zm210-221.98c0-6.893-5.607-12.5-12.5-12.5h-17.5v-26.241c0-15.163-12.337-27.5-27.5-27.5h-75.31c-4.143 0-7.5 3.357-7.5 7.5s3.357 7.5 7.5 7.5h75.31c6.893 0 12.5 5.607 12.5 12.5v56.241h-165v-56.241c0-6.893 5.607-12.5 12.5-12.5h29.69c4.143 0 7.5-3.357 7.5-7.5s-3.357-7.5-7.5-7.5h-29.69c-15.163 0-27.5 12.337-27.5 27.5v26.241h-17.5c-6.893 0-12.5 5.607-12.5 12.5v20c0 6.893 5.607 12.5 12.5 12.5h17.5v47.759c0 10.663 6.105 19.922 15 24.482v19.735c0 12.406 10.094 22.5 22.5 22.5s22.5-10.094 22.5-22.5v-16.718h75v16.718c0 12.406 10.094 22.5 22.5 22.5s22.5-10.094 22.5-22.5v-19.735c8.895-4.561 15-13.819 15-24.482v-47.759h17.5c6.893 0 12.5-5.607 12.5-12.5zm-225 17.5h-15v-15h15zm45 106.977c0 4.136-3.364 7.5-7.5 7.5s-7.5-3.364-7.5-7.5v-16.718h15zm120 0c0 4.136-3.364 7.5-7.5 7.5s-7.5-3.364-7.5-7.5v-16.718h15zm15-44.218c0 6.893-5.607 12.5-12.5 12.5 0 0-24.987-.002-25-.002s-115 .002-115 .002c-6.893 0-12.5-5.607-12.5-12.5v-47.759h165zm30-62.759h-15v-15h15zm-192.5 259.387h-35c-6.893 0-12.5 5.607-12.5 12.5v35c0 6.893 5.607 12.5 12.5 12.5h35c6.893 0 12.5-5.607 12.5-12.5v-35c0-6.893-5.607-12.5-12.5-12.5zm-2.5 45h-30v-30h30zm30-251.757c4.136 0 7.5-3.365 7.5-7.5 0-4.136-3.364-7.5-7.5-7.5s-7.5 3.364-7.5 7.5c0 4.135 3.364 7.5 7.5 7.5zm105 0c4.136 0 7.5-3.365 7.5-7.5 0-4.136-3.364-7.5-7.5-7.5s-7.5 3.364-7.5 7.5c0 4.135 3.364 7.5 7.5 7.5zm-75 0h45c4.143 0 7.5-3.357 7.5-7.5s-3.357-7.5-7.5-7.5h-45c-4.143 0-7.5 3.357-7.5 7.5s3.357 7.5 7.5 7.5z"/></g></svg>