<svg height="512" viewBox="0 0 512 512" width="512" xmlns="http://www.w3.org/2000/svg"><g id="Solid"><path d="m368 24h-224a32 32 0 0 0 -32 32v400a32 32 0 0 0 32 32h224a32 32 0 0 0 32-32v-400a32 32 0 0 0 -32-32zm-104 448h-16v-16h16zm120-32h-256v-384a16 16 0 0 1 16-16h71l5.107 13.618a16 16 0 0 0 14.981 10.382h41.38a16 16 0 0 0 15.179-10.94l4.353-13.06h72a16 16 0 0 1 16 16z"/><path d="m232 264h48v48h-48z"/><path d="m152 264h48v48h-48z"/><path d="m312 184h48v48h-48z"/><path d="m232 184h48v48h-48z"/><path d="m152 184h48v48h-48z"/><path d="m312 104h48v48h-48z"/><path d="m232 104h48v48h-48z"/><path d="m152 104h48v48h-48z"/><path d="m344 264h-16v16h-16v16h16v16h16v-16h16v-16h-16z"/></g></svg>