<svg height="512pt" viewBox="0 -4 512 511" width="512pt" xmlns="http://www.w3.org/2000/svg"><path d="m464.511719 55.304688h-6.488281v-22.203126c0-17.976562-14.625-32.601562-32.605469-32.601562h-46.273438c-4.199219 0-7.605469 3.40625-7.605469 7.605469s3.40625 7.601562 7.605469 7.601562h46.273438c9.59375 0 17.398437 7.804688 17.398437 17.394531v99.539063l-49.984375-75.230469c-4.183593-6.28125-11.183593-10.035156-18.730469-10.035156-7.550781 0-14.554687 3.753906-18.738281 10.042969l-46.304687 69.699219-18.449219-27.765626c-4.175781-6.285156-11.179687-10.039062-18.730469-10.039062-7.550781 0-14.554687 3.753906-18.730468 10.042969l-34.9375 52.578125v-118.832032c0-9.589843 7.804687-17.394531 17.394531-17.394531h113.121093c4.199219 0 7.605469-3.402343 7.605469-7.601562s-3.40625-7.605469-7.605469-7.605469h-113.121093c-17.976563 0-32.601563 14.625-32.601563 32.601562v22.203126h-155.523437c-26.179688 0-47.480469 21.300781-47.480469 47.480468v272.230469c0 26.183594 21.300781 47.480469 47.480469 47.480469h133.207031l-19.699219 37.386718h-10.121093c-12 0-21.765626 9.765626-21.765626 21.765626s9.765626 21.765624 21.765626 21.765624h9.730468c4.199219 0 7.605469-3.40625 7.605469-7.605468 0-4.199219-3.40625-7.601563-7.605469-7.601563h-9.730468c-3.613282 0-6.554688-2.941406-6.554688-6.558593 0-3.613282 2.941406-6.554688 6.554688-6.554688h210.261718c3.613282 0 6.554688 2.941406 6.554688 6.554688 0 3.617187-2.941406 6.558593-6.554688 6.558593h-170.117187c-4.199219 0-7.601563 3.402344-7.601563 7.601563 0 4.199218 3.402344 7.605468 7.601563 7.605468h170.117187c12 0 21.765625-9.765624 21.765625-21.765624s-9.765625-21.765626-21.765625-21.765626h-10.121094l-19.699218-37.386718h133.203125c26.183593 0 47.488281-21.296875 47.488281-47.480469v-272.230469c0-26.179687-21.304688-47.480468-47.488281-47.480468zm-286.332031 404.578124 19.699218-37.386718h116.242188l19.695312 37.386718zm75.054687-98.089843c0 7.320312-5.953125 13.277343-13.277344 13.277343h-145.496093c-7.324219 0-13.277344-5.957031-13.277344-13.277343v-117.035157c0-7.324218 5.953125-13.277343 13.277344-13.277343h145.496093c7.324219 0 13.277344 5.953125 13.277344 13.277343zm-13.277344-145.523438h-145.496093c-15.707032 0-28.488282 12.78125-28.488282 28.488281v99.480469h-.476562c-13.730469 0-24.902344-11.167969-24.902344-24.890625v-195.382812c0-13.730469 11.171875-24.898438 24.902344-24.898438h137.507812v61.769532c0 17.976562 14.625 32.601562 32.601563 32.601562h189.8125c17.980469 0 32.605469-14.625 32.605469-32.601562v-58.945313c8 4.179687 13.371093 12.558594 13.371093 22.074219v195.378906c0 13.726562-11.164062 24.890625-24.890625 24.890625h-178.058594v-99.480469c0-15.703125-12.78125-28.484375-28.488281-28.484375zm128.070313-150.433593c1.375-2.066407 3.589844-3.253907 6.070312-3.253907 2.484375 0 4.695313 1.1875 6.070313 3.25l62.648437 94.292969v.710938c0 9.59375-7.804687 17.394531-17.398437 17.394531h-82.402344l-24.832031-37.371094zm-102.214844 41.933593c1.375-2.066406 3.582031-3.25 6.066406-3.25 2.480469 0 4.691406 1.183594 6.0625 3.25l46.816406 70.460938h-89.152343c-5.082031 0-9.644531-2.203125-12.828125-5.6875zm230.980469 267.246094c0 17.796875-14.480469 32.273437-32.28125 32.273437h-417.03125c-17.796875 0-32.273438-14.476562-32.273438-32.273437v-272.230469c0-17.792968 14.476563-32.269531 32.273438-32.269531h155.523437v13.339844h-137.507812c-22.117188 0-40.109375 17.996093-40.109375 40.109375v195.382812c0 22.109375 17.992187 40.097656 40.109375 40.097656h.480468v2.347657c0 15.707031 12.777344 28.484375 28.484376 28.484375h145.5c15.707031 0 28.484374-12.777344 28.484374-28.484375v-2.347657h178.058594c22.109375 0 40.097656-17.988281 40.097656-40.097656v-195.382812c0-17.964844-11.894531-33.429688-28.578124-38.410156v-15.039063h6.488281c17.800781 0 32.28125 14.476563 32.28125 32.269531zm0 0"/><path d="m279.074219 44.621094c0 13.910156 11.316406 25.226562 25.226562 25.226562 13.910157 0 25.226563-11.316406 25.226563-25.226562s-11.316406-25.226563-25.226563-25.226563c-13.910156 0-25.226562 11.316407-25.226562 25.226563zm35.246093 0c0 5.523437-4.496093 10.015625-10.019531 10.015625-5.523437 0-10.015625-4.492188-10.015625-10.015625 0-5.523438 4.492188-10.019532 10.015625-10.019532 5.523438 0 10.019531 4.496094 10.019531 10.019532zm0 0"/><path d="m227.535156 261.878906h-120.652344c-4.199218 0-7.601562 3.40625-7.601562 7.605469s3.402344 7.601563 7.601562 7.601563h120.652344c4.199219 0 7.605469-3.402344 7.605469-7.601563s-3.40625-7.605469-7.605469-7.605469zm0 0"/><path d="m227.535156 295.078125h-120.652344c-4.199218 0-7.601562 3.40625-7.601562 7.605469 0 4.199218 3.402344 7.605468 7.601562 7.605468h120.652344c4.199219 0 7.605469-3.40625 7.605469-7.605468 0-4.199219-3.40625-7.605469-7.605469-7.605469zm0 0"/><path d="m167.859375 329.460938h-60.976563c-4.199218 0-7.601562 3.402343-7.601562 7.605468 0 4.199219 3.402344 7.601563 7.601562 7.601563h60.976563c4.199219 0 7.605469-3.402344 7.605469-7.601563 0-4.203125-3.40625-7.605468-7.605469-7.605468zm0 0"/></svg>