<?xml version="1.0" encoding="utf-8"?>
<!-- Generator: Adobe Illustrator 25.4.1, SVG Export Plug-In . SVG Version: 6.00 Build 0)  -->
<svg version="1.1" id="Layer_1" xmlns="http://www.w3.org/2000/svg" xmlns:xlink="http://www.w3.org/1999/xlink" x="0px" y="0px"
	 viewBox="0 0 933.3 528" style="enable-background:new 0 0 933.3 528;" xml:space="preserve">
<style type="text/css">
	.st0{fill:#3F3D56;}
	.st1{fill:#60AA1F;}
	.st2{opacity:0.52;fill:#E6E6E6;}
	.st3{fill:#9EF15B;}
	.st4{fill:#A0616A;}
	.st5{fill:#2F2E41;}
</style>
<path id="Path_80-464" class="st0" d="M750,20.1H569.2c-18,0-33.5,12.5-37.5,30l-91.4,405.3c-3.8,16.7,6.7,33.4,23.5,37.1
	c1.7,0.4,3.5,0.6,5.3,0.7l185.9,9.2c20.6,1,38.7-13.4,42.4-33.7l51.8-286.5l3.9,1.1l9.9-54.3l-4-1l14.5-80
	c2.3-12.9-6.2-25.2-19.1-27.5C753,20.2,751.5,20.1,750,20.1L750,20.1z"/>
<path id="Path_81-465" class="st1" d="M593,28.8h-21.1c-12.5,0-23.3,8.7-26,20.9l-87.7,402c-1.9,8.9,3.7,17.7,12.6,19.6
	c0.8,0.2,1.6,0.3,2.4,0.3l185.3,12.1c10.8,0.7,20.5-6.8,22.4-17.5l74.8-415.5c1.8-10.1-4.9-19.9-15.1-21.7c-1.1-0.2-2.2-0.3-3.3-0.3
	h-20c-4,0-7.5,2.7-8.5,6.5l0,0c-0.9,3.4-4,5.8-7.5,5.8h-95.1C599.3,41.1,593.5,35.8,593,28.8z"/>
<path id="Path_93-466" class="st2" d="M695.4,309.8c0.7,0,1.4-0.5,1.5-1.2l41-226.2c0.1-0.4,0-0.9-0.3-1.2c-0.3-0.3-0.7-0.5-1.1-0.5
	L550,78.5h0c-0.7,0-1.3,0.5-1.4,1.2l-48.3,218.8c-0.1,0.4,0,0.9,0.3,1.2c0.3,0.4,0.7,0.6,1.1,0.6L695.4,309.8z"/>
<path id="Path_94-467" class="st2" d="M533.6,324.5c-0.3,0-0.7,0.2-0.7,0.6l-1.7,7.5c-0.1,0.4,0.2,0.8,0.6,0.9c0,0,0.1,0,0.1,0
	l98.6,7c0.4,0,0.7-0.2,0.8-0.6l1.7-8.7c0.1-0.4-0.2-0.8-0.6-0.9c0,0-0.1,0-0.1,0L533.6,324.5L533.6,324.5z"/>
<path id="Path_95-468" class="st2" d="M653.5,368.3c0.4,0,0.7-0.2,0.8-0.6l2.1-8.7c0.1-0.4-0.1-0.8-0.5-0.9c0,0-0.1,0-0.1,0
	l-126-8.8c-0.4,0-0.7,0.2-0.8,0.5l-2.2,7.5c-0.1,0.4,0.1,0.8,0.5,0.9c0,0,0.1,0,0.2,0L653.5,368.3z"/>
<path id="Path_96-469" class="st2" d="M646.7,396.1c0.4,0,0.7-0.2,0.8-0.6l2.1-8.7c0.1-0.4-0.1-0.8-0.5-0.9c0,0-0.1,0-0.1,0
	l-126-8.8c-0.4,0-0.7,0.2-0.8,0.5l-2.2,7.5c-0.1,0.4,0.1,0.8,0.5,0.9c0,0,0.1,0,0.2,0L646.7,396.1z"/>
<path id="Path_79-470" class="st2" d="M428.3,494c0,6.3-57.6,7-128.4,11.4c-70.8,4.4-128.4-5.1-128.4-11.4s57.9-18.9,128.4-11.4
	C370.7,490.2,428.3,487.7,428.3,494z"/>
<path id="Path_97-471" class="st3" d="M588.7,443.6c0.4,0,0.7-0.2,0.8-0.6L594,425c0.1-0.4-0.1-0.8-0.5-0.9c0,0-0.1,0-0.1,0
	l-77.3-6.5c-0.4,0-0.7,0.2-0.8,0.6l-3.9,17.3c-0.1,0.4,0.2,0.8,0.6,0.9c0,0,0.1,0,0.1,0L588.7,443.6z"/>
<path id="Path_111-472" class="st4" d="M276.4,369.9c3.7-2.5,4.6-7.5,2.1-11.2c-0.3-0.4-0.6-0.8-0.9-1.1l3.1-69.9l-15.9,1.8
	l0.9,68.4c-3,3.3-2.7,8.5,0.7,11.5C269.1,371.8,273.3,372.1,276.4,369.9L276.4,369.9z"/>
<path id="Path_112-473" class="st4" d="M305.5,488.3l9.1,1.6l9-34.2l-11.9-2.4L305.5,488.3z"/>
<path id="Path_113-474" class="st5" d="M330.6,501.4l-28.5-5l1.9-11l17.5,3.1C327.6,489.5,331.6,495.3,330.6,501.4L330.6,501.4
	L330.6,501.4z"/>
<path id="Path_114-475" class="st4" d="M280.5,492.8h9.2l4.4-35.5h-13.6L280.5,492.8z"/>
<path id="Path_115-476" class="st5" d="M307.5,501.4l-29,0l0-11.2l17.8,0C302.5,490.2,307.5,495.2,307.5,501.4L307.5,501.4
	L307.5,501.4L307.5,501.4z"/>
<path id="Path_116-477" class="st5" d="M319,480.1c-0.1,0-0.3,0-0.4,0l-10.8-0.9c-2-0.2-3.5-2.1-3.2-4.1c0-0.1,0-0.1,0-0.2
	l10.8-53.1l-6.8-35.7c-0.1-0.7-0.8-1.1-1.4-1c-0.5,0.1-0.9,0.5-1,1.1l-10,90.7c-0.2,2-1.9,3.5-3.9,3.3l-10.2-0.4
	c-1.9-0.1-3.3-1.6-3.4-3.5l0.8-109.6l53-6.6l3.7,57.1l0,0.1l-13.5,59.9C322.2,478.9,320.7,480.1,319,480.1z"/>
<circle id="Ellipse_16" class="st4" cx="296.9" cy="224" r="18.5"/>
<path id="Path_117-478" class="st3" d="M314.3,375.2c-2.9,0-5.7-0.8-8.2-2.3c-8.9-5.6-19.1-3.4-24.4-1.5c-1.1,0.4-2.2,0.2-3.2-0.4
	c-0.9-0.6-1.6-1.6-1.7-2.7l-9.6-85.4c-1.6-14.3,7-27.8,20.5-32l0,0c0.5-0.2,1-0.3,1.5-0.5c8.5-2.3,17.6-0.7,24.8,4.3
	c7.4,5.1,12.1,13.2,12.9,22.1l8,86c0.1,1.1-0.3,2.2-1.1,3C331.2,368.4,323,375.2,314.3,375.2z"/>
<path id="Path_118-479" class="st3" d="M285.2,301.2l-21.6-2.4c-2.4-0.3-4.1-2.4-3.8-4.7c0-0.2,0.1-0.4,0.1-0.6l5.5-20.9
	c0.7-6.6,6.5-11.3,13.1-10.6c6.6,0.7,11.3,6.5,10.6,13.1c0,0.1,0,0.2,0,0.2l0.8,21.6c0.1,2.4-1.8,4.4-4.1,4.5
	C285.6,301.2,285.4,301.2,285.2,301.2L285.2,301.2z"/>
<path id="Path_119-480" class="st4" d="M335,367c3.3-2.9,3.7-8,0.7-11.4c-0.3-0.4-0.7-0.7-1-1l-5.3-69.8l-15.6,3.5l9.2,68
	c-2.6,3.7-1.6,8.7,2,11.3C328.1,369.7,332.2,369.5,335,367L335,367z"/>
<path id="Path_120-481" class="st3" d="M307.8,296.8c-0.9-0.9-1.4-2.1-1.4-3.3l0.8-21.6c-0.7-6.5,4-12.5,10.5-13.2
	c6.5-0.7,12.5,4,13.2,10.5l5.5,20.9c0.6,2.3-0.8,4.6-3.1,5.2c-0.2,0.1-0.4,0.1-0.6,0.1l-21.6,2.4C310,298,308.7,297.6,307.8,296.8
	L307.8,296.8z"/>
<path id="Path_121-482" class="st5" d="M295.8,243.1c-0.3,0-0.7,0-1-0.1l-0.1,0c-16.2-2.5-19.8-11.9-20.6-15.8
	c-0.8-4.1,0.1-8,2.2-9.5c-1.1-3.6-1-6.8,0.5-9.5c2.6-4.7,8.3-6.3,9.1-6.5c4.6-3.4,10-1.1,11-0.7c8.8-3.3,12.2-0.5,12.8,0.1
	c3.9,0.7,6.3,2.2,7.1,4.5c1.5,4.3-3.2,9.7-3.4,9.9l-0.1,0.1l-7,0.3c-2.6,0.1-4.7,2.4-4.5,5c0,0.2,0,0.3,0.1,0.5l0,0
	c0.2,0.9,0.4,1.7,0.7,2.5c1.2,3.8,2.1,7,0.9,8.2c-0.5,0.5-1.3,0.6-2,0.3c-1.1-0.3-1.9-0.2-2.2,0.2c-0.6,0.6-0.4,2.3,0.5,4.6
	c0.6,1.5,0.3,3.2-0.8,4.4C298.2,242.6,297,243.1,295.8,243.1L295.8,243.1z"/>
</svg>
