<svg id="Layer_1" data-name="Layer 1" xmlns="http://www.w3.org/2000/svg" viewBox="0 0 72 72">
    <defs>
        <style>.cls-1,.cls-2,.cls-3{fill:none;stroke-linecap:round;stroke-miterlimit:10;}.cls-1{stroke:#FFFFFF;opacity:1;}.cls-1,.cls-2{stroke-width:2.3px;}.cls-2{stroke:#FFFFFF;fill-rule:evenodd;}.cls-3{stroke:#FFFFFF;stroke-width:2.3px;}</style>
    </defs>
    <title>CUC</title>
    <path class="cls-1" d="M13.132,58.838a32.341,32.341,0,0,1,0-45.737A32.93,32.93,0,0,1,48.538,6.053" />
    <path class="cls-1" d="M58.868,13.1A32.347,32.347,0,0,1,23.83,65.943" />
    <polyline class="cls-1" points="46.71 1.262 49.465 6.341 44.442 9.086" />
    <polyline class="cls-1" points="27.847 62.914 22.824 65.659 25.579 70.738" />
    <path class="cls-2" d="M19.453,29.061a17.714,17.714,0,0,0-1.129,4.013l-2.783,1.287a1.056,1.056,0,0,0-.613,1l.108,2.709a1.055,1.055,0,0,0,.69.949L18.6,40.082a17.844,17.844,0,0,0,1.444,3.911l-1.5,2.676a1.058,1.058,0,0,0,.093,1.17l1.68,2.129a1.057,1.057,0,0,0,1.116.362L24.4,49.5a17.991,17.991,0,0,0,3.463,2.315l-1.784-1.047a18.056,18.056,0,0,0,1.8,1.054l.367,3.047a1.058,1.058,0,0,0,.764.891l2.611.732a1.057,1.057,0,0,0,1.115-.364l1.9-2.41a17.981,17.981,0,0,0,4.162-.173l2.089,2.25a1.056,1.056,0,0,0,1.142.272l2.543-.942a1.056,1.056,0,0,0,.688-.95l.118-3.064a17.741,17.741,0,0,0,3.269-2.586l3.009.592a1.058,1.058,0,0,0,1.083-.451l1.5-2.257a1.056,1.056,0,0,0,0-1.173l-1.706-2.548a17.817,17.817,0,0,0,1.126-4.014l2.782-1.29a1.056,1.056,0,0,0,.611-1l-.111-2.71a1.055,1.055,0,0,0-.691-.948l-2.881-1.06a17.986,17.986,0,0,0-1.446-3.907l1.493-2.679a1.055,1.055,0,0,0-.094-1.169L51.634,21.78a1.057,1.057,0,0,0-1.116-.362l-2.953.836A18.01,18.01,0,0,0,44.1,19.945L43.731,16.9a1.055,1.055,0,0,0-.763-.89l-2.611-.733a1.059,1.059,0,0,0-1.116.364l-1.9,2.411a17.922,17.922,0,0,0-4.161.172l-2.089-2.25a1.057,1.057,0,0,0-1.141-.272l-2.543.942a1.057,1.057,0,0,0-.689.95L26.6,20.656a17.756,17.756,0,0,0-3.27,2.586l-3.009-.592a1.058,1.058,0,0,0-1.083.451l-1.5,2.257a1.056,1.056,0,0,0,0,1.174l1.706,2.547a17.767,17.767,0,0,0-1.127,4.014" />
    <polyline class="cls-3" points="31.017 37.426 34.659 41.067 42.705 33.02" />
</svg>