<?xml version="1.0" encoding="utf-8"?>
<!-- Generator: Adobe Illustrator 25.4.1, SVG Export Plug-In . SVG Version: 6.00 Build 0)  -->
<svg version="1.1" id="Layer_1" xmlns="http://www.w3.org/2000/svg" xmlns:xlink="http://www.w3.org/1999/xlink" x="0px" y="0px"
	 viewBox="0 0 666.7 729.3" style="enable-background:new 0 0 666.7 729.3;" xml:space="preserve">
<style type="text/css">
	.st0{fill:#3F3D56;}
	.st1{opacity:0.35;fill:#49A3CE;}
	.st2{opacity:0.15;fill:#49A3CE;}
	.st3{fill:#E6E6E6;}
	.st4{fill:#E4E4E4;}
	.st5{fill:#FFB6B6;}
	.st6{fill:#2F2E41;}
	.st7{fill:#49A3CE;}
	.st8{opacity:0.4;enable-background:new    ;}
	.st9{fill:#FFFFFF;}
	.st10{fill:#CCCCCC;}
	.st11{opacity:0.17;enable-background:new    ;}
</style>
<path class="st0" d="M15.2,204.7c8.3-5.7,19.1,6.9,13.2,14.7c-5.9,7.9-18.8,5.7-23.3-2.4c-5.7-10.3,0-22.6,9.1-28.6
	c10.4-6.8,23.1-7.2,35.1-6.5c12.1,0.6,23.9,1.5,36-0.2c10.2-1.5,20.2-4.3,29.7-8.3c19.5-8.2,36.7-21.2,49.9-37.8
	c6.2-7.8,11.9-16.6,15.4-25.9c2.7-7.2,4-16.7,0.2-23.7c-3.1-5.9-10.4-8.2-16.3-5c-0.7,0.4-1.4,0.8-2,1.4c-6.4,5.2-8.1,15-3.2,21.8
	c5.3,7.3,15.2,9.8,23.7,8.5c11.9-1.8,21.5-10.2,30.6-17.4l67.3-53.4c11.1-8.8,22.1-17.8,33.3-26.4c9.1-7,20.3-13.8,32.2-10.1
	c4.8,1.5,9.6,5.1,10.8,10.2c0.9,4.8-0.9,9.7-4.7,12.7c-3.4,2.9-8.5,2.5-11.4-0.9c-0.2-0.2-0.3-0.4-0.4-0.6
	c-2.5-3.5-2.7-8.5-1.3-12.4c3.9-10.6,18-11.7,27.5-10.8c11.2,1.1,21.9,4.7,31.6,10.4c20,11.6,34.8,30.5,43.4,51.7
	c9.6,23.5,12.6,49.5,12.2,74.8c-0.1,5.1-0.4,10.8-3.3,15.3c-2.8,4.3-7.8,5.7-12.2,2.8c-1.4-0.9-3.3-2.8-2.9-4.7
	c0.5-2.4,5.3-2.5,7.3-2.4c5.3,0.3,10.4,2.9,14.2,6.6c9.1,8.6,9.8,21.8,8.6,33.5c-1.3,12.9-5,25.7-3.5,38.7
	c2.4,21.4,19.9,33.2,37.1,43c8.8,5,17.8,9.8,25.7,16.2c8.1,6.5,15.1,14.2,21,22.8c11.5,17,18.3,36.7,19.7,57.2
	c0.7,10.2-0.1,20.5-2.4,30.5c-2.3,9.8-5.8,22.1-15.2,27.4c-4.6,2.6-10.3,2.1-14.4-1.3c-3.8-3.1-5.7-8.5-1.7-12.3
	c3.3-3.2,8.5-2.5,12.4-1.2c4.7,1.5,8.4,4.4,11.9,7.8c6.7,6.5,14.6,14.5,24.8,12.4c1.9-0.4,1.1-3.3-0.8-2.9
	c-12.4,2.5-19.8-11.8-28.9-17.4c-6.6-4-17.9-7-23,0.8c-5.6,8.4,3.4,17.5,11.7,18.6c10.8,1.4,18.3-9.2,21.9-17.9
	c8.4-20.2,8.7-43.9,3.5-65c-5.1-21.4-16.3-40.9-32.1-56.2c-8-7.6-17.1-13.4-26.7-18.9c-9.6-5.5-19.7-10.7-27.9-18.2
	c-9.2-8.1-14.4-19.9-14.2-32.3c0.1-14,4.6-27.6,4.3-41.6c-0.2-11.6-4.2-23-14.3-29.6c-4.2-2.8-9.2-4.2-14.2-4
	c-2,0.2-4.9,0.5-6.6,1.8c-1.4,1-1.6,3.5-1.3,5c0.7,3.7,4.2,6.3,7.6,7.3c4.2,1.4,8.9,0,11.7-3.5c3.3-3.8,4.4-8.8,4.9-13.7
	c0.6-6.6,0.3-13.4,0-20c-1.2-26.8-6.5-54.3-20.4-77.6c-11.8-19.8-30.3-36.4-52.4-43.7c-10.4-3.5-22.8-5.5-33.5-2.4
	c-9.2,2.7-16.3,10.3-14.8,20.4c1.3,8.5,10.1,14.4,17.9,9c7.1-4.9,8.8-14.5,3.9-21.6c-0.4-0.6-0.9-1.2-1.5-1.8
	c-7.5-7.9-19.8-7.8-29.2-3.8c-5.7,2.4-10.7,6-15.5,9.8c-6.2,4.8-12.2,9.7-18.3,14.5l-73.6,58.4c-5.8,4.6-11.5,9.4-17.5,13.7
	c-5.6,4.1-11.8,7.8-18.7,9.1c-9.7,1.8-25.1-3-23.9-15.3c0.5-4.8,3.6-10.1,8.5-11.4c4.7-1.3,9.2,1.7,11,6c3.9,9.5-0.7,20.4-5.2,28.8
	c-11.2,20.7-29,37.6-49.8,48.5c-10.4,5.5-21.6,9.5-33.1,11.7c-13,2.5-25.7,2-38.8,1.3c-12.7-0.8-26.1-0.7-37.4,5.9
	c-9.3,5.4-15.5,15.3-14,26.3c1.3,9.5,8.9,16.8,18.8,16c8.3-0.7,16.6-7.7,13.7-16.7c-2.4-7.4-11.8-13.3-19-8.4
	C12.1,203.2,13.6,205.8,15.2,204.7L15.2,204.7z"/>
<path class="st1" d="M651,421.3h-72.7c-2.4,0-4.3,1.9-4.3,4.3v45.3c0,2.4,1.9,4.3,4.3,4.3H651c2.4,0,4.3-1.9,4.3-4.3v-45.3
	C655.2,423.2,653.3,421.3,651,421.3z"/>
<path class="st2" d="M651,421.3h-72.7c-2.4,0-4.3,1.9-4.3,4.3v45.3c0,2.4,1.9,4.3,4.3,4.3H651c2.4,0,4.3-1.9,4.3-4.3v-45.3
	C655.2,423.2,653.3,421.3,651,421.3z M652.4,453.8c0,9.6-7.7,17.4-17.3,17.5c-7.4,0.1,4.1,0.1-4.8,0.1c-20.3,0-41.5-0.2-49.5-0.3
	c-2.2,0-3.9-1.8-3.9-4v-41.6c0-0.8,0.6-1.4,1.4-1.4H651c0.8,0,1.4,0.6,1.4,1.4V453.8z"/>
<path class="st2" d="M642,395.3h-55.4c-1,0-1.9,0.6-2.2,1.6l-8.6,24c-0.4,1.2,0.2,2.6,1.4,3c0.3,0.1,0.5,0.1,0.8,0.1l74.3,0.1h0
	c1.3,0,2.4-1.1,2.4-2.4c0-0.3-0.1-0.6-0.2-0.9l-0.1,0.1l0.1-0.1l-10.3-24.1C643.8,395.8,643,395.3,642,395.3z"/>
<path class="st2" d="M654.7,421.4c0,0.3-0.1,0.6-0.2,0.9l-10.3,18.6c-0.4,0.9-1.2,1.4-2.2,1.4h-55.4c-1,0-1.9-0.6-2.2-1.6l-8.6-18.4
	c-0.4-1.2,0.2-2.6,1.4-3c0,0,0,0,0,0c0.3-0.1,0.5-0.1,0.8-0.1l9.1,0l3.7,0l48.7-0.1l3.7,0l9.1,0h0C653.7,419,654.7,420,654.7,421.4z
	"/>
<path class="st3" d="M583.7,455.3c1.1,0,16.2,0.9,16.2,2s-15.1,2-16.2,2s-2-0.9-2-2C581.7,456.2,582.6,455.3,583.7,455.3z"/>
<path class="st1" d="M638.6,380.7h-46.7c-2.6,0-4.7,2.1-4.7,4.7v56.9H642c0.5,0,0.9-0.1,1.3-0.4v-56.5
	C643.3,382.8,641.2,380.7,638.6,380.7z"/>
<path class="st0" d="M620.7,384.5h-25.6c-2.4,0-4.3,1.9-4.3,4.3v53.5h48.7v-39C639.6,392.9,631.1,384.5,620.7,384.5z"/>
<path class="st4" d="M631.3,437.6h-32.1c-0.6,0-1,0.5-1,1c0,0.6,0.5,1,1,1c0,0,0,0,0,0h32.1c0.6,0,1-0.5,1-1
	S631.9,437.6,631.3,437.6C631.3,437.6,631.3,437.6,631.3,437.6z"/>
<path class="st4" d="M631.3,433.4h-32.1c-0.6,0-1,0.5-1,1.1c0,0.6,0.5,1,1,1h32.1c0.6,0,1-0.5,1.1-1
	C632.3,433.9,631.9,433.4,631.3,433.4C631.3,433.4,631.3,433.4,631.3,433.4z"/>
<path class="st4" d="M613.1,429.3h-13.9c-0.6,0-1,0.5-1,1s0.5,1,1,1c0,0,0,0,0,0h13.9c0.6,0,1-0.5,1-1S613.7,429.3,613.1,429.3
	C613.1,429.3,613.1,429.3,613.1,429.3z"/>
<path class="st4" d="M631.3,420.6h-32.1c-0.6,0-1,0.5-1,1.1c0,0.6,0.5,1,1,1h32.1c0.6,0,1-0.5,1.1-1
	C632.3,421.1,631.9,420.6,631.3,420.6C631.3,420.6,631.3,420.6,631.3,420.6z"/>
<path class="st4" d="M631.3,416.5h-32.1c-0.6,0-1,0.5-1,1c0,0.6,0.5,1,1,1c0,0,0,0,0,0h32.1c0.6,0,1-0.5,1-1
	C632.3,416.9,631.9,416.5,631.3,416.5C631.3,416.5,631.3,416.5,631.3,416.5z"/>
<path class="st4" d="M613.1,412.3h-13.9c-0.6,0-1,0.5-1,1.1c0,0.6,0.5,1,1,1h13.9c0.6,0,1-0.5,1.1-1
	C614.1,412.8,613.7,412.3,613.1,412.3C613.1,412.3,613.1,412.3,613.1,412.3z"/>
<path class="st4" d="M631.3,403.7h-32.1c-0.6,0-1,0.5-1,1.1c0,0.6,0.5,1,1,1h32.1c0.6,0,1-0.5,1.1-1
	C632.3,404.1,631.9,403.7,631.3,403.7C631.3,403.7,631.3,403.7,631.3,403.7z"/>
<path class="st4" d="M631.3,399.5h-32.1c-0.6,0-1,0.5-1,1.1c0,0.6,0.5,1,1,1h32.1c0.6,0,1-0.5,1.1-1
	C632.3,400,631.9,399.5,631.3,399.5C631.3,399.5,631.3,399.5,631.3,399.5z"/>
<path class="st4" d="M613.1,395.4h-13.9c-0.6,0-1,0.5-1,1.1c0,0.6,0.5,1,1,1h13.9c0.6,0,1-0.5,1.1-1
	C614.1,395.8,613.7,395.4,613.1,395.4C613.1,395.4,613.1,395.4,613.1,395.4z"/>
<circle class="st5" cx="267.1" cy="168.1" r="31"/>
<path class="st6" d="M302.5,150.4c-3.3-5-9.4-8.4-15.3-7.5c-1.7-11.4-12.3-19.3-23.7-17.7c-4.2,0.6-8.2,2.5-11.3,5.5
	c-1.9-1.3-4.3-1.6-6.4-0.6c-2,0.9-3.8,2.4-5.2,4.1c-6.9,8.6-8.6,20.4-4.2,30.6c-0.7-2.6,1.9-5.1,4.6-5.7c2.7-0.6,5.5,0,8.2-0.4
	c3.5-0.5,6.6-2.5,10.1-3c2.9-0.4,5.9,0.4,8.7,1.1c2.8,0.8,5.8,1.5,8.7,1.2c2.9-0.3,6.7,10.7,6.6,18.5c0,1.5,0.3,3.4,1.7,3.7
	c1.8,0.4,2.8-2.1,4.5-2.7c1.6-0.5,3.3,0.4,3.8,2c0.4,1.6,0.1,3.3-1,4.6c-1,1.2-2.3,2.3-3.7,3.2l0.7,0.6c1.2,1.5,3.6,1.6,5.2,0.7
	c1.6-1.1,2.9-2.6,3.8-4.3c3.1-5.1,5.8-10.6,6.9-16.5C306.4,161.8,305.8,155.4,302.5,150.4z"/>
<polygon class="st5" points="303.5,711 286.7,710.9 278.8,646.4 303.5,646.4 "/>
<path class="st6" d="M304.1,728.4l-51.5,0v-0.7c0-11.1,9-20,20-20h0l9.4-7.1l17.5,7.1l4.5,0L304.1,728.4z"/>
<polygon class="st5" points="333.7,681.4 320.5,691.8 274.2,646.1 293.6,630.7 "/>
<path class="st6" d="M345,694.7l-40.4,31.9l-0.4-0.5c-6.9-8.7-5.4-21.3,3.3-28.1l0,0l3-11.4l18.2-5.3l3.5-2.8L345,694.7z"/>
<polygon class="st6" points="216.9,408.3 215.9,427.1 220.9,433.1 220.3,452 225.1,464.3 228.5,503.6 276,667.3 318.8,653.6 
	272.1,500.9 328.3,499.5 330.2,413.4 320.3,394.2 "/>
<polygon class="st6" points="322.9,486.5 328.3,499.5 307.4,682.2 278.1,684.4 265.4,480.1 "/>
<polygon class="st7" points="294.2,217.3 284.5,203.9 253.4,205.2 252.8,215.5 232.1,410.7 252.4,410.2 277.6,416.1 326.1,399.1 "/>
<path class="st0" d="M240.1,414.3h-47.7l12.4-87.9l5-35.6c0,0-3.6-25.5-5.3-38.8c-0.2-1.4,0.1-2.9,0.7-4.1c0.6-1.2,1.3-2.3,2.2-3.3
	c5.8-6.7,18.9-12.5,27-15.7c4.2-1.6,7.1-2.6,7.1-2.6l11.1-10.9C268.8,235.4,240.1,414.3,240.1,414.3z"/>
<path class="st0" d="M288.1,210l15.1,8.7c0,0,44.8,7.4,49.2,24.2l-16.5,49.8v104.7l-40,16C295.9,413.4,261.4,244.3,288.1,210z"/>
<polyline class="st8" points="272.8,475.9 265.4,561.5 278,661.3 "/>
<path class="st5" d="M94.2,316.3c4.7-3.3,11.1-2.3,14.5,2.4c0.4,0.5,0.7,1,0.9,1.6l36.7-4.1l-8.7,17.1l-33.5,1.3
	c-5.4,2.1-11.4-0.5-13.6-5.8C88.8,324.2,90.3,319.1,94.2,316.3L94.2,316.3z"/>
<polygon class="st0" points="248.2,241.4 258.7,247.7 199.9,330.5 128.1,336.6 125.3,316.1 178.1,300.3 204.3,249.6 "/>
<path class="st5" d="M462.1,309.3c-4.7-3.3-11.1-2.3-14.5,2.4c-0.4,0.5-0.7,1-0.9,1.6l-36.7-4.1l8.7,17.1l33.5,1.3
	c5.4,2.1,11.4-0.5,13.6-5.8C467.5,317.2,466,312.1,462.1,309.3L462.1,309.3z"/>
<polygon class="st0" points="308.2,234.4 297.7,240.7 356.4,323.5 428.2,329.6 431,309.1 378.2,293.3 352.1,242.6 "/>
<path class="st7" d="M165.2,214.9v-1.1h-18.3v-25.5h-1.1v25.5h-21v-19.7c-0.4,0.3-0.7,0.6-1.1,0.9v18.8h-13.9
	c-0.2,0.4-0.3,0.7-0.4,1.1h14.3v21.5h-17.8c0,0.4,0,0.7,0.1,1.1h17.7v17.1h-13.3c0.2,0.4,0.3,0.7,0.5,1.1h12.8v14.4h1.1v-14.4h21
	v14.4h1.1v-14.4h18.3v-1.1h-18.3c0-9.5,7.7-17.1,17.1-17.1c0,0,0,0,0,0h1.2v-1.1h-18.3v-21.5H165.2z M145.8,254.6h-21v-17.1h21
	V254.6z M145.8,236.4h-21V236c0-11.6,9.4-21,21-21c0,0,0,0,0,0V236.4z"/>
<path class="st0" d="M324.6,63.5c-0.3,0.1-0.6,0-0.8-0.3l-1.5-3.7c-0.1-0.3,0-0.6,0.3-0.8c0.3-0.1,0.6,0,0.8,0.3l1.5,3.7
	C325.1,63,324.9,63.3,324.6,63.5z"/>
<path class="st0" d="M355.3,36.3L355.3,36.3l-4.5-11c-1.4-3.5-5.5-5.2-9-3.7c0,0,0,0,0,0l0,0l-23.2,9.6c-3.5,1.4-5.2,5.5-3.7,9
	c0,0,0,0,0,0l0,0l24.9,60.1c1.4,3.5,5.5,5.2,9,3.7c0,0,0,0,0,0l0,0l23.2-9.6c3.5-1.4,5.2-5.5,3.7-9l0,0l0,0l-17.1-41.4l0,0
	c0.2-0.1,0.3-0.3,0.2-0.6v0l-2.9-7C355.8,36.3,355.5,36.2,355.3,36.3C355.3,36.3,355.3,36.3,355.3,36.3z"/>
<path class="st7" d="M349.4,25.9l24.8,60c1.1,2.6-0.1,5.6-2.7,6.7c0,0,0,0,0,0l-23.3,9.7c-2.6,1.1-5.6-0.2-6.7-2.8l-24.8-60
	c-1.1-2.6,0.2-5.6,2.8-6.7c0,0,0,0,0,0l2.8-1.2c0,1.3,1.1,2.4,2.4,2.4c0.3,0,0.6-0.1,0.9-0.2l13.3-5.5c0.3-0.1,0.6-0.3,0.8-0.5
	c1-0.9,1-2.5,0-3.4c0,0,0,0,0,0l3-1.3C345.3,22,348.3,23.3,349.4,25.9z"/>
<path class="st0" d="M322.1,57.2c-0.3,0.1-0.6,0-0.8-0.3l-1.5-3.7c-0.1-0.3,0-0.6,0.3-0.8c0.3-0.1,0.6,0,0.8,0.3l1.5,3.7
	C322.5,56.7,322.4,57.1,322.1,57.2z"/>
<path class="st0" d="M319,50.1c-0.3,0.1-0.6,0-0.8-0.3l-1.5-3.7c-0.1-0.3,0-0.6,0.3-0.8c0.3-0.1,0.6,0,0.8,0.3l0,0l1.5,3.7
	C319.4,49.6,319.3,50,319,50.1z"/>
<path class="st9" d="M327.5,30.1c-0.1-0.3,0-0.6,0.3-0.8l3.7-1.5c0.3-0.1,0.6,0,0.8,0.3s0,0.6-0.3,0.8l-3.7,1.5
	C328,30.6,327.7,30.4,327.5,30.1z"/>
<circle class="st9" cx="333.8" cy="27.5" r="0.6"/>
<path class="st7" d="M460.5,287.4c-0.1,0-0.1,0-0.2,0c-1.8-0.1-3.4-1-4.3-2.5c-3.5-5.3-7.8-10-12.8-13.9c-3-2.4-6.2-4.6-9.2-6.8
	c-7.8-5.6-15.2-10.8-19.3-18.1c-8.9-15.8,1.6-37.9,16.6-47.8c16.9-11.1,39.1-12.8,60.5-13.1c2.2,0,4.5,0,6.7,0l0,0
	c38.7,0,77.3,3.5,115.3,10.5c12.6,2.3,25.9,5.2,36.5,12.1c10.6,6.9,17,17.8,16.4,27.7c-0.9,14.5-16.3,25.3-30.2,28.1
	c-13.3,2.7-27.1,0.9-41.8-1.1c-3.2-0.4-6.6-0.9-9.9-1.2c-35.9-4.2-103.4,8.6-106.3,9.2l-2.8,0.5l-11,14.1
	C463.7,286.6,462.2,287.4,460.5,287.4z"/>
<path class="st9" d="M620.5,216.8H468.7c-1.8,0-3.3-1.5-3.3-3.3c0-1.8,1.5-3.3,3.3-3.3h151.8c1.8,0,3.3,1.5,3.3,3.3
	C623.8,215.3,622.3,216.8,620.5,216.8z"/>
<path class="st9" d="M620.5,237.1H468.7c-1.8,0-3.3-1.5-3.3-3.3c0-1.8,1.5-3.3,3.3-3.3h151.8c1.8,0,3.3,1.5,3.3,3.3
	C623.8,235.6,622.3,237.1,620.5,237.1z"/>
<path class="st9" d="M486.4,257.3h-17.7c-1.8,0-3.3-1.5-3.3-3.3c0-1.8,1.5-3.3,3.3-3.3h17.7c1.8,0,3.3,1.5,3.3,3.3
	C489.6,255.9,488.2,257.3,486.4,257.3z"/>
<circle class="st9" cx="462.4" cy="294.4" r="16.1"/>
<path class="st0" d="M462.4,310.6c-9,0-16.3-7.3-16.3-16.3s7.3-16.3,16.3-16.3c9,0,16.3,7.3,16.3,16.3
	C478.6,303.3,471.4,310.6,462.4,310.6z"/>
<path class="st9" d="M461.2,300.8c0,0-0.1,0-0.1,0c-0.6,0-1.2-0.3-1.6-0.8l-2.7-3.4c-0.7-0.9-0.5-2.2,0.4-2.9c0,0,0,0,0,0l0.1-0.1
	c0.9-0.7,2.2-0.5,2.9,0.4c0,0,0,0,0,0c0.5,0.7,1.5,0.8,2.2,0.3c0.1,0,0.1-0.1,0.2-0.2l5.4-5.8c0.8-0.8,2.1-0.9,3-0.1l0.1,0.1
	c0.8,0.8,0.9,2.1,0.1,3c0,0,0,0,0,0l-8.5,8.9C462.3,300.5,461.8,300.8,461.2,300.8z"/>
<path class="st0" d="M162.6,86.8l-9.8-59.1c-0.4-2.5,1.3-4.8,3.8-5.3l44.6-7.4c2.5-0.4,4.8,1.3,5.3,3.8l9.8,59.1
	c0.4,2.5-1.3,4.8-3.8,5.3l-44.6,7.4C165.4,91,163,89.3,162.6,86.8z"/>
<path class="st9" d="M163,68.4l-6.3-38c-0.4-2.3,1.2-4.5,3.5-4.9l38.3-6.4c2.3-0.4,4.5,1.2,4.9,3.5l8.7,52.6
	c0.4,2.3-1.2,4.5-3.5,4.9L185,84.1C174.6,85.8,164.8,78.8,163,68.4z"/>
<path class="st7" d="M164.7,40c-0.4-2.3,1.2-4.4,3.4-4.8l26.6-4.4c2.3-0.4,4.4,1.2,4.8,3.4c0.4,2.3-1.2,4.4-3.4,4.8l-26.6,4.4
	C167.2,43.8,165.1,42.2,164.7,40z"/>
<path class="st7" d="M166.8,52.8c-0.4-2.3,1.2-4.4,3.4-4.8l26.6-4.4c2.3-0.4,4.4,1.2,4.8,3.4c0.4,2.3-1.2,4.4-3.4,4.8l0,0l-26.6,4.4
	C169.4,56.6,167.2,55.1,166.8,52.8z"/>
<path class="st7" d="M169,65.6c-0.4-2.3,1.2-4.4,3.4-4.8l26.6-4.4c2.3-0.4,4.4,1.2,4.8,3.4c0.4,2.3-1.2,4.4-3.4,4.8l-26.6,4.4
	C171.5,69.5,169.4,67.9,169,65.6z"/>
<path class="st2" d="M395.7,687.6l0.7-15.9c7.4-3.9,15.6-6,24-6.1c-11.5,9.4-10.1,27.5-17.9,40.2c-5,8-13.3,13.2-22.7,14.3l-9.6,5.9
	c-2.7-14.9,1.3-30.2,10.9-41.9c2.7-3.2,5.8-6.1,9.2-8.5C392.6,681.6,395.7,687.6,395.7,687.6z"/>
<path class="st10" d="M523.3,727.7c0,0.9-0.7,1.6-1.5,1.6c0,0,0,0,0,0H103.7c-0.9,0-1.6-0.7-1.6-1.6s0.7-1.6,1.6-1.6l0,0h418.1
	C522.6,726.1,523.3,726.8,523.3,727.7C523.3,727.7,523.3,727.7,523.3,727.7z"/>
<path class="st0" d="M104.7,308.3c-7.4-0.1-47.2-1.3-53.8-1c-0.4-1.3-12.7,14.6-13.1,14.7c-0.7,0.7-0.7,1.9,0.1,2.6
	c0.2,0.1,0.3,0.3,0.5,0.4c0.7,0.4,64.9-0.7,65.7-0.6c0.7,0,1.3-0.4,1.6-1l0.4-1c0-1.6,0.6-10,0.1-11.5c0.4-0.9,0-1.9-0.9-2.3
	C105.2,308.3,105,308.3,104.7,308.3z"/>
<path class="st11" d="M106.3,322.3c-0.4,0.9-0.9,2-2,2l-65,0.7c-1,0-1.8-0.8-1.8-1.8c0-0.3,0.1-0.6,0.2-0.8L106.3,322.3z"/>
<path class="st0" d="M51.3,307.1c-0.7-1.2-18.1-87.2-19.5-88l-11.9-14.5l-1.1-0.8c-1.5-0.8-5-0.3-4.7,2l0,0
	c2.8,13.4,20.7,89.5,21.1,101.4l2.2,15.1c0.2,1,1.1,1.7,2.1,1.6c0.1,0,0.1,0,0.2,0c1.3-0.1,2.4-0.9,2.9-2.1
	C42.7,321.2,52.1,307.4,51.3,307.1z"/>
<path class="st11" d="M19.9,204.6l22.7,117.2c-0.8,1.9-4.3,3.3-5.1,0.7c0,0-23.3-116.6-23.3-116.7C13.9,203,18.5,202.9,19.9,204.6z"
	/>
<polygon class="st7" points="20.5,209.4 32.1,225.5 45,286.9 39,292.2 "/>
<path class="st6" d="M97.3,316.6l3.2,0.1c0-0.9,0.2-1.9,0.5-2.8c0.5-2.3,0.9-5-1.1-5c-1.4-0.1-1.8,1.6-2,3.4
	C97.8,313.8,97.6,315.2,97.3,316.6z"/>
<path class="st6" d="M79,312.3l2.1,0.1l1,0c0-1.1,0.5-3.5-0.8-4.1c-0.2-0.1-0.4-0.1-0.6-0.1c-1.2-0.1-1.6,0.9-1.7,1.9
	c-0.1,0.6,0,1.3-0.1,1.9C79,312.1,79,312.2,79,312.3z"/>
<path class="st6" d="M72.6,312l2.2,0.1l1,0c0-1.3,0.7-4.2-1.4-4.2c-1.9-0.1-1.7,2.4-1.7,3.8C72.7,311.8,72.6,311.9,72.6,312z"/>
<path class="st6" d="M66.3,311.8l2.1,0.1l1,0c0-1.3,0.7-4.2-1.4-4.2c-1.9-0.1-1.7,2.4-1.7,3.8C66.3,311.6,66.3,311.7,66.3,311.8z"/>
<path class="st6" d="M59.9,311.5l2.2,0.1l1,0c0-1.3,0.7-4.2-1.4-4.2c-1.9-0.1-1.7,2.4-1.7,3.8C59.9,311.3,59.9,311.4,59.9,311.5z"/>
<path class="st6" d="M53.5,311.3l2.1,0.1l1,0c0-1.2,0.6-3.7-1-4.1h0c-0.1,0-0.3-0.1-0.4-0.1c-0.2,0-0.4,0-0.5,0h0
	c-1.3,0.4-1.1,2.5-1.2,3.7C53.5,311.1,53.5,311.2,53.5,311.3z"/>
<path class="st6" d="M90.9,310.6l3.2,0.1c0-0.1,0-0.2,0-0.4c0.1-0.8,0.1-1.5,0-2.3c-0.1-0.8-0.5-1.5-1.5-1.5c-1-0.1-1.4,0.6-1.6,1.5
	c0,0.1-0.1,0.3-0.1,0.4v0C90.9,309.2,90.9,310,90.9,310.6z"/>
<path class="st6" d="M84.5,310.3l3.2,0.1c0.1-0.9,0.1-1.7,0.1-2.6c-0.1-0.9-0.4-1.6-1.5-1.6c-1.1-0.1-1.5,0.6-1.6,1.5
	C84.5,308.7,84.6,309.7,84.5,310.3z"/>
<path class="st6" d="M78.1,310.1l1,0l2.2,0.1c0-0.5,0.1-1.2,0.1-1.9c0-0.2,0-0.4,0-0.6c-0.1-0.9-0.4-1.7-1.5-1.7
	c-1.1-0.1-1.5,0.7-1.6,1.6C78.1,308.5,78.2,309.5,78.1,310.1z"/>
<path class="st6" d="M90.9,316.3l3.2,0.1c0-1.3,0.7-4.2-1.4-4.2C90.6,312.1,91.1,315,90.9,316.3z"/>
<path class="st6" d="M84.6,316.1l3.2,0.1c0-1.3,0.7-4.2-1.4-4.2C84.2,311.9,84.7,314.8,84.6,316.1z"/>
<path class="st6" d="M78.2,315.8l3.2,0.1c0-0.9,0.3-2.6-0.2-3.6c-0.3-0.4-0.7-0.7-1.2-0.6c-0.3,0-0.7,0-0.9,0.2
	C78,312.6,78.3,314.8,78.2,315.8z"/>
<path class="st6" d="M71.8,315.6l3.2,0.1c0-0.9,0.3-2.6-0.2-3.6c-0.3-0.4-0.7-0.7-1.2-0.6c-0.3,0-0.7,0-0.9,0.2
	C71.6,312.4,71.9,314.5,71.8,315.6z"/>
<path class="st6" d="M65.5,315.3l3.2,0.1c0-0.9,0.3-2.6-0.2-3.6c-0.3-0.4-0.7-0.7-1.2-0.6c-0.3,0-0.7,0-0.9,0.2
	C65.3,312.1,65.6,314.2,65.5,315.3z"/>
<path class="st6" d="M59.1,315l3.2,0.1c0-0.9,0.3-2.6-0.2-3.6c-0.3-0.4-0.7-0.7-1.2-0.6c-0.3,0-0.7,0-0.9,0.2
	C58.9,311.9,59.2,314,59.1,315z"/>
<path class="st6" d="M52.7,314.8l3.2,0.1c0-0.9,0.3-2.6-0.2-3.6c-0.3-0.4-0.7-0.7-1.2-0.6c-0.3,0-0.7,0-0.9,0.2
	C52.5,311.6,52.8,313.7,52.7,314.8z"/>
</svg>
