<svg xmlns="http://www.w3.org/2000/svg" width="108" height="86.065" viewBox="0 0 108 86.065">
    <g>
        <path d="M23.524-15.791q0 4.915 2.819 7.132t8.264 2.313V.4Q25.452.3 20.44-3.792t-5.011-11.517v-14.6q0-5.012-3.036-7.156T3.574-39.21V-46q6.265-.1 9.059-2.313t2.795-6.843v-14.75q0-7.469 5.2-11.613t13.975-4.144v6.7q-11.083.289-11.083 9.59v14.216q0 10.361-10.746 12.24v.578q10.75 1.876 10.75 12.239z" transform="translate(-8242.574 -7261.336) translate(8239 7347)"/>
        <path d="M39.478-85.664L7.594-.133H1.172l31.884-85.531z" transform="translate(-8242.574 -7261.336) translate(8275.613 7347.474)"/>
        <path d="M25.9-42.921Q15.158-44.8 15.158-55.161v-14.215q0-9.3-10.939-9.59v-6.7q8.867 0 13.951 4.192t5.084 11.565v14.746q0 4.674 2.843 6.867T35.2-46v6.795q-5.879 0-8.915 2.144t-3.032 7.151v14.6q0 7.373-4.939 11.493T4.219.4v-6.746q5.349-.1 8.144-2.313t2.795-7.132V-30.1q0-5.493 2.65-8.385t8.1-3.855z" transform="translate(-8242.574 -7261.336) translate(8315.37 7347)"/>
    </g>
</svg>
