<?xml version="1.0" encoding="utf-8"?>
<!-- Generator: Adobe Illustrator 25.4.1, SVG Export Plug-In . SVG Version: 6.00 Build 0)  -->
<svg version="1.1" id="Layer_1" xmlns="http://www.w3.org/2000/svg" xmlns:xlink="http://www.w3.org/1999/xlink" x="0px" y="0px"
	 viewBox="0 0 751.1 489.5" style="enable-background:new 0 0 751.1 489.5;" xml:space="preserve">
<style type="text/css">
	.st0{opacity:0.2;fill:#EBB1D1;}
	.st1{fill:#BDA3EF;}
	.st2{fill:#9C7FD3;}
	.st3{fill:#CACACA;}
	.st4{fill:#3F3D56;}
	.st5{fill:#9E616A;}
	.st6{fill:#E6E6E6;}
	.st7{fill:#2F2E41;}
</style>
<path class="st0" d="M174.8,428l-22.1-7.7c-2.4-12-1.9-24.5,1.6-36.2c8.4,20.1,34.5,25.8,49,42.1c9.1,10.4,12.9,24.3,10.5,37.9
	l4.2,16c-22.1-2.5-42-14.6-54.4-33c-3.4-5.1-6.1-10.7-8.1-16.5C165,429.8,174.8,428,174.8,428z"/>
<path class="st1" d="M430.9,284.8H315.4c-3.4,0-6.2,2.8-6.2,6.2v182.5h127.8V290.9C437.1,287.5,434.3,284.8,430.9,284.8
	C430.9,284.8,430.9,284.8,430.9,284.8z M373.5,388.4c-7.5,0-13.6-6.1-13.6-13.6v-21c0-7.5,6.1-13.6,13.6-13.6
	c7.5,0,13.6,6.1,13.6,13.6v21C387.1,382.3,381,388.4,373.5,388.4z"/>
<path class="st2" d="M308.8,467.6v17.6c0,1.9,1.5,3.4,3.4,3.4H434c1.9,0,3.4-1.5,3.4-3.4v-17.6H308.8z"/>
<path class="st2" d="M622.2,0H128.4c-8.8,0-16,7.2-16,16v333.2c0,8.8,7.2,16,16,16h493.8c8.8,0,16-7.2,16-16V16
	C638.2,7.2,631,0,622.2,0z M626.6,345.1c0,4.7-3.8,8.6-8.6,8.6H132.5c-4.7,0-8.6-3.8-8.6-8.6V20.1c0-4.7,3.8-8.6,8.6-8.6H618
	c4.7,0,8.6,3.8,8.6,8.6V345.1z"/>
<path class="st1" d="M629.5,18.9v282.8c-94.9,27.7-194.3-26.9-222-121.8c-17.3-59.4-2.7-123.6,38.6-169.6H621
	C625.7,10.3,629.5,14.2,629.5,18.9z"/>
<path class="st3" d="M593.6,56.3H139.3c-1,0-1.8-0.8-1.8-1.8c0-1,0.8-1.7,1.8-1.8h454.3c1,0,1.8,0.8,1.8,1.8
	C595.4,55.5,594.6,56.3,593.6,56.3z"/>
<ellipse class="st2" cx="170.3" cy="32.7" rx="10.6" ry="10.8"/>
<ellipse class="st2" cx="206.8" cy="32.7" rx="10.6" ry="10.8"/>
<ellipse class="st4" cx="243.4" cy="32.7" rx="10.6" ry="10.8"/>
<path class="st4" d="M571.6,24.5h-26c-1.1,0-1.9,0.9-1.9,2c0,1.1,0.9,1.9,1.9,1.9h26c1.1,0,1.9-0.9,1.9-2
	C573.5,25.4,572.7,24.5,571.6,24.5z"/>
<path class="st4" d="M571.6,31.9h-26c-1.1,0-1.9,0.9-1.9,2c0,1.1,0.9,1.9,1.9,1.9h26c1.1,0,1.9-0.9,1.9-2
	C573.5,32.8,572.7,31.9,571.6,31.9z"/>
<path class="st4" d="M571.6,39.3h-26c-1.1,0-1.9,0.9-1.9,2c0,1.1,0.9,1.9,1.9,1.9h26c1.1,0,1.9-0.9,1.9-2
	C573.5,40.2,572.7,39.3,571.6,39.3z"/>
<path class="st5" d="M254,254.3c2.5-2.7,2.3-7-0.4-9.6c-0.3-0.3-0.6-0.5-0.9-0.7l5.5-23.4l-11.7,4.3l-3.5,21.5
	c-1.8,3.3-0.6,7.4,2.7,9.2C248.4,257.2,251.8,256.6,254,254.3L254,254.3z"/>
<path class="st6" d="M282.2,156.3l-4.7,12.1c0,0,2,12.1-1.3,14.8s-2,2.7-2,4.7c-0.2,2.9-1.7,5.6-4,7.4c-2.7,2-14.8,43-14.8,43h-12.1
	c0.4-3.1,0.4-6.3,0-9.4c-0.7-4.7,2-16.8,3.4-18.8s0-4.7,0-8.7s2.7-6.1,2.7-12.8s8.1-59.2,7.4-65.2s6.7-11.4,6.7-11.4h6.7
	L282.2,156.3z"/>
<polygon class="st5" points="325.8,471.5 335.1,471.5 339.6,435.6 325.8,435.6 "/>
<path class="st7" d="M322.8,465.2l14.9-0.9v6.4l14.1,9.8c1.8,1.2,2.3,3.7,1,5.5c-0.7,1.1-2,1.7-3.3,1.7h-17.7l-3.1-6.3l-1.2,6.3
	h-6.7L322.8,465.2z"/>
<polygon class="st5" points="209.1,463.6 217.7,467.1 235.1,435.3 222.4,430.2 "/>
<path class="st7" d="M208.6,456.6l14.2,4.7l-2.4,5.9l9.5,14.3c1.2,1.8,0.7,4.3-1.1,5.5c-1.1,0.7-2.5,0.9-3.7,0.4l-16.5-6.6l-0.5-7
	l-3.4,5.4l-6.2-2.5L208.6,456.6z"/>
<path class="st7" d="M307,364.6l-15.5-72.5l-24.3,80.5l-38.4,76.4l-0.2,0.4l-12.2-6.6c-1.7-31,2.4-60.1,17.3-85.5l7.1-69.7
	c0.2-2.4,5.5-58.3,22.2-68.3l4.9-11.1l48.6-12l0.2,0.2c4.7,5.3,7.8,11.7,8.9,18.7l14.5,88l0,0l-3.9,61.4l5.3,90.5h-19.3
	C310.3,432.6,305.2,402.5,307,364.6z"/>
<path class="st7" d="M353,123.2l29.5-10.3c1.9-0.7,4,0.3,4.6,2.3c0.7,1.9-0.3,4-2.2,4.6l-29.5,10.3c-1.9,0.7-4-0.3-4.6-2.3
	C350.1,126,351.1,123.9,353,123.2L353,123.2z"/>
<path class="st2" d="M384.6,118.9c0.6,2,3.1,3,5.1,2.4c2-0.7,3.6-2.1,4.6-3.9c1.1-1.8,1.8-3.7,2.9-5.5c2.1-3.3,5.5-5.7,9.3-6.7
	c-3.4-0.5-6.9,0.2-9.9,1.9c-1.1,0.7-2.2,1.3-3.5,1.6c-1.3,0.1-2.6,0.1-4-0.1c-3.4,0.2-6,3-5.8,6.4c0.1,1.4,0.7,2.8,1.6,3.9"/>
<path class="st5" d="M380.8,122c-0.5,3.7-3.9,6.3-7.6,5.9c-0.4,0-0.8-0.1-1.2-0.3L357.8,147l-4.3-11.7l14.2-16.6
	c1.4-3.5,5.3-5.2,8.8-3.9C379.4,115.9,381.2,118.9,380.8,122L380.8,122z"/>
<path class="st6" d="M253.5,231.9c-1.3,0-2.1-0.3-2.3-0.8c-0.4-0.8,0.3-1.9,1.2-3.1c0.6-0.9,2.3-2.5,1.5-2.6
	c-12.9-1.6-6.7-81-1.1-91.5c1.1-2.1-0.1-5.4,1.2-9c3.5-9.9,8.3-12.9,17.8-19c0.8-0.5,1.6-1,2.4-1.5c1.1-0.7,1-3,1-5.4
	c-0.1-2.7-0.1-5.5,1.2-7.3l0.1-0.1l0.1,0c3.2-0.7,14-2.1,20.4,0l0.1,0l0.1,0.1c1.5,1.5,1.7,4.5,1.8,7.3c0.1,2.3,0.2,4.5,1.1,5.5
	c6.6,7.3,14,7.2,14.1,7.2l0.4,0l0,0.4c4.6,8.8,1,41.3,4.2,61.5c3.2,20.5,31,38,7.2,41.1c0.1,0.2,0.1,0.4,0,0.5
	C324.3,217.6,258.5,231.9,253.5,231.9z"/>
<path class="st6" d="M328.8,172.1l-12.8-7.2c-22.4-15.5-27.9-27.8-28.6-35.4c-0.7-8.1,3.6-12.6,3.8-12.7l0.1-0.1l11.6-5.9
	c5.7-2.9,12.7-0.7,15.7,5.1c0.2,0.4,0.4,0.9,0.6,1.3l10.7,29.4l11.9-8.7l5.1-2l4.1-5.5l11.2-6.5l8.3,7.5l-10.5,20.9l-5.8,1.5
	l-1.2,3.2l-0.1,0.1L328.8,172.1z"/>
<path class="st5" d="M305.8,78c-5.8,10.6-19.1,14.5-29.6,8.7s-14.5-19.1-8.7-29.6c5.8-10.6,19.1-14.5,29.6-8.7
	c4.4,2.4,7.9,6.3,9.8,11c0.1,0.2,0.2,0.5,0.3,0.8C309.3,66,308.8,72.5,305.8,78z"/>
<path class="st7" d="M308.9,60.1c-0.9-2.6-0.5-1.3-1.5-3.9c0.3,1.3,0.2,2.6-0.3,3.9h-26V45c7.6-3,15.1-5.6,19.6,0
	c8.4,0,15.1,6.8,15.1,15.1H308.9z"/>
<path class="st7" d="M299.7,102.1c0-0.3,0-0.6-0.1-0.9c-0.3-2.1-0.9-4.1-1.7-6c-0.8-2.1-1.5-4.2-2.3-6.3c1,3.8,0.7,7.9-0.8,11.5
	c-4.4-3.4-1.6-11.2-7.4-11.2c-13.8,0-28-11.2-28-25c0-13.8,5.9-24.1,19.7-24.1c13.8,0,25,6.3,25.3,20.1
	C287.5,64.2,302.9,100.7,299.7,102.1z"/>
<circle class="st7" cx="261.2" cy="46.1" r="16"/>
<path class="st7" d="M266.5,46.7c-2.7,3.2-7,4.4-10.9,6.1c-13.9,6.1-23.8,18.6-26.6,33.5c-1.1,6-0.9,12.1-2.6,18
	c-1.7,5.8-5.8,11.5-11.8,12.5c-4,0.7-8.1-0.9-11.9-2.4c-2.1-0.8-4.2-1.7-6.3-2.5c2.2-5.5,4.4-10.9,6.5-16.4
	c-3.5,5.2-7.6,9.9-12.1,14.2c-7.5-3-15-6-22.5-9.1c18.5,0.1,15.3-17.9,19.4-35.8c2.3-9.9,21.6-16.6,25.4-26
	c5.9-14.7,22.7-21.9,37.4-16c6.4,2.6,11.6,7.3,14.8,13.3C269.1,37.7,269.2,43.6,266.5,46.7z"/>
<path class="st3" d="M749.9,489.2L1.2,489.5c-0.7,0-1.2-0.5-1.2-1.2c0-0.7,0.5-1.2,1.2-1.2l748.8-0.3c0.7,0,1.2,0.5,1.2,1.2
	C751.1,488.7,750.6,489.2,749.9,489.2z"/>
</svg>
