<svg height="472pt" viewBox="-12 0 472 472.00083" width="472pt" xmlns="http://www.w3.org/2000/svg"><path d="m7.683594 401h145.765625l-15.515625 55h-27.464844c-4.417969 0-8 3.582031-8 8s3.582031 8 8 8h227.066406c4.417969 0 8-3.582031 8-8s-3.582031-8-8-8h-27.46875l-15.515625-55h145.765625c4.417969 0 7.683594-3.945312 7.683594-8.363281v-304.191407c0-4.417968-3.265625-8.445312-7.683594-8.445312h-125.046875l17.097657-70.300781c.578124-2.355469.03125-4.84375-1.484376-6.738281-1.527343-1.902344-3.847656-2.9960942-6.289062-2.960938h-100.375c-2.4375.0078125-4.738281 1.125-6.253906 3.03125-1.515625 1.820312-2.085938 4.25-1.542969 6.554688l16.117187 70.414062h-41.726562l-29.125-63.667969c-1.347656-2.789062-4.167969-4.566406-7.261719-4.578125-3.097656-.011718-5.929687 1.742188-7.296875 4.519532l-29.128906 63.726562h-110.316406c-4.417969 0-7.683594 4.027344-7.683594 8.445312v304.191407c0 4.417969 3.265625 8.363281 7.683594 8.363281zm285.765625 55h-138.902344l15.515625-55h107.867188zm138.550781-141h-126.183594l6.121094-219h120.0625zm-301-219h46v219h-46zm62 0h42.667969l6.121093 219h-48.789062zm58.800781 5h44.011719l-1.691406 60h-40.632813zm6 214-3.855469-138h39.726563l-3.859375 138zm56.621094-299-16.679687 69h-1.132813l4.765625-33.433594c.640625-4.371094-2.382812-8.441406-6.757812-9.082031-4.371094-.644531-8.441407 2.378906-9.082032 6.753906l-4.535156 31.707031v-30.945312c0-4.417969-3.582031-8-8-8s-8 3.582031-8 8v23.957031l-3.535156-24.742187c-.625-4.375-4.675782-7.414063-9.050782-6.789063-4.386718.667969-7.414062 4.75-6.789062 9.140625l4.765625 33.433594h-.441406l-15.699219-69zm-160.015625 23.285156 18.5625 40.714844h-37.121094zm-138.40625 56.714844h99v219h-99zm416 235v54h-416v-54zm0 0"/></svg>