<?xml version="1.0" encoding="utf-8"?>
<!-- Generator: Adobe Illustrator 25.2.0, SVG Export Plug-In . SVG Version: 6.00 Build 0)  -->
<svg version="1.1" id="Layer_1" xmlns="http://www.w3.org/2000/svg" xmlns:xlink="http://www.w3.org/1999/xlink" x="0px" y="0px"
	 viewBox="0 0 351.43 66.73" style="enable-background:new 0 0 351.43 66.73;" xml:space="preserve">
<style type="text/css">
	.st0{fill:#0F1723;}
	.st1{fill:#FFCB0E;}
	.st2{fill:#F38820;}
	.st3{fill:#ED6825;}
	.st4{fill:#F7A51E;}
	.st5{fill:#EC4624;}
	.st6{fill:#F4BE18;}
	.st7{fill:#253D83;}
	.st8{fill:#1860AB;}
	.st9{fill:#0F8ACB;}
	.st10{fill:#204381;}
	.st11{fill:#1765AF;}
	.st12{fill:#169AD7;}
	.st13{fill:#077A3E;}
	.st14{fill:#00A34D;}
	.st15{fill:#7FC343;}
	.st16{fill:#088C45;}
	.st17{fill:#36AC4A;}
	.st18{fill:#D4DC27;}
	.st19{fill:#A61E23;}
	.st20{fill:#951D1F;}
	.st21{fill:#8B182A;}
	.st22{fill:#ED2F2B;}
	.st23{fill:#DD2427;}
	.st24{fill:#D32328;}
</style>
<g id="XMLID_2_">
	<g id="XMLID_55_">
		<path class="st0" d="M28.39,49.88L7.91,33.44l0.02,16.35H0V17.23l20.5,15.31V17.68l7.89,0.05V49.88z"/>
		<path class="st0" d="M56.45,49.85H36.02V17.68h20.43v6.83H43.91v5.58h6.37l1.84,6.78h-8.21v6.21h12.54V49.85z"/>
		<path class="st0" d="M80.41,26.18c-0.94-0.89-1.76-1.52-2.47-1.88c-0.76-0.39-1.63-0.59-2.63-0.59c-0.74,0-1.44,0.23-2.09,0.7
			c-0.68,0.47-1.02,1.09-1.02,1.86c0,1.09,0.74,1.95,2.22,2.58c1.51,0.65,3.06,1.28,4.65,1.88c1.6,0.64,2.99,1.64,4.17,3.02
			c1.16,1.39,1.75,3.43,1.75,6.12c0,3.45-1.04,6.09-3.11,7.94c-2.06,1.86-4.68,2.79-7.87,2.79c-1.84,0-3.63-0.32-5.35-0.95
			c-1.74-0.63-3.27-1.59-4.58-2.86l4.26-6.08c1.36,1.72,3.15,2.58,5.37,2.58c0.89,0,1.75-0.25,2.56-0.75c0.8-0.48,1.2-1.19,1.2-2.13
			c0-1.1-0.75-1.98-2.24-2.63c-0.67-0.29-1.44-0.61-2.31-0.97l-1.18-0.48l-1.2-0.5c-1.62-0.67-3-1.67-4.15-3.02
			c-1.15-1.33-1.72-3.32-1.72-5.96c0-2.03,0.5-3.79,1.5-5.31c0.97-1.5,2.26-2.65,3.88-3.45c1.57-0.79,3.26-1.18,5.06-1.18
			c1.66,0,3.29,0.32,4.9,0.95c1.63,0.67,3.06,1.59,4.29,2.77L80.41,26.18z"/>
		<path class="st0" d="M99.27,25h-6.19l-1.97-7.32h21.79l1.9,7.32h-7.64v24.85h-7.89V25z"/>
		<path class="st0" d="M146.2,19.18c2.62,1.51,4.68,3.55,6.19,6.12c1.53,2.6,2.29,5.43,2.29,8.48c0,3.07-0.76,5.89-2.29,8.46
			c-1.51,2.58-3.57,4.63-6.19,6.12c-2.6,1.5-5.43,2.25-8.5,2.25c-3.05,0-5.89-0.75-8.5-2.25c-2.63-1.51-4.7-3.55-6.21-6.12
			c-1.53-2.57-2.29-5.39-2.29-8.46c0-3.05,0.76-5.88,2.29-8.48c1.51-2.55,3.58-4.6,6.21-6.12c2.62-1.5,5.45-2.25,8.5-2.25
			C140.77,16.93,143.6,17.68,146.2,19.18z M133.14,25.61c-1.41,0.88-2.52,2.06-3.33,3.54c-0.82,1.47-1.22,3.01-1.22,4.63
			s0.42,3.16,1.25,4.62c0.83,1.5,1.94,2.68,3.31,3.56c1.39,0.89,2.91,1.34,4.56,1.34c1.63,0,3.14-0.45,4.54-1.34
			c1.38-0.88,2.49-2.06,3.33-3.56c0.82-1.48,1.22-3.02,1.22-4.62c0-1.62-0.41-3.16-1.22-4.63c-0.82-1.47-1.92-2.65-3.31-3.54
			c-1.42-0.89-2.94-1.34-4.56-1.34C136.05,24.28,134.53,24.72,133.14,25.61z"/>
		<path class="st0" d="M162.32,49.79V17.68h8.96c2.54,0,4.78,0.33,6.73,1c1.92,0.65,3.42,1.72,4.51,3.2
			c1.07,1.48,1.61,3.39,1.61,5.74c0,1.72-0.47,3.37-1.41,4.94c-0.92,1.56-2.17,2.63-3.74,3.22l7.98,14.06h-9.23l-7.44-14.42h-0.09
			v14.38H162.32z M170.21,33.51c1.33,0,2.43-0.16,3.31-0.48c0.85-0.29,1.52-0.79,2.02-1.52c0.47-0.7,0.7-1.59,0.7-2.7
			c0-1.66-0.5-2.8-1.5-3.4c-1.01-0.6-2.52-0.91-4.54-0.91V33.51z"/>
		<path class="st0" d="M224.58,17.27v32.61l-8.53-0.02V34.66l-6.76,6.46l-6.28-6.21l-0.02,14.96h-8.39V17.27l14.69,12.56
			L224.58,17.27z"/>
		<path class="st0" d="M232.21,17.7h7.89v32.15l-7.89-0.02V17.7z"/>
		<path class="st0" d="M322.93,49.83V17.66h11.5c2.36,0,4.56,0.41,6.62,1.22c2.03,0.8,3.83,1.93,5.42,3.38
			c1.53,1.42,2.74,3.14,3.65,5.15c0.88,1.98,1.32,4.1,1.32,6.35c0,2.25-0.44,4.35-1.32,6.3c-0.91,2.01-2.12,3.73-3.65,5.15
			c-1.56,1.45-3.37,2.58-5.44,3.4c-2.06,0.82-4.25,1.22-6.6,1.22H322.93z M331.14,24.5v18.55h2.56c1.3,0,2.54-0.25,3.72-0.75
			c1.16-0.5,2.18-1.19,3.06-2.06c0.89-0.89,1.57-1.89,2.04-2.99c0.47-1.09,0.7-2.25,0.7-3.49c0-1.18-0.24-2.36-0.73-3.54
			c-0.5-1.13-1.16-2.12-2-2.95c-0.82-0.82-1.84-1.49-3.06-2.02c-1.19-0.5-2.44-0.75-3.74-0.75H331.14z"/>
	</g>
	<g id="XMLID_12_">
		<g id="XMLID_54_">
			<polygon class="st1" points="302.36,46.04 302.36,20.95 314.94,33.5 			"/>
		</g>
		<g id="XMLID_53_">
			<polygon class="st2" points="302.36,46.04 309.67,28.24 302.36,20.95 			"/>
		</g>
		<g id="XMLID_52_">
			<polygon class="st3" points="302.36,46.04 302.36,20.95 308.65,39.77 			"/>
		</g>
		<g id="XMLID_51_">
			<polygon class="st4" points="302.36,46.04 302.36,33.5 308.65,39.77 			"/>
		</g>
		<g id="XMLID_50_">
			<polygon class="st5" points="302.36,46.04 306.02,37.14 302.36,33.5 			"/>
		</g>
		<g id="XMLID_49_">
			<polygon class="st6" points="308.65,39.77 306.02,37.14 306.98,34.78 			"/>
		</g>
		<g id="XMLID_48_">
			<polygon class="st7" points="292.23,39.77 270.59,11.42 278.43,11.42 			"/>
		</g>
		<g id="XMLID_47_">
			<polygon class="st8" points="278.43,11.42 292.23,39.77 284.69,11.42 			"/>
		</g>
		<g id="XMLID_46_">
			<polygon class="st9" points="284.69,11.42 292.23,39.77 292.23,10.62 			"/>
		</g>
		<g id="XMLID_45_">
			<polygon class="st10" points="270.59,11.42 276.05,5.96 278.43,11.42 			"/>
		</g>
		<g id="XMLID_44_">
			<polygon class="st11" points="278.43,11.42 284.69,11.42 281.56,0 276.05,5.96 			"/>
		</g>
		<g id="XMLID_43_">
			<polygon class="st12" points="281.56,0 284.69,11.42 292.23,10.62 			"/>
		</g>
		<g id="XMLID_42_">
			<polygon class="st13" points="271.08,56.3 271.08,27.21 279.03,56.3 			"/>
		</g>
		<g id="XMLID_41_">
			<polygon class="st14" points="271.08,27.21 279.03,56.3 284.69,56.3 			"/>
		</g>
		<g id="XMLID_40_">
			<polygon class="st15" points="271.08,27.21 284.69,56.3 292.73,55.71 			"/>
		</g>
		<g id="XMLID_39_">
			<polygon class="st16" points="271.08,56.3 281.56,66.73 279.03,56.3 			"/>
		</g>
		<g id="XMLID_38_">
			<polygon class="st17" points="279.03,56.3 281.56,66.73 287.37,61.07 284.69,56.3 			"/>
		</g>
		<g id="XMLID_37_">
			<polygon class="st18" points="284.69,56.3 292.73,55.71 287.37,61.07 			"/>
		</g>
		<g id="XMLID_36_">
			<polygon class="st19" points="260.92,46.04 253.97,38.96 256.55,32.74 			"/>
		</g>
		<g id="XMLID_35_">
			<polygon class="st20" points="256.55,32.74 257.45,29.96 260.92,33.5 260.92,46.04 			"/>
		</g>
		<g id="XMLID_34_">
			<polygon class="st21" points="260.92,33.5 260.92,20.95 257.45,29.96 			"/>
		</g>
		<g id="XMLID_32_">
			<polygon class="st22" points="253.97,38.96 248.41,33.5 254.77,27.22 256.55,32.74 			"/>
		</g>
		<g id="XMLID_30_">
			<polygon class="st23" points="256.55,32.74 257.45,29.96 254.77,27.22 			"/>
		</g>
		<g id="XMLID_15_">
			<polygon class="st24" points="257.45,29.96 260.92,20.95 254.77,27.22 			"/>
		</g>
	</g>
</g>
</svg>
