<svg id="Layer_1" enable-background="new 0 0 511.972 511.972" height="512" viewBox="0 0 511.972 511.972" width="512" xmlns="http://www.w3.org/2000/svg"><g><path d="m410.429 47.837h-77.118v-7.374c0-9.915-5.371-19.104-14.018-23.983-38.962-21.982-87.724-21.972-127.253.025-8.725 4.854-14.145 14.07-14.145 24.054v7.278h-77.119c-15.463 0-28.043 12.58-28.043 28.043v49.426c0 4.143 3.358 7.5 7.5 7.5s7.5-3.357 7.5-7.5v-49.426c0-7.192 5.851-13.043 13.043-13.043h10.843v190.359c-7.831-1.233-15.996-1.494-23.886-.777v-85.715c0-4.143-3.358-7.5-7.5-7.5s-7.5 3.357-7.5 7.5v88.285c-96.72 25.603-96.655 162.45 0 188.016v40.925c0 15.463 12.58 28.043 28.043 28.043h309.653c15.463 0 28.043-12.58 28.043-28.043v-408.05c0-15.463-12.58-28.043-28.043-28.043zm-217.534-7.279c0-4.543 2.467-8.737 6.438-10.946 34.802-19.373 77.945-19.604 112.59-.068 3.94 2.223 6.388 6.407 6.388 10.919v20.727c0 6.899-5.613 12.512-12.512 12.512h-100.392c-6.899 0-12.512-5.612-12.512-12.512zm-66.275 22.279h51.325c.855 14.406 12.845 25.865 27.463 25.865h100.392c14.618 0 26.608-11.459 27.463-25.865h51.324v394.643h-257.967v-16.302c23.563-7.738 43.169-24.312 54.896-45.793h96.134c9.697 0 9.697-15 0-15h-89.528c6.461-18.336 6.908-40.54 1.148-59.199h88.38c9.697 0 9.697-15 0-15h-94.276c-11.447-23.216-31.899-41.21-56.755-49.372v-193.977zm-111.865 286.159c0-45.201 36.689-81.976 81.786-81.976 108.499 4.501 108.467 159.468-.001 163.952-45.096 0-81.785-36.774-81.785-81.976zm408.717 134.933c0 7.192-5.851 13.043-13.043 13.043h-309.652c-7.192 0-13.043-5.851-13.043-13.043v-38.355c7.891.716 16.056.455 23.886-.777v20.184c0 4.143 3.358 7.5 7.5 7.5h272.966c4.142 0 7.5-3.357 7.5-7.5v-402.144h10.843c7.192 0 13.043 5.852 13.043 13.043z"/><path d="m230.008 54.837h51.189c9.931-.344 9.923-14.66 0-15h-51.189c-9.93.344-9.923 14.659 0 15z"/><path d="m160.281 172.787h117.369c9.697 0 9.697-15 0-15h-117.369c-9.697 0-9.697 15 0 15z"/><path d="m333.528 190.152c13.728 0 24.896-11.154 24.896-24.865-1.368-32.988-48.43-32.979-49.792 0 0 13.711 11.169 24.865 24.896 24.865zm0-34.731c5.457 0 9.896 4.426 9.896 9.866-.543 13.087-19.251 13.084-19.792 0 0-5.441 4.44-9.866 9.896-9.866z"/><path d="m285.151 239.486c0-4.143-3.358-7.5-7.5-7.5h-117.37c-9.697 0-9.697 15 0 15h117.369c4.143 0 7.501-3.357 7.501-7.5z"/><path d="m333.528 264.352c13.728 0 24.896-11.155 24.896-24.866-1.367-32.987-48.43-32.977-49.792 0 0 13.711 11.169 24.866 24.896 24.866zm0-34.731c5.457 0 9.896 4.426 9.896 9.865-.543 13.089-19.251 13.085-19.792 0 0-5.439 4.44-9.865 9.896-9.865z"/><path d="m333.528 338.552c13.728 0 24.896-11.154 24.896-24.865-1.368-32.988-48.43-32.979-49.792 0 0 13.71 11.169 24.865 24.896 24.865zm0-34.732c5.457 0 9.896 4.426 9.896 9.866-.543 13.087-19.251 13.084-19.792 0 0-5.44 4.44-9.866 9.896-9.866z"/><path d="m333.528 412.752c13.728 0 24.896-11.155 24.896-24.866-1.368-32.988-48.43-32.979-49.792 0 0 13.71 11.169 24.866 24.896 24.866zm0-34.733c5.457 0 9.896 4.426 9.896 9.866-.543 13.089-19.251 13.085-19.792 0 0-5.44 4.44-9.866 9.896-9.866z"/><path d="m483.279 98.838c-15.701 0-28.475 12.774-28.475 28.476v216.338c0 9.697 15 9.697 15 0v-169.448h26.951v250.4h-26.951v-40.988c0-9.697-15-9.697-15 0v48.488c0 1.003.214 2.042.603 2.951l20.914 51.989c2.471 6.144 11.445 6.144 13.916 0l20.914-51.989c.35-.817.603-2.03.603-2.951v-304.791c.001-15.701-12.773-28.475-28.475-28.475zm0 15c7.43 0 13.475 6.045 13.475 13.476v31.89h-26.951v-31.89c.001-7.431 6.046-13.476 13.476-13.476zm0 350.312-9.875-24.546h19.749z"/><path d="m58.663 336.625c.346-9.749 14.324-9.742 14.667 0 0 9.697 15 9.697 15 0 0-12.332-10.019-22.364-22.333-22.364s-22.333 10.032-22.333 22.364c-.001 9.697 14.999 9.697 14.999 0z"/><path d="m110.994 344.125c4.142 0 7.5-3.357 7.5-7.5 0-4.061 3.29-7.364 7.333-7.364s7.333 3.304 7.333 7.364c0 9.697 15 9.697 15 0 0-12.332-10.019-22.364-22.333-22.364-12.315 0-22.333 10.032-22.333 22.364 0 4.142 3.358 7.5 7.5 7.5z"/><path d="m134.722 383.009c6.85-6.864-3.768-17.46-10.618-10.596-14.53 15.171-40.597 15.17-55.127 0-6.85-6.863-17.468 3.732-10.618 10.596 20.115 21.004 56.248 21.004 76.363 0z"/></g></svg>