<?xml version="1.0" encoding="UTF-8"?>
<svg xmlns="http://www.w3.org/2000/svg" xmlns:xlink="http://www.w3.org/1999/xlink" width="124.756" height="20.482" viewBox="0 0 124.756 20.482">
  <defs>
    <clipPath id="clip-path">
      <rect id="Rectangle_69560" data-name="Rectangle 69560" width="11" height="20" transform="translate(-0.465 -0.442)" fill="#fff"/>
    </clipPath>
    <clipPath id="clip-path-2">
      <rect id="Rectangle_69559" data-name="Rectangle 69559" width="11" height="20" transform="translate(0.393 -0.442)" fill="#fff"/>
    </clipPath>
  </defs>
  <g id="Group_390464" data-name="Group 390464" transform="translate(-2262.244 -6314.736)">
    <g id="Group_342447" data-name="Group 342447" transform="translate(2262.244 6314.959)">
      <path id="Icon_ionic-ios-star" data-name="Icon ionic-ios-star" d="M23.24,10.388H16.076L13.9,3.891a.789.789,0,0,0-1.48,0l-2.177,6.5H3.029a.781.781,0,0,0-.779.779.573.573,0,0,0,.015.131.749.749,0,0,0,.326.55L8.479,16l-2.26,6.57a.781.781,0,0,0,.268.877.754.754,0,0,0,.438.19.955.955,0,0,0,.487-.175l5.747-4.1,5.747,4.1a.913.913,0,0,0,.487.175.7.7,0,0,0,.433-.19.772.772,0,0,0,.268-.877L17.834,16l5.839-4.188.141-.122a.817.817,0,0,0,.253-.521A.825.825,0,0,0,23.24,10.388Z" transform="translate(-2.25 -3.375)" fill="#fcaa00"/>
      <path id="Icon_ionic-ios-star-2" data-name="Icon ionic-ios-star" d="M23.24,10.388H16.076L13.9,3.891a.789.789,0,0,0-1.48,0l-2.177,6.5H3.029a.781.781,0,0,0-.779.779.573.573,0,0,0,.015.131.749.749,0,0,0,.326.55L8.479,16l-2.26,6.57a.781.781,0,0,0,.268.877.754.754,0,0,0,.438.19.955.955,0,0,0,.487-.175l5.747-4.1,5.747,4.1a.913.913,0,0,0,.487.175.7.7,0,0,0,.433-.19.772.772,0,0,0,.268-.877L17.834,16l5.839-4.188.141-.122a.817.817,0,0,0,.253-.521A.825.825,0,0,0,23.24,10.388Z" transform="translate(23.377 -3.375)" fill="#fcaa00"/>
      <path id="Icon_ionic-ios-star-3" data-name="Icon ionic-ios-star" d="M23.24,10.388H16.076L13.9,3.891a.789.789,0,0,0-1.48,0l-2.177,6.5H3.029a.781.781,0,0,0-.779.779.573.573,0,0,0,.015.131.749.749,0,0,0,.326.55L8.479,16l-2.26,6.57a.781.781,0,0,0,.268.877.754.754,0,0,0,.438.19.955.955,0,0,0,.487-.175l5.747-4.1,5.747,4.1a.913.913,0,0,0,.487.175.7.7,0,0,0,.433-.19.772.772,0,0,0,.268-.877L17.834,16l5.839-4.188.141-.122a.817.817,0,0,0,.253-.521A.825.825,0,0,0,23.24,10.388Z" transform="translate(49.005 -3.375)" fill="#fcaa00"/>
      <path id="Icon_ionic-ios-star-4" data-name="Icon ionic-ios-star" d="M23.24,10.388H16.076L13.9,3.891a.789.789,0,0,0-1.48,0l-2.177,6.5H3.029a.781.781,0,0,0-.779.779.573.573,0,0,0,.015.131.749.749,0,0,0,.326.55L8.479,16l-2.26,6.57a.781.781,0,0,0,.268.877.754.754,0,0,0,.438.19.955.955,0,0,0,.487-.175l5.747-4.1,5.747,4.1a.913.913,0,0,0,.487.175.7.7,0,0,0,.433-.19.772.772,0,0,0,.268-.877L17.834,16l5.839-4.188.141-.122a.817.817,0,0,0,.253-.521A.825.825,0,0,0,23.24,10.388Z" transform="translate(74.632 -3.375)" fill="#fcaa00"/>
      <g id="Group_342446" data-name="Group 342446" transform="translate(102.363 0.219)">
        <g id="Mask_Group_26" data-name="Mask Group 26" transform="translate(11.858 0)" clip-path="url(#clip-path)">
          <g id="Icon_ionic-ios-star-5" data-name="Icon ionic-ios-star" transform="translate(-13.962 -3.753)" fill="none">
            <path d="M3.078,10.388h7.164l2.177-6.5a.789.789,0,0,1,1.48,0l2.177,6.5h7.213a.782.782,0,0,1,.779.779.573.573,0,0,1-.015.131.749.749,0,0,1-.326.55L17.839,16l2.26,6.57a.781.781,0,0,1-.268.877.754.754,0,0,1-.438.19.955.955,0,0,1-.487-.175l-5.747-4.1-5.747,4.1a.913.913,0,0,1-.487.175.7.7,0,0,1-.433-.19.772.772,0,0,1-.268-.877L8.484,16,2.644,11.81,2.5,11.688a.817.817,0,0,1-.253-.521A.825.825,0,0,1,3.078,10.388Z" stroke="none"/>
            <path d="M 13.1589469909668 4.829486846923828 L 10.96133804321289 11.38790035247803 L 3.77180290222168 11.38790035247803 L 9.671438217163086 15.61951065063477 L 7.392446517944336 22.24529647827148 L 13.15894794464111 18.13544082641602 L 18.93188858032227 22.24988555908203 L 16.64920806884766 15.61336040496826 L 22.64520072937012 11.38790035247803 L 15.35655784606934 11.38790035247803 L 13.1589469909668 4.829486846923828 M 13.15894794464111 3.375 C 13.4949779510498 3.375 13.79205799102783 3.574670791625977 13.89919757843018 3.891231536865234 L 16.07611846923828 10.38790130615234 L 23.28868865966797 10.38790130615234 C 23.71724700927734 10.38790130615234 24.06789779663086 10.73854064941406 24.06789779663086 11.16711044311523 C 24.06789779663086 11.21094036102295 24.06301879882812 11.25964069366455 24.05327796936035 11.2986011505127 C 24.04354858398438 11.46905040740967 23.96562767028809 11.65898036956787 23.72698783874512 11.84892082214355 L 17.83907699584961 15.99821090698242 L 20.09878730773926 22.56793022155762 C 20.2107982635498 22.88449096679688 20.09878730773926 23.2400016784668 19.8309383392334 23.44455146789551 C 19.689697265625 23.54682159423828 19.55821800231934 23.63448143005371 19.39262771606445 23.63448143005371 C 19.23191833496094 23.63448143005371 19.04198837280273 23.55169105529785 18.9056282043457 23.45915985107422 L 13.15894794464111 19.36343002319336 L 7.412267684936523 23.45915985107422 C 7.275907516479492 23.55656051635742 7.085977554321289 23.63448143005371 6.925268173217773 23.63448143005371 C 6.759677886962891 23.63448143005371 6.62818717956543 23.55169105529785 6.491827011108398 23.44455146789551 C 6.219108581542969 23.2400016784668 6.111967086791992 22.88936042785645 6.223978042602539 22.56793022155762 L 8.483678817749023 15.99821090698242 L 2.644477844238281 11.80995082855225 L 2.503238677978516 11.68820095062256 C 2.376617431640625 11.55184078216553 2.249998092651367 11.36678028106689 2.249998092651367 11.16711044311523 C 2.249998092651367 10.73854064941406 2.649337768554688 10.38790130615234 3.077907562255859 10.38790130615234 L 10.24177742004395 10.38790130615234 L 12.41869831085205 3.891231536865234 C 12.52583789825439 3.574670791625977 12.82291793823242 3.375 13.15894794464111 3.375 Z" stroke="none" fill="#d2d2d2"/>
          </g>
        </g>
        <g id="Mask_Group_25" data-name="Mask Group 25" transform="translate(0 0)" clip-path="url(#clip-path-2)">
          <path id="Icon_ionic-ios-star-6" data-name="Icon ionic-ios-star" d="M23.24,10.388H16.076L13.9,3.891a.789.789,0,0,0-1.48,0l-2.177,6.5H3.029a.781.781,0,0,0-.779.779.573.573,0,0,0,.015.131.749.749,0,0,0,.326.55L8.479,16l-2.26,6.57a.781.781,0,0,0,.268.877.754.754,0,0,0,.438.19.955.955,0,0,0,.487-.175l5.747-4.1,5.747,4.1a.913.913,0,0,0,.487.175.7.7,0,0,0,.433-.19.772.772,0,0,0,.268-.877L17.834,16l5.839-4.188.141-.122a.817.817,0,0,0,.253-.521A.825.825,0,0,0,23.24,10.388Z" transform="translate(-2.104 -3.753)" fill="#fcaa00"/>
        </g>
      </g>
    </g>
  </g>
</svg>
