<svg height="512pt" viewBox="0 0 512 512.0055" width="512pt" xmlns="http://www.w3.org/2000/svg"><path d="m256.003906 170.671875c4.710938 0 8.53125 3.820313 8.53125 8.535156 0 4.710938 3.820313 8.53125 8.535156 8.53125 4.710938 0 8.53125-3.820312 8.53125-8.53125 0-14.140625-11.460937-25.601562-25.597656-25.601562-13.988281.355469-25.246094 11.609375-25.601562 25.601562 0 13.804688 12.59375 20.09375 21.785156 24.703125 7.230469 3.609375 12.347656 6.40625 12.347656 9.429688-.285156 4.585937-3.945312 8.246094-8.53125 8.53125-4.714844 0-8.535156-3.820313-8.535156-8.53125 0-4.714844-3.820312-8.535156-8.53125-8.535156-4.714844 0-8.535156 3.820312-8.535156 8.535156 0 14.136718 11.460937 25.597656 25.601562 25.597656 13.988282-.351562 25.246094-11.609375 25.597656-25.597656 0-13.808594-12.59375-20.097656-21.785156-24.703125-7.226562-3.613281-12.347656-6.410157-12.347656-9.429688.289062-4.589843 3.945312-8.246093 8.535156-8.535156zm0 0"/><path d="m273.070312 273.070312c4.710938 0 8.53125-3.820312 8.53125-8.53125 0-4.714843-3.820312-8.535156-8.53125-8.535156h-25.601562c-9.425781 0-17.066406 7.644532-17.066406 17.066406v51.203126c0 9.425781 7.640625 17.066406 17.066406 17.066406h25.601562c4.710938 0 8.53125-3.820313 8.53125-8.535156 0-4.710938-3.820312-8.53125-8.53125-8.53125h-25.601562v-17.066407h25.601562c4.710938 0 8.53125-3.820312 8.53125-8.535156 0-4.710937-3.820312-8.53125-8.53125-8.53125h-25.601562v-17.070313zm0 0"/><path d="m256.003906 358.40625c-14.140625 0-25.601562 11.460938-25.601562 25.597656v34.136719c0 14.136719 11.460937 25.597656 25.601562 25.597656 14.136719 0 25.597656-11.460937 25.597656-25.597656v-34.136719c0-14.136718-11.460937-25.597656-25.597656-25.597656zm8.53125 59.734375c0 4.710937-3.820312 8.53125-8.53125 8.53125-4.714844 0-8.535156-3.820313-8.535156-8.53125v-34.136719c0-4.710937 3.820312-8.53125 8.535156-8.53125 4.710938 0 8.53125 3.820313 8.53125 8.53125zm0 0"/><path d="m486.402344 460.804688h-8.53125v-230.398438c0-14.140625-11.464844-25.601562-25.601563-25.601562h-85.332031c-14.140625 0-25.601562 11.460937-25.601562 25.601562v230.398438h-17.066407v-315.734376c0-14.136718-11.460937-25.597656-25.601562-25.597656h-11.792969l-18.140625-36.292968c11.839844-3.6875 21.492187-12.339844 26.453125-23.707032 15.695312-.101562 30.574219-7.007812 40.78125-18.933594 5.855469-7.027343 7.039062-16.835937 3.019531-25.054687-4.972656-9.683594-15.027343-15.691406-25.914062-15.48046875h-114.132813c-10.890625-.21093725-20.949218 5.79296875-25.925781 15.48046875-4.015625 8.21875-2.835937 18.027344 3.019531 25.054687 10.207032 11.921876 25.082032 18.832032 40.773438 18.933594 4.960937 11.367188 14.613281 20.019532 26.453125 23.707032l-18.132813 36.292968h-11.792968c-14.136719 0-25.601563 11.460938-25.601563 25.597656v315.734376h-17.066406v-145.066407c0-14.136719-11.460938-25.597656-25.597657-25.597656h-85.335937c-14.136719 0-25.597656 11.460937-25.597656 25.597656v145.066407h-8.535157c-14.136718 0-25.59765575 11.460937-25.59765575 25.601562 0 14.136719 11.46093775 25.597656 25.59765575 25.597656h460.800782c14.140625 0 25.601562-11.460937 25.601562-25.597656 0-14.140625-11.460937-25.601562-25.601562-25.601562zm-128-230.398438c0-4.714844 3.820312-8.535156 8.535156-8.535156h85.332031c4.710938 0 8.535157 3.820312 8.535157 8.535156v230.398438h-102.402344zm-34.808594-207.546875c1.183594 2.289063.816406 5.074219-.921875 6.980469-6.09375 7.046875-14.714844 11.414062-24.003906 12.167968v-24.9375h14.40625c4.324219-.238281 8.40625 2.007813 10.519531 5.789063zm-135.183594 0c2.117188-3.785156 6.203125-6.027344 10.53125-5.789063h14.394532v24.9375c-9.28125-.742187-17.898438-5.097656-23.996094-12.136718-1.753906-1.90625-2.128906-4.710938-.929688-7.011719zm41.992188 19.8125v-25.601563h51.199218v25.601563c0 14.140625-11.460937 25.601563-25.597656 25.601563-14.140625 0-25.601562-11.460938-25.601562-25.601563zm25.601562 53.214844 11.792969 23.585937h-23.585937zm-51.199218 49.183593c0-4.710937 3.820312-8.53125 8.53125-8.53125h85.332031c4.714843 0 8.535156 3.820313 8.535156 8.53125v315.734376h-102.398437zm-153.601563 170.667969c0-4.710937 3.820313-8.53125 8.53125-8.53125h85.335937c4.710938 0 8.53125 3.820313 8.53125 8.53125v145.066407h-102.398437zm435.199219 179.199219h-460.800782c-4.710937 0-8.53125-3.820312-8.53125-8.53125 0-4.714844 3.820313-8.535156 8.53125-8.535156h460.800782c4.714844 0 8.535156 3.820312 8.535156 8.535156 0 4.710938-3.820312 8.53125-8.535156 8.53125zm0 0"/><path d="m418.136719 29.136719 2.5 2.5c3.347656 3.234375 8.671875 3.191406 11.960937-.101563 3.292969-3.292968 3.339844-8.613281.105469-11.960937l-17.066406-17.070313c-.796875-.792968-1.742188-1.425781-2.78125-1.851562-2.089844-.859375-4.433594-.859375-6.519531 0-1.042969.425781-1.988282 1.058594-2.785157 1.851562l-17.066406 17.070313c-3.230469 3.347656-3.1875 8.667969.105469 11.960937 3.292968 3.292969 8.613281 3.335938 11.960937.101563l2.519531-2.5v39.136719c0 4.710937 3.820313 8.53125 8.53125 8.53125 4.714844 0 8.535157-3.820313 8.535157-8.53125zm0 0"/><path d="m409.601562 93.871094c-4.710937 0-8.53125 3.820312-8.53125 8.535156v17.066406c0 4.710938 3.820313 8.53125 8.53125 8.53125 4.714844 0 8.535157-3.820312 8.535157-8.53125v-17.066406c0-4.714844-3.820313-8.535156-8.535157-8.535156zm0 0"/><path d="m105.664062 145.730469c-2.089843-.863281-4.433593-.863281-6.519531 0-1.042969.425781-1.988281 1.054687-2.785156 1.851562l-17.066406 17.066407c-3.230469 3.347656-3.1875 8.667968.105469 11.960937 3.292968 3.292969 8.613281 3.339844 11.960937.105469l2.511719-2.511719v13.535156c0 4.714844 3.820312 8.535157 8.53125 8.535157 4.714844 0 8.535156-3.820313 8.535156-8.535157v-13.535156l2.5 2.503906c3.347656 3.230469 8.667969 3.1875 11.960938-.105469 3.292968-3.292968 3.339843-8.613281.105468-11.960937l-17.066406-17.066406c-.792969-.792969-1.738281-1.421875-2.773438-1.84375zm0 0"/><path d="m102.402344 213.339844c-4.710938 0-8.53125 3.820312-8.53125 8.53125v42.667968c0 4.710938 3.820312 8.53125 8.53125 8.53125 4.714844 0 8.535156-3.820312 8.535156-8.53125v-42.667968c0-4.710938-3.820312-8.53125-8.535156-8.53125zm0 0"/></svg>