<?xml version="1.0" encoding="utf-8"?>
<!-- Generator: Adobe Illustrator 25.4.1, SVG Export Plug-In . SVG Version: 6.00 Build 0)  -->
<svg version="1.1" id="Layer_1" xmlns="http://www.w3.org/2000/svg" xmlns:xlink="http://www.w3.org/1999/xlink" x="0px" y="0px"
	 viewBox="0 0 747.8 668.8" style="enable-background:new 0 0 747.8 668.8;" xml:space="preserve">
<style type="text/css">
	.st0{fill:#2F2E41;}
	.st1{fill:#84CB2F;}
	.st2{fill:#D0CDE1;}
	.st3{fill:#3F3D56;}
	.st4{opacity:0.6;fill:#BFFF64;}
	.st5{opacity:0.1;enable-background:new    ;}
	.st6{fill:#FFB8B8;}
	.st7{opacity:0.2;enable-background:new    ;}
	.st8{fill:#F2F2F2;}
	.st9{fill:#FFFFFF;}
</style>
<path class="st0" d="M700,130.3c26.7,39,20.8,89.5,20.8,89.5s-49.2-12.7-76-51.7c-26.7-39-20.8-89.5-20.8-89.5S673.3,91.3,700,130.3
	z"/>
<path class="st1" d="M680.8,137.7c3.1,47.2,39,83.2,39,83.2s30.8-40.4,27.7-87.6c-3.1-47.2-39-83.2-39-83.2S677.7,90.6,680.8,137.7z
	"/>
<path class="st2" d="M374,1l362.8,182.4c6.2,3.1,9.9,9.6,9.4,16.5l-21.1,312.2c-0.3,4.7-4.4,8.2-9.1,7.9c-1.1-0.1-2.2-0.4-3.3-0.9
	l-371-189.4l19-321.1c0.3-5,4.6-8.9,9.6-8.6C371.7,0.1,372.9,0.4,374,1z"/>
<path class="st3" d="M378.2,7.3l353.9,177.9c6,3,9.6,9.4,9.2,16.1l-20.6,304.5c-0.3,4.6-4.3,8-8.8,7.7c-1.1-0.1-2.2-0.4-3.2-0.9
	L346.8,328l18.6-313.2c0.3-4.9,4.5-8.6,9.4-8.4C376,6.5,377.1,6.8,378.2,7.3z"/>
<path class="st4" d="M393.7,31l320.8,161.3c5.5,2.7,8.7,8.5,8.3,14.6l-18.6,276.1c-0.3,4.1-3.9,7.3-8,7c-1-0.1-2-0.3-2.9-0.8
	L365.2,321.6l16.8-283.9c0.3-4.4,4.1-7.8,8.5-7.6C391.7,30.2,392.7,30.5,393.7,31z"/>
<path class="st2" d="M62.7,483.3L426,666.3c6.9,3.4,14.9,3.4,21.8,0l268.7-136.4c3.2-3.2,2.7-7.8,1.7-11.3c-0.5-1.7-1.2-3.3-2-4.9
	l-36.6-19.3L371.7,340.7l-18.4-9.8c-9.9-5.2-21.7-5.3-31.6-0.1l-259,134.6c-4.9,2.6-6.9,8.6-4.3,13.6
	C59.3,480.8,60.8,482.4,62.7,483.3z"/>
<path class="st5" d="M62.7,483.3L426,666.3c6.9,3.4,14.9,3.4,21.8,0l268.7-136.4c3.2-3.2,2.7-7.8,1.7-11.3L450.3,657.8
	c-6.6,3.4-14.5,3.5-21.2,0.2L57.3,472.7C56.6,477.1,58.8,481.4,62.7,483.3z"/>
<path class="st5" d="M407.5,538.1l-117.6-59.4c-4.8-2.4-10.5-2.4-15.2,0.2l-68.2,36.5c-2.4,1.3-3.3,4.2-2,6.6
	c0.5,0.9,1.2,1.6,2.1,2.1l119.9,60.5c4,2,8.8,1.9,12.8-0.3l68.5-38.6c2-1.1,2.7-3.7,1.6-5.7C408.9,539.1,408.3,538.5,407.5,538.1z"
	/>
<path class="st5" d="M684.6,528.2L558,595.4c-3,1.6-6.5,1.6-9.5,0.1L190.8,414.7c-3-1.5-4.2-5.2-2.7-8.2c0.6-1.2,1.6-2.1,2.7-2.7
	l123.6-61.2c3.8-1.9,8.2-1.9,12,0l358,180.4c1.4,0.7,2,2.5,1.3,3.9C685.5,527.5,685.1,527.9,684.6,528.2z"/>
<rect x="539.8" y="157.5" transform="matrix(0.4472 -0.8944 0.8944 0.4472 99.7207 606.4537)" class="st1" width="1.4" height="130.1"/>
<rect x="539.8" y="174.9" transform="matrix(0.4554 -0.8903 0.8903 0.4554 80.4211 612.054)" class="st1" width="1.4" height="130.8"/>
<rect x="536.2" y="222.7" transform="matrix(0.455 -0.8905 0.8905 0.455 60.9588 619.9279)" class="st1" width="1.4" height="74.9"/>
<path class="st3" d="M139.5,313.5c0,0-28.4-12.4-41.7,0.7S133.5,323,139.5,313.5z"/>
<path class="st0" d="M90.5,254.9c9.5-16.1,28.4-16.9,28.4-16.9s18.4-2.4,30.2,22.2c11,22.9,26.2,45,2.4,50.3l-4.3-13.3l-2.7,14.3
	c-3.4,0.2-6.8,0.3-10.2,0.2c-25.4-0.8-49.6,0.2-48.8-8.9C86.7,290.7,81.3,270.4,90.5,254.9z"/>
<path class="st6" d="M77.2,547c0,0,12,22.4,19.8,22.4s6.9,14.6,5.2,18.1s-6,11.2,0.9,22.4c2.4,3.9,2,8.3,0.4,12.4
	c-4.4,11.5-21.6,8-21.1-4.3c0-0.1,0-0.3,0-0.4c0.9-13.8-6-35.3-12.9-40.4s-12.9-18.9-12.9-18.9L77.2,547z"/>
<path class="st6" d="M159.7,541.9c0,0-12,22.4-19.8,22.4s-6.9,14.6-5.2,18.1s6,11.2-0.9,22.4c-2.4,3.9-2,8.3-0.4,12.4
	c4.4,11.5,21.6,8,21.1-4.3c0-0.1,0-0.3,0-0.4c-0.9-13.8,6-35.3,12.9-40.4s12.9-18.9,12.9-18.9L159.7,541.9z"/>
<path class="st0" d="M150.3,431.8l5.2,11.2c0,0,75.7,24.9,68.8,54.2s-40.4,74.8-45.6,73.1s-32.7-6.9-33.5-21.5s19.8-40.4,19.8-40.4
	l-28.4-25.8l-41.3-0.9L60,508.3c0,0,37,32.7,20.6,45.6s-40.4,21.5-43.9,16.3s-42.1-81.7-36.1-88.6S67.7,449,67.7,449l16.3-23.2
	l63.6-3.4L150.3,431.8z"/>
<path class="st6" d="M134.8,289.9c0,0-4.3,28.4,4.3,31.8s-17.2,18.1-17.2,18.1h-14.6L97.8,320c0,0,8.6-15.5,3.4-30.1
	C96.1,275.3,134.8,289.9,134.8,289.9z"/>
<path class="st5" d="M134.8,289.9c0,0-4.3,28.4,4.3,31.8s-17.2,18.1-17.2,18.1h-14.6L97.8,320c0,0,8.6-15.5,3.4-30.1
	C96.1,275.3,134.8,289.9,134.8,289.9z"/>
<path class="st1" d="M140.8,314c0,0-9.5,10.3-11.2,12s-9.5,11.2-25.8-2.6c-16.3-13.8-18.1,2.6-18.1,2.6v103.2c0,0,13.8-6,24.9,0
	s34.4-1.7,34.4-1.7l4.3-106.6L140.8,314z"/>
<path class="st3" d="M134.5,314c0,0,8-3.4,14.9,0s31,20.6,29.2,28.4c-1.7,7.7-24.1,61.9-8.6,87.7s18.1,32.7,18.1,32.7L150.3,443
	c0,0-29.2-18.1-26.7-29.2S134.5,314,134.5,314z"/>
<path class="st3" d="M100.4,314c0,0-18.1,1.7-18.9,3.4c-0.9,1.7-27.1,9-25.4,16.8s25.4,77,15.1,89.9s-27.5,31-21.5,32.7
	s16.3-2.6,26.7,0s34.4-18.9,31.8-42.1S108.1,320,100.4,314z"/>
<path class="st6" d="M143.4,478.2v8.6c0,0,4.3,19.8-9.5,18.9s-5.2-24.1-5.2-24.1l0.9-7.7L143.4,478.2z"/>
<path class="st6" d="M104.7,479.1c0,0,9.5,19.8,0,21.5S88.4,489.4,88.4,486S104.7,479.1,104.7,479.1z"/>
<ellipse class="st6" cx="92.2" cy="278.3" rx="1.7" ry="3.4"/>
<ellipse class="st6" cx="143" cy="278.3" rx="1.7" ry="3.4"/>
<path class="st3" d="M77.2,325.2c0,0-21.5,0-20.6,8.6c0.9,8.6,29.2,156.5,29.2,156.5s12-11.2,22.4-8.6L77.2,325.2z"/>
<path class="st3" d="M160.6,327.7c0,0,21.5,4.3,21.5,17.2s-31,136.7-35.3,136.7s-20.6-2.6-20.6-6.9S160.6,327.7,160.6,327.7z"/>
<path class="st7" d="M155.9,353.1l-19.4,75.7C136.5,428.8,145.5,362.6,155.9,353.1z"/>
<path class="st7" d="M80.6,342.5l19.6,98.9C100.2,441.4,93.9,348.2,80.6,342.5z"/>
<circle class="st6" cx="117.6" cy="278.7" r="24.9"/>
<polygon class="st0" points="94.7,253.3 113.4,243.6 139.1,247.6 144.4,271.1 131.2,270.6 127.5,261.9 127.5,270.4 121.4,270.2 
	117.8,256.5 115.6,271.1 93.8,270.7 "/>
<polyline class="st8" points="374.3,108.6 364,133 450.8,178.5 480,93 "/>
<polygon class="st1" points="448.8,163.5 487.1,73.4 399,30 362,118 "/>
<rect x="429.2" y="44.7" transform="matrix(0.455 -0.8905 0.8905 0.455 161.1514 427.6371)" class="st9" width="1.4" height="74.9"/>
<rect x="424.2" y="56.7" transform="matrix(0.455 -0.8905 0.8905 0.455 147.7405 429.7246)" class="st9" width="1.4" height="74.9"/>
</svg>
