<?xml version="1.0" encoding="UTF-8"?>
<svg width="587px" height="572px" viewBox="0 0 587 572" version="1.1" xmlns="http://www.w3.org/2000/svg" xmlns:xlink="http://www.w3.org/1999/xlink">
    <!-- Generator: Sketch 57.1 (83088) - https://sketch.com -->
    <title>Dots left</title>
    <desc>Created with Sketch.</desc>
    <g id="Page-1" stroke="none" stroke-width="1" fill="none" fill-rule="evenodd">
        <g id="HomePage-Approved-Mock" transform="translate(-50.000000, -8355.000000)" fill="#606060">
            <g id="Testimonials" transform="translate(50.000000, 8151.000000)">
                <path d="M361,774 C361.552285,774 362,774.447715 362,775 C362,775.512836 361.61396,775.935507 361.116621,775.993272 L361,776 L361,776 C360.447715,776 360,775.552285 360,775 C360,774.447715 360.447715,774 361,774 Z M1,774 C1.55228475,774 2,774.447715 2,775 C2,775.552285 1.55228475,776 1,776 C0.44771525,776 0,775.552285 0,775 C0,774.447715 0.44771525,774 1,774 Z M46,774 C46.5522847,774 47,774.447715 47,775 C47,775.552285 46.5522847,776 46,776 C45.4477153,776 45,775.552285 45,775 C45,774.447715 45.4477153,774 46,774 Z M91,774 C91.5522847,774 92,774.447715 92,775 C92,775.552285 91.5522847,776 91,776 C90.4477153,776 90,775.552285 90,775 C90,774.447715 90.4477153,774 91,774 Z M136,774 C136.552285,774 137,774.447715 137,775 C137,775.552285 136.552285,776 136,776 C135.447715,776 135,775.552285 135,775 C135,774.447715 135.447715,774 136,774 Z M181,774 C181.552285,774 182,774.447715 182,775 C182,775.552285 181.552285,776 181,776 C180.447715,776 180,775.552285 180,775 C180,774.447715 180.447715,774 181,774 Z M226,774 C226.552285,774 227,774.447715 227,775 C227,775.512836 226.61396,775.935507 226.116621,775.993272 L226,776 L226,776 C225.447715,776 225,775.552285 225,775 C225,774.447715 225.447715,774 226,774 Z M271,774 C271.552285,774 272,774.447715 272,775 C272,775.512836 271.61396,775.935507 271.116621,775.993272 L271,776 L271,776 C270.447715,776 270,775.552285 270,775 C270,774.447715 270.447715,774 271,774 Z M316,774 C316.552285,774 317,774.447715 317,775 C317,775.512836 316.61396,775.935507 316.116621,775.993272 L316,776 L316,776 C315.447715,776 315,775.552285 315,775 C315,774.447715 315.447715,774 316,774 Z M541,774 C541.552285,774 542,774.447715 542,775 C542,775.552285 541.552285,776 541,776 C540.447715,776 540,775.552285 540,775 C540,774.447715 540.447715,774 541,774 Z M496,774 C496.552285,774 497,774.447715 497,775 C497,775.552285 496.552285,776 496,776 C495.447715,776 495,775.552285 495,775 C495,774.447715 495.447715,774 496,774 Z M451,774 C451.552285,774 452,774.447715 452,775 C452,775.552285 451.552285,776 451,776 C450.447715,776 450,775.552285 450,775 C450,774.447715 450.447715,774 451,774 Z M406,774 C406.552285,774 407,774.447715 407,775 C407,775.552285 406.552285,776 406,776 C405.447715,776 405,775.552285 405,775 C405,774.447715 405.447715,774 406,774 Z M586,774 C586.552285,774 587,774.447715 587,775 C587,775.552285 586.552285,776 586,776 C585.447715,776 585,775.552285 585,775 C585,774.447715 585.447715,774 586,774 Z M226,734 C226.552285,734 227,734.447715 227,735 C227,735.512836 226.61396,735.935507 226.116621,735.993272 L226,736 L226,736 C225.447715,736 225,735.552285 225,735 C225,734.447715 225.447715,734 226,734 Z M361,734 C361.552285,734 362,734.447715 362,735 C362,735.512836 361.61396,735.935507 361.116621,735.993272 L361,736 L361,736 C360.447715,736 360,735.552285 360,735 C360,734.447715 360.447715,734 361,734 Z M541,734 C541.552285,734 542,734.447715 542,735 C542,735.552285 541.552285,736 541,736 C540.447715,736 540,735.552285 540,735 C540,734.447715 540.447715,734 541,734 Z M586,734 C586.552285,734 587,734.447715 587,735 C587,735.552285 586.552285,736 586,736 C585.447715,736 585,735.552285 585,735 C585,734.447715 585.447715,734 586,734 Z M496,734 C496.552285,734 497,734.447715 497,735 C497,735.552285 496.552285,736 496,736 C495.447715,736 495,735.552285 495,735 C495,734.447715 495.447715,734 496,734 Z M316,734 C316.552285,734 317,734.447715 317,735 C317,735.512836 316.61396,735.935507 316.116621,735.993272 L316,736 L316,736 C315.447715,736 315,735.552285 315,735 C315,734.447715 315.447715,734 316,734 Z M451,734 C451.552285,734 452,734.447715 452,735 C452,735.552285 451.552285,736 451,736 C450.447715,736 450,735.552285 450,735 C450,734.447715 450.447715,734 451,734 Z M271,734 C271.552285,734 272,734.447715 272,735 C272,735.512836 271.61396,735.935507 271.116621,735.993272 L271,736 L271,736 C270.447715,736 270,735.552285 270,735 C270,734.447715 270.447715,734 271,734 Z M406,734 C406.552285,734 407,734.447715 407,735 C407,735.552285 406.552285,736 406,736 C405.447715,736 405,735.552285 405,735 C405,734.447715 405.447715,734 406,734 Z M1,734 C1.55228475,734 2,734.447715 2,735 C2,735.552285 1.55228475,736 1,736 C0.44771525,736 0,735.552285 0,735 C0,734.447715 0.44771525,734 1,734 Z M181,734 C181.552285,734 182,734.447715 182,735 C182,735.552285 181.552285,736 181,736 C180.447715,736 180,735.552285 180,735 C180,734.447715 180.447715,734 181,734 Z M46,734 C46.5522847,734 47,734.447715 47,735 C47,735.552285 46.5522847,736 46,736 C45.4477153,736 45,735.552285 45,735 C45,734.447715 45.4477153,734 46,734 Z M91,734 C91.5522847,734 92,734.447715 92,735 C92,735.552285 91.5522847,736 91,736 C90.4477153,736 90,735.552285 90,735 C90,734.447715 90.4477153,734 91,734 Z M136,734 C136.552285,734 137,734.447715 137,735 C137,735.552285 136.552285,736 136,736 C135.447715,736 135,735.552285 135,735 C135,734.447715 135.447715,734 136,734 Z M46,694 C46.5522847,694 47,694.447715 47,695 C47,695.552285 46.5522847,696 46,696 C45.4477153,696 45,695.552285 45,695 C45,694.447715 45.4477153,694 46,694 Z M271,694 C271.552285,694 272,694.447715 272,695 C272,695.512836 271.61396,695.935507 271.116621,695.993272 L271,696 L271,696 C270.447715,696 270,695.552285 270,695 C270,694.447715 270.447715,694 271,694 Z M316,694 C316.552285,694 317,694.447715 317,695 C317,695.512836 316.61396,695.935507 316.116621,695.993272 L316,696 L316,696 C315.447715,696 315,695.552285 315,695 C315,694.447715 315.447715,694 316,694 Z M226,694 C226.552285,694 227,694.447715 227,695 C227,695.512836 226.61396,695.935507 226.116621,695.993272 L226,696 L226,696 C225.447715,696 225,695.552285 225,695 C225,694.447715 225.447715,694 226,694 Z M181,694 C181.552285,694 182,694.447715 182,695 C182,695.552285 181.552285,696 181,696 C180.447715,696 180,695.552285 180,695 C180,694.447715 180.447715,694 181,694 Z M136,694 C136.552285,694 137,694.447715 137,695 C137,695.552285 136.552285,696 136,696 C135.447715,696 135,695.552285 135,695 C135,694.447715 135.447715,694 136,694 Z M91,694 C91.5522847,694 92,694.447715 92,695 C92,695.552285 91.5522847,696 91,696 C90.4477153,696 90,695.552285 90,695 C90,694.447715 90.4477153,694 91,694 Z M361,694 C361.552285,694 362,694.447715 362,695 C362,695.512836 361.61396,695.935507 361.116621,695.993272 L361,696 L361,696 C360.447715,696 360,695.552285 360,695 C360,694.447715 360.447715,694 361,694 Z M1,694 C1.55228475,694 2,694.447715 2,695 C2,695.552285 1.55228475,696 1,696 C0.44771525,696 0,695.552285 0,695 C0,694.447715 0.44771525,694 1,694 Z M541,694 C541.552285,694 542,694.447715 542,695 C542,695.552285 541.552285,696 541,696 C540.447715,696 540,695.552285 540,695 C540,694.447715 540.447715,694 541,694 Z M496,694 C496.552285,694 497,694.447715 497,695 C497,695.552285 496.552285,696 496,696 C495.447715,696 495,695.552285 495,695 C495,694.447715 495.447715,694 496,694 Z M451,694 C451.552285,694 452,694.447715 452,695 C452,695.552285 451.552285,696 451,696 C450.447715,696 450,695.552285 450,695 C450,694.447715 450.447715,694 451,694 Z M406,694 C406.552285,694 407,694.447715 407,695 C407,695.552285 406.552285,696 406,696 C405.447715,696 405,695.552285 405,695 C405,694.447715 405.447715,694 406,694 Z M586,694 C586.552285,694 587,694.447715 587,695 C587,695.552285 586.552285,696 586,696 C585.447715,696 585,695.552285 585,695 C585,694.447715 585.447715,694 586,694 Z M226,654 C226.552285,654 227,654.447715 227,655 C227,655.512836 226.61396,655.935507 226.116621,655.993272 L226,656 L226,656 C225.447715,656 225,655.552285 225,655 C225,654.447715 225.447715,654 226,654 Z M586,654 C586.552285,654 587,654.447715 587,655 C587,655.552285 586.552285,656 586,656 C585.447715,656 585,655.552285 585,655 C585,654.447715 585.447715,654 586,654 Z M271,654 C271.552285,654 272,654.447715 272,655 C272,655.512836 271.61396,655.935507 271.116621,655.993272 L271,656 L271,656 C270.447715,656 270,655.552285 270,655 C270,654.447715 270.447715,654 271,654 Z M316,654 C316.552285,654 317,654.447715 317,655 C317,655.512836 316.61396,655.935507 316.116621,655.993272 L316,656 L316,656 C315.447715,656 315,655.552285 315,655 C315,654.447715 315.447715,654 316,654 Z M361,654 C361.552285,654 362,654.447715 362,655 C362,655.512836 361.61396,655.935507 361.116621,655.993272 L361,656 L361,656 C360.447715,656 360,655.552285 360,655 C360,654.447715 360.447715,654 361,654 Z M406,654 C406.552285,654 407,654.447715 407,655 C407,655.552285 406.552285,656 406,656 C405.447715,656 405,655.552285 405,655 C405,654.447715 405.447715,654 406,654 Z M451,654 C451.552285,654 452,654.447715 452,655 C452,655.552285 451.552285,656 451,656 C450.447715,656 450,655.552285 450,655 C450,654.447715 450.447715,654 451,654 Z M496,654 C496.552285,654 497,654.447715 497,655 C497,655.552285 496.552285,656 496,656 C495.447715,656 495,655.552285 495,655 C495,654.447715 495.447715,654 496,654 Z M541,654 C541.552285,654 542,654.447715 542,655 C542,655.552285 541.552285,656 541,656 C540.447715,656 540,655.552285 540,655 C540,654.447715 540.447715,654 541,654 Z M1,654 C1.55228475,654 2,654.447715 2,655 C2,655.552285 1.55228475,656 1,656 C0.44771525,656 0,655.552285 0,655 C0,654.447715 0.44771525,654 1,654 Z M46,654 C46.5522847,654 47,654.447715 47,655 C47,655.552285 46.5522847,656 46,656 C45.4477153,656 45,655.552285 45,655 C45,654.447715 45.4477153,654 46,654 Z M91,654 C91.5522847,654 92,654.447715 92,655 C92,655.552285 91.5522847,656 91,656 C90.4477153,656 90,655.552285 90,655 C90,654.447715 90.4477153,654 91,654 Z M136,654 C136.552285,654 137,654.447715 137,655 C137,655.552285 136.552285,656 136,656 C135.447715,656 135,655.552285 135,655 C135,654.447715 135.447715,654 136,654 Z M181,654 C181.552285,654 182,654.447715 182,655 C182,655.552285 181.552285,656 181,656 C180.447715,656 180,655.552285 180,655 C180,654.447715 180.447715,654 181,654 Z M181,613 C181.552285,613 182,613.447715 182,614 C182,614.552285 181.552285,615 181,615 C180.447715,615 180,614.552285 180,614 C180,613.447715 180.447715,613 181,613 Z M316,613 C316.552285,613 317,613.447715 317,614 C317,614.512836 316.61396,614.935507 316.116621,614.993272 L316,615 L316,615 C315.447715,615 315,614.552285 315,614 C315,613.447715 315.447715,613 316,613 Z M91,613 C91.5522847,613 92,613.447715 92,614 C92,614.552285 91.5522847,615 91,615 C90.4477153,615 90,614.552285 90,614 C90,613.447715 90.4477153,613 91,613 Z M361,613 C361.552285,613 362,613.447715 362,614 C362,614.512836 361.61396,614.935507 361.116621,614.993272 L361,615 L361,615 C360.447715,615 360,614.552285 360,614 C360,613.447715 360.447715,613 361,613 Z M1,613 C1.55228475,613 2,613.447715 2,614 C2,614.552285 1.55228475,615 1,615 C0.44771525,615 0,614.552285 0,614 C0,613.447715 0.44771525,613 1,613 Z M226,613 C226.552285,613 227,613.447715 227,614 C227,614.512836 226.61396,614.935507 226.116621,614.993272 L226,615 L226,615 C225.447715,615 225,614.552285 225,614 C225,613.447715 225.447715,613 226,613 Z M46,613 C46.5522847,613 47,613.447715 47,614 C47,614.552285 46.5522847,615 46,615 C45.4477153,615 45,614.552285 45,614 C45,613.447715 45.4477153,613 46,613 Z M271,613 C271.552285,613 272,613.447715 272,614 C272,614.512836 271.61396,614.935507 271.116621,614.993272 L271,615 L271,615 C270.447715,615 270,614.552285 270,614 C270,613.447715 270.447715,613 271,613 Z M136,613 C136.552285,613 137,613.447715 137,614 C137,614.552285 136.552285,615 136,615 C135.447715,615 135,614.552285 135,614 C135,613.447715 135.447715,613 136,613 Z M406,613 C406.552285,613 407,613.447715 407,614 C407,614.552285 406.552285,615 406,615 C405.447715,615 405,614.552285 405,614 C405,613.447715 405.447715,613 406,613 Z M496,613 C496.552285,613 497,613.447715 497,614 C497,614.552285 496.552285,615 496,615 C495.447715,615 495,614.552285 495,614 C495,613.447715 495.447715,613 496,613 Z M451,613 C451.552285,613 452,613.447715 452,614 C452,614.552285 451.552285,615 451,615 C450.447715,615 450,614.552285 450,614 C450,613.447715 450.447715,613 451,613 Z M586,613 C586.552285,613 587,613.447715 587,614 C587,614.552285 586.552285,615 586,615 C585.447715,615 585,614.552285 585,614 C585,613.447715 585.447715,613 586,613 Z M541,613 C541.552285,613 542,613.447715 542,614 C542,614.552285 541.552285,615 541,615 C540.447715,615 540,614.552285 540,614 C540,613.447715 540.447715,613 541,613 Z M1,572 C1.55228475,572 2,572.447715 2,573 C2,573.552285 1.55228475,574 1,574 C0.44771525,574 0,573.552285 0,573 C0,572.447715 0.44771525,572 1,572 Z M181,572 C181.552285,572 182,572.447715 182,573 C182,573.552285 181.552285,574 181,574 C180.447715,574 180,573.552285 180,573 C180,572.447715 180.447715,572 181,572 Z M406,572 C406.552285,572 407,572.447715 407,573 C407,573.552285 406.552285,574 406,574 C405.447715,574 405,573.552285 405,573 C405,572.447715 405.447715,572 406,572 Z M586,572 C586.552285,572 587,572.447715 587,573 C587,573.552285 586.552285,574 586,574 C585.447715,574 585,573.552285 585,573 C585,572.447715 585.447715,572 586,572 Z M496,572 C496.552285,572 497,572.447715 497,573 C497,573.552285 496.552285,574 496,574 C495.447715,574 495,573.552285 495,573 C495,572.447715 495.447715,572 496,572 Z M271,572 C271.552285,572 272,572.447715 272,573 C272,573.512836 271.61396,573.935507 271.116621,573.993272 L271,574 L271,574 C270.447715,574 270,573.552285 270,573 C270,572.447715 270.447715,572 271,572 Z M541,572 C541.552285,572 542,572.447715 542,573 C542,573.552285 541.552285,574 541,574 C540.447715,574 540,573.552285 540,573 C540,572.447715 540.447715,572 541,572 Z M451,572 C451.552285,572 452,572.447715 452,573 C452,573.552285 451.552285,574 451,574 C450.447715,574 450,573.552285 450,573 C450,572.447715 450.447715,572 451,572 Z M316,572 C316.552285,572 317,572.447715 317,573 C317,573.512836 316.61396,573.935507 316.116621,573.993272 L316,574 L316,574 C315.447715,574 315,573.552285 315,573 C315,572.447715 315.447715,572 316,572 Z M226,572 C226.552285,572 227,572.447715 227,573 C227,573.512836 226.61396,573.935507 226.116621,573.993272 L226,574 L226,574 C225.447715,574 225,573.552285 225,573 C225,572.447715 225.447715,572 226,572 Z M361,572 C361.552285,572 362,572.447715 362,573 C362,573.512836 361.61396,573.935507 361.116621,573.993272 L361,574 L361,574 C360.447715,574 360,573.552285 360,573 C360,572.447715 360.447715,572 361,572 Z M46,572 C46.5522847,572 47,572.447715 47,573 C47,573.552285 46.5522847,574 46,574 C45.4477153,574 45,573.552285 45,573 C45,572.447715 45.4477153,572 46,572 Z M91,572 C91.5522847,572 92,572.447715 92,573 C92,573.552285 91.5522847,574 91,574 C90.4477153,574 90,573.552285 90,573 C90,572.447715 90.4477153,572 91,572 Z M136,572 C136.552285,572 137,572.447715 137,573 C137,573.552285 136.552285,574 136,574 C135.447715,574 135,573.552285 135,573 C135,572.447715 135.447715,572 136,572 Z M361,531 C361.552285,531 362,531.447715 362,532 C362,532.512836 361.61396,532.935507 361.116621,532.993272 L361,533 L361,533 C360.447715,533 360,532.552285 360,532 C360,531.447715 360.447715,531 361,531 Z M136,531 C136.552285,531 137,531.447715 137,532 C137,532.552285 136.552285,533 136,533 C135.447715,533 135,532.552285 135,532 C135,531.447715 135.447715,531 136,531 Z M271,531 C271.552285,531 272,531.447715 272,532 C272,532.512836 271.61396,532.935507 271.116621,532.993272 L271,533 L271,533 C270.447715,533 270,532.552285 270,532 C270,531.447715 270.447715,531 271,531 Z M316,531 C316.552285,531 317,531.447715 317,532 C317,532.512836 316.61396,532.935507 316.116621,532.993272 L316,533 L316,533 C315.447715,533 315,532.552285 315,532 C315,531.447715 315.447715,531 316,531 Z M226,531 C226.552285,531 227,531.447715 227,532 C227,532.512836 226.61396,532.935507 226.116621,532.993272 L226,533 L226,533 C225.447715,533 225,532.552285 225,532 C225,531.447715 225.447715,531 226,531 Z M1,531 C1.55228475,531 2,531.447715 2,532 C2,532.552285 1.55228475,533 1,533 C0.44771525,533 0,532.552285 0,532 C0,531.447715 0.44771525,531 1,531 Z M181,531 C181.552285,531 182,531.447715 182,532 C182,532.552285 181.552285,533 181,533 C180.447715,533 180,532.552285 180,532 C180,531.447715 180.447715,531 181,531 Z M91,531 C91.5522847,531 92,531.447715 92,532 C92,532.552285 91.5522847,533 91,533 C90.4477153,533 90,532.552285 90,532 C90,531.447715 90.4477153,531 91,531 Z M496,531 C496.552285,531 497,531.447715 497,532 C497,532.552285 496.552285,533 496,533 C495.447715,533 495,532.552285 495,532 C495,531.447715 495.447715,531 496,531 Z M46,531 C46.5522847,531 47,531.447715 47,532 C47,532.552285 46.5522847,533 46,533 C45.4477153,533 45,532.552285 45,532 C45,531.447715 45.4477153,531 46,531 Z M541,531 C541.552285,531 542,531.447715 542,532 C542,532.552285 541.552285,533 541,533 C540.447715,533 540,532.552285 540,532 C540,531.447715 540.447715,531 541,531 Z M451,531 C451.552285,531 452,531.447715 452,532 C452,532.552285 451.552285,533 451,533 C450.447715,533 450,532.552285 450,532 C450,531.447715 450.447715,531 451,531 Z M406,531 C406.552285,531 407,531.447715 407,532 C407,532.552285 406.552285,533 406,533 C405.447715,533 405,532.552285 405,532 C405,531.447715 405.447715,531 406,531 Z M586,531 C586.552285,531 587,531.447715 587,532 C587,532.552285 586.552285,533 586,533 C585.447715,533 585,532.552285 585,532 C585,531.447715 585.447715,531 586,531 Z M271,490 C271.552285,490 272,490.447715 272,491 C272,491.512836 271.61396,491.935507 271.116621,491.993272 L271,492 L271,492 C270.447715,492 270,491.552285 270,491 C270,490.447715 270.447715,490 271,490 Z M316,490 C316.552285,490 317,490.447715 317,491 C317,491.512836 316.61396,491.935507 316.116621,491.993272 L316,492 L316,492 C315.447715,492 315,491.552285 315,491 C315,490.447715 315.447715,490 316,490 Z M496,490 C496.552285,490 497,490.447715 497,491 C497,491.552285 496.552285,492 496,492 C495.447715,492 495,491.552285 495,491 C495,490.447715 495.447715,490 496,490 Z M451,490 C451.552285,490 452,490.447715 452,491 C452,491.552285 451.552285,492 451,492 C450.447715,492 450,491.552285 450,491 C450,490.447715 450.447715,490 451,490 Z M406,490 C406.552285,490 407,490.447715 407,491 C407,491.552285 406.552285,492 406,492 C405.447715,492 405,491.552285 405,491 C405,490.447715 405.447715,490 406,490 Z M361,490 C361.552285,490 362,490.447715 362,491 C362,491.512836 361.61396,491.935507 361.116621,491.993272 L361,492 L361,492 C360.447715,492 360,491.552285 360,491 C360,490.447715 360.447715,490 361,490 Z M226,490 C226.552285,490 227,490.447715 227,491 C227,491.512836 226.61396,491.935507 226.116621,491.993272 L226,492 L226,492 C225.447715,492 225,491.552285 225,491 C225,490.447715 225.447715,490 226,490 Z M586,490 C586.552285,490 587,490.447715 587,491 C587,491.552285 586.552285,492 586,492 C585.447715,492 585,491.552285 585,491 C585,490.447715 585.447715,490 586,490 Z M541,490 C541.552285,490 542,490.447715 542,491 C542,491.552285 541.552285,492 541,492 C540.447715,492 540,491.552285 540,491 C540,490.447715 540.447715,490 541,490 Z M181,490 C181.552285,490 182,490.447715 182,491 C182,491.552285 181.552285,492 181,492 C180.447715,492 180,491.552285 180,491 C180,490.447715 180.447715,490 181,490 Z M136,490 C136.552285,490 137,490.447715 137,491 C137,491.552285 136.552285,492 136,492 C135.447715,492 135,491.552285 135,491 C135,490.447715 135.447715,490 136,490 Z M1,490 C1.55228475,490 2,490.447715 2,491 C2,491.552285 1.55228475,492 1,492 C0.44771525,492 0,491.552285 0,491 C0,490.447715 0.44771525,490 1,490 Z M46,490 C46.5522847,490 47,490.447715 47,491 C47,491.552285 46.5522847,492 46,492 C45.4477153,492 45,491.552285 45,491 C45,490.447715 45.4477153,490 46,490 Z M91,490 C91.5522847,490 92,490.447715 92,491 C92,491.552285 91.5522847,492 91,492 C90.4477153,492 90,491.552285 90,491 C90,490.447715 90.4477153,490 91,490 Z M271,449 C271.552285,449 272,449.447715 272,450 C272,450.512836 271.61396,450.935507 271.116621,450.993272 L271,451 L271,451 C270.447715,451 270,450.552285 270,450 C270,449.447715 270.447715,449 271,449 Z M316,449 C316.552285,449 317,449.447715 317,450 C317,450.512836 316.61396,450.935507 316.116621,450.993272 L316,451 L316,451 C315.447715,451 315,450.552285 315,450 C315,449.447715 315.447715,449 316,449 Z M541,449 C541.552285,449 542,449.447715 542,450 C542,450.552285 541.552285,451 541,451 C540.447715,451 540,450.552285 540,450 C540,449.447715 540.447715,449 541,449 Z M586,449 C586.552285,449 587,449.447715 587,450 C587,450.552285 586.552285,451 586,451 C585.447715,451 585,450.552285 585,450 C585,449.447715 585.447715,449 586,449 Z M451,449 C451.552285,449 452,449.447715 452,450 C452,450.552285 451.552285,451 451,451 C450.447715,451 450,450.552285 450,450 C450,449.447715 450.447715,449 451,449 Z M226,449 C226.552285,449 227,449.447715 227,450 C227,450.512836 226.61396,450.935507 226.116621,450.993272 L226,451 L226,451 C225.447715,451 225,450.552285 225,450 C225,449.447715 225.447715,449 226,449 Z M406,449 C406.552285,449 407,449.447715 407,450 C407,450.552285 406.552285,451 406,451 C405.447715,451 405,450.552285 405,450 C405,449.447715 405.447715,449 406,449 Z M361,449 C361.552285,449 362,449.447715 362,450 C362,450.512836 361.61396,450.935507 361.116621,450.993272 L361,451 L361,451 C360.447715,451 360,450.552285 360,450 C360,449.447715 360.447715,449 361,449 Z M91,449 C91.5522847,449 92,449.447715 92,450 C92,450.552285 91.5522847,451 91,451 C90.4477153,451 90,450.552285 90,450 C90,449.447715 90.4477153,449 91,449 Z M496,449 C496.552285,449 497,449.447715 497,450 C497,450.552285 496.552285,451 496,451 C495.447715,451 495,450.552285 495,450 C495,449.447715 495.447715,449 496,449 Z M136,449 C136.552285,449 137,449.447715 137,450 C137,450.552285 136.552285,451 136,451 C135.447715,451 135,450.552285 135,450 C135,449.447715 135.447715,449 136,449 Z M181,449 C181.552285,449 182,449.447715 182,450 C182,450.552285 181.552285,451 181,451 C180.447715,451 180,450.552285 180,450 C180,449.447715 180.447715,449 181,449 Z M1,449 C1.55228475,449 2,449.447715 2,450 C2,450.552285 1.55228475,451 1,451 C0.44771525,451 0,450.552285 0,450 C0,449.447715 0.44771525,449 1,449 Z M46,449 C46.5522847,449 47,449.447715 47,450 C47,450.552285 46.5522847,451 46,451 C45.4477153,451 45,450.552285 45,450 C45,449.447715 45.4477153,449 46,449 Z M46,409 C46.5522847,409 47,409.447715 47,410 C47,410.552285 46.5522847,411 46,411 C45.4477153,411 45,410.552285 45,410 C45,409.447715 45.4477153,409 46,409 Z M316,409 C316.552285,409 317,409.447715 317,410 C317,410.512836 316.61396,410.935507 316.116621,410.993272 L316,411 L316,411 C315.447715,411 315,410.552285 315,410 C315,409.447715 315.447715,409 316,409 Z M271,409 C271.552285,409 272,409.447715 272,410 C272,410.512836 271.61396,410.935507 271.116621,410.993272 L271,411 L271,411 C270.447715,411 270,410.552285 270,410 C270,409.447715 270.447715,409 271,409 Z M451,409 C451.552285,409 452,409.447715 452,410 C452,410.552285 451.552285,411 451,411 C450.447715,411 450,410.552285 450,410 C450,409.447715 450.447715,409 451,409 Z M361,409 C361.552285,409 362,409.447715 362,410 C362,410.512836 361.61396,410.935507 361.116621,410.993272 L361,411 L361,411 C360.447715,411 360,410.552285 360,410 C360,409.447715 360.447715,409 361,409 Z M406,409 C406.552285,409 407,409.447715 407,410 C407,410.552285 406.552285,411 406,411 C405.447715,411 405,410.552285 405,410 C405,409.447715 405.447715,409 406,409 Z M586,409 C586.552285,409 587,409.447715 587,410 C587,410.552285 586.552285,411 586,411 C585.447715,411 585,410.552285 585,410 C585,409.447715 585.447715,409 586,409 Z M226,409 C226.552285,409 227,409.447715 227,410 C227,410.512836 226.61396,410.935507 226.116621,410.993272 L226,411 L226,411 C225.447715,411 225,410.552285 225,410 C225,409.447715 225.447715,409 226,409 Z M496,409 C496.552285,409 497,409.447715 497,410 C497,410.552285 496.552285,411 496,411 C495.447715,411 495,410.552285 495,410 C495,409.447715 495.447715,409 496,409 Z M541,409 C541.552285,409 542,409.447715 542,410 C542,410.552285 541.552285,411 541,411 C540.447715,411 540,410.552285 540,410 C540,409.447715 540.447715,409 541,409 Z M91,409 C91.5522847,409 92,409.447715 92,410 C92,410.552285 91.5522847,411 91,411 C90.4477153,411 90,410.552285 90,410 C90,409.447715 90.4477153,409 91,409 Z M136,409 C136.552285,409 137,409.447715 137,410 C137,410.552285 136.552285,411 136,411 C135.447715,411 135,410.552285 135,410 C135,409.447715 135.447715,409 136,409 Z M181,409 C181.552285,409 182,409.447715 182,410 C182,410.552285 181.552285,411 181,411 C180.447715,411 180,410.552285 180,410 C180,409.447715 180.447715,409 181,409 Z M1,409 C1.55228475,409 2,409.447715 2,410 C2,410.552285 1.55228475,411 1,411 C0.44771525,411 0,410.552285 0,410 C0,409.447715 0.44771525,409 1,409 Z M181,368 C181.552285,368 182,368.447715 182,369 C182,369.552285 181.552285,370 181,370 C180.447715,370 180,369.552285 180,369 C180,368.447715 180.447715,368 181,368 Z M451,368 C451.552285,368 452,368.447715 452,369 C452,369.552285 451.552285,370 451,370 C450.447715,370 450,369.552285 450,369 C450,368.447715 450.447715,368 451,368 Z M316,368 C316.552285,368 317,368.447715 317,369 C317,369.512836 316.61396,369.935507 316.116621,369.993272 L316,370 L316,370 C315.447715,370 315,369.552285 315,369 C315,368.447715 315.447715,368 316,368 Z M226,368 C226.552285,368 227,368.447715 227,369 C227,369.512836 226.61396,369.935507 226.116621,369.993272 L226,370 L226,370 C225.447715,370 225,369.552285 225,369 C225,368.447715 225.447715,368 226,368 Z M46,368 C46.5522847,368 47,368.447715 47,369 C47,369.552285 46.5522847,370 46,370 C45.4477153,370 45,369.552285 45,369 C45,368.447715 45.4477153,368 46,368 Z M136,368 C136.552285,368 137,368.447715 137,369 C137,369.552285 136.552285,370 136,370 C135.447715,370 135,369.552285 135,369 C135,368.447715 135.447715,368 136,368 Z M271,368 C271.552285,368 272,368.447715 272,369 C272,369.512836 271.61396,369.935507 271.116621,369.993272 L271,370 L271,370 C270.447715,370 270,369.552285 270,369 C270,368.447715 270.447715,368 271,368 Z M91,368 C91.5522847,368 92,368.447715 92,369 C92,369.552285 91.5522847,370 91,370 C90.4477153,370 90,369.552285 90,369 C90,368.447715 90.4477153,368 91,368 Z M1,368 C1.55228475,368 2,368.447715 2,369 C2,369.552285 1.55228475,370 1,370 C0.44771525,370 0,369.552285 0,369 C0,368.447715 0.44771525,368 1,368 Z M586,368 C586.552285,368 587,368.447715 587,369 C587,369.552285 586.552285,370 586,370 C585.447715,370 585,369.552285 585,369 C585,368.447715 585.447715,368 586,368 Z M361,368 C361.552285,368 362,368.447715 362,369 C362,369.512836 361.61396,369.935507 361.116621,369.993272 L361,370 L361,370 C360.447715,370 360,369.552285 360,369 C360,368.447715 360.447715,368 361,368 Z M406,368 C406.552285,368 407,368.447715 407,369 C407,369.552285 406.552285,370 406,370 C405.447715,370 405,369.552285 405,369 C405,368.447715 405.447715,368 406,368 Z M496,368 C496.552285,368 497,368.447715 497,369 C497,369.552285 496.552285,370 496,370 C495.447715,370 495,369.552285 495,369 C495,368.447715 495.447715,368 496,368 Z M541,368 C541.552285,368 542,368.447715 542,369 C542,369.552285 541.552285,370 541,370 C540.447715,370 540,369.552285 540,369 C540,368.447715 540.447715,368 541,368 Z M271,327 C271.552285,327 272,327.447715 272,328 C272,328.512836 271.61396,328.935507 271.116621,328.993272 L271,329 L271,329 C270.447715,329 270,328.552285 270,328 C270,327.447715 270.447715,327 271,327 Z M361,327 C361.552285,327 362,327.447715 362,328 C362,328.512836 361.61396,328.935507 361.116621,328.993272 L361,329 L361,329 C360.447715,329 360,328.552285 360,328 C360,327.447715 360.447715,327 361,327 Z M91,327 C91.5522847,327 92,327.447715 92,328 C92,328.552285 91.5522847,329 91,329 C90.4477153,329 90,328.552285 90,328 C90,327.447715 90.4477153,327 91,327 Z M46,327 C46.5522847,327 47,327.447715 47,328 C47,328.552285 46.5522847,329 46,329 C45.4477153,329 45,328.552285 45,328 C45,327.447715 45.4477153,327 46,327 Z M1,327 C1.55228475,327 2,327.447715 2,328 C2,328.552285 1.55228475,329 1,329 C0.44771525,329 0,328.552285 0,328 C0,327.447715 0.44771525,327 1,327 Z M136,327 C136.552285,327 137,327.447715 137,328 C137,328.552285 136.552285,329 136,329 C135.447715,329 135,328.552285 135,328 C135,327.447715 135.447715,327 136,327 Z M181,327 C181.552285,327 182,327.447715 182,328 C182,328.552285 181.552285,329 181,329 C180.447715,329 180,328.552285 180,328 C180,327.447715 180.447715,327 181,327 Z M226,327 C226.552285,327 227,327.447715 227,328 C227,328.512836 226.61396,328.935507 226.116621,328.993272 L226,329 L226,329 C225.447715,329 225,328.552285 225,328 C225,327.447715 225.447715,327 226,327 Z M316,327 C316.552285,327 317,327.447715 317,328 C317,328.512836 316.61396,328.935507 316.116621,328.993272 L316,329 L316,329 C315.447715,329 315,328.552285 315,328 C315,327.447715 315.447715,327 316,327 Z M496,327 C496.552285,327 497,327.447715 497,328 C497,328.552285 496.552285,329 496,329 C495.447715,329 495,328.552285 495,328 C495,327.447715 495.447715,327 496,327 Z M541,327 C541.552285,327 542,327.447715 542,328 C542,328.552285 541.552285,329 541,329 C540.447715,329 540,328.552285 540,328 C540,327.447715 540.447715,327 541,327 Z M451,327 C451.552285,327 452,327.447715 452,328 C452,328.552285 451.552285,329 451,329 C450.447715,329 450,328.552285 450,328 C450,327.447715 450.447715,327 451,327 Z M406,327 C406.552285,327 407,327.447715 407,328 C407,328.552285 406.552285,329 406,329 C405.447715,329 405,328.552285 405,328 C405,327.447715 405.447715,327 406,327 Z M586,327 C586.552285,327 587,327.447715 587,328 C587,328.552285 586.552285,329 586,329 C585.447715,329 585,328.552285 585,328 C585,327.447715 585.447715,327 586,327 Z M406,286 C406.552285,286 407,286.447715 407,287 C407,287.552285 406.552285,288 406,288 C405.447715,288 405,287.552285 405,287 C405,286.447715 405.447715,286 406,286 Z M496,286 C496.552285,286 497,286.447715 497,287 C497,287.552285 496.552285,288 496,288 C495.447715,288 495,287.552285 495,287 C495,286.447715 495.447715,286 496,286 Z M226,286 C226.552285,286 227,286.447715 227,287 C227,287.512836 226.61396,287.935507 226.116621,287.993272 L226,288 L226,288 C225.447715,288 225,287.552285 225,287 C225,286.447715 225.447715,286 226,286 Z M451,286 C451.552285,286 452,286.447715 452,287 C452,287.552285 451.552285,288 451,288 C450.447715,288 450,287.552285 450,287 C450,286.447715 450.447715,286 451,286 Z M541,286 C541.552285,286 542,286.447715 542,287 C542,287.552285 541.552285,288 541,288 C540.447715,288 540,287.552285 540,287 C540,286.447715 540.447715,286 541,286 Z M271,286 C271.552285,286 272,286.447715 272,287 C272,287.512836 271.61396,287.935507 271.116621,287.993272 L271,288 L271,288 C270.447715,288 270,287.552285 270,287 C270,286.447715 270.447715,286 271,286 Z M586,286 C586.552285,286 587,286.447715 587,287 C587,287.552285 586.552285,288 586,288 C585.447715,288 585,287.552285 585,287 C585,286.447715 585.447715,286 586,286 Z M316,286 C316.552285,286 317,286.447715 317,287 C317,287.512836 316.61396,287.935507 316.116621,287.993272 L316,288 L316,288 C315.447715,288 315,287.552285 315,287 C315,286.447715 315.447715,286 316,286 Z M361,286 C361.552285,286 362,286.447715 362,287 C362,287.512836 361.61396,287.935507 361.116621,287.993272 L361,288 L361,288 C360.447715,288 360,287.552285 360,287 C360,286.447715 360.447715,286 361,286 Z M181,286 C181.552285,286 182,286.447715 182,287 C182,287.552285 181.552285,288 181,288 C180.447715,288 180,287.552285 180,287 C180,286.447715 180.447715,286 181,286 Z M1,286 C1.55228475,286 2,286.447715 2,287 C2,287.552285 1.55228475,288 1,288 C0.44771525,288 0,287.552285 0,287 C0,286.447715 0.44771525,286 1,286 Z M46,286 C46.5522847,286 47,286.447715 47,287 C47,287.552285 46.5522847,288 46,288 C45.4477153,288 45,287.552285 45,287 C45,286.447715 45.4477153,286 46,286 Z M91,286 C91.5522847,286 92,286.447715 92,287 C92,287.552285 91.5522847,288 91,288 C90.4477153,288 90,287.552285 90,287 C90,286.447715 90.4477153,286 91,286 Z M136,286 C136.552285,286 137,286.447715 137,287 C137,287.552285 136.552285,288 136,288 C135.447715,288 135,287.552285 135,287 C135,286.447715 135.447715,286 136,286 Z M496,245 C496.552285,245 497,245.447715 497,246 C497,246.552285 496.552285,247 496,247 C495.447715,247 495,246.552285 495,246 C495,245.447715 495.447715,245 496,245 Z M181,245 C181.552285,245 182,245.447715 182,246 C182,246.552285 181.552285,247 181,247 C180.447715,247 180,246.552285 180,246 C180,245.447715 180.447715,245 181,245 Z M271,245 C271.552285,245 272,245.447715 272,246 C272,246.512836 271.61396,246.935507 271.116621,246.993272 L271,247 L271,247 C270.447715,247 270,246.552285 270,246 C270,245.447715 270.447715,245 271,245 Z M91,245 C91.5522847,245 92,245.447715 92,246 C92,246.552285 91.5522847,247 91,247 C90.4477153,247 90,246.552285 90,246 C90,245.447715 90.4477153,245 91,245 Z M136,245 C136.552285,245 137,245.447715 137,246 C137,246.552285 136.552285,247 136,247 C135.447715,247 135,246.552285 135,246 C135,245.447715 135.447715,245 136,245 Z M361,245 C361.552285,245 362,245.447715 362,246 C362,246.512836 361.61396,246.935507 361.116621,246.993272 L361,247 L361,247 C360.447715,247 360,246.552285 360,246 C360,245.447715 360.447715,245 361,245 Z M1,245 C1.55228475,245 2,245.447715 2,246 C2,246.552285 1.55228475,247 1,247 C0.44771525,247 0,246.552285 0,246 C0,245.447715 0.44771525,245 1,245 Z M46,245 C46.5522847,245 47,245.447715 47,246 C47,246.552285 46.5522847,247 46,247 C45.4477153,247 45,246.552285 45,246 C45,245.447715 45.4477153,245 46,245 Z M226,245 C226.552285,245 227,245.447715 227,246 C227,246.512836 226.61396,246.935507 226.116621,246.993272 L226,247 L226,247 C225.447715,247 225,246.552285 225,246 C225,245.447715 225.447715,245 226,245 Z M541,245 C541.552285,245 542,245.447715 542,246 C542,246.552285 541.552285,247 541,247 C540.447715,247 540,246.552285 540,246 C540,245.447715 540.447715,245 541,245 Z M316,245 C316.552285,245 317,245.447715 317,246 C317,246.512836 316.61396,246.935507 316.116621,246.993272 L316,247 L316,247 C315.447715,247 315,246.552285 315,246 C315,245.447715 315.447715,245 316,245 Z M586,245 C586.552285,245 587,245.447715 587,246 C587,246.552285 586.552285,247 586,247 C585.447715,247 585,246.552285 585,246 C585,245.447715 585.447715,245 586,245 Z M451,245 C451.552285,245 452,245.447715 452,246 C452,246.552285 451.552285,247 451,247 C450.447715,247 450,246.552285 450,246 C450,245.447715 450.447715,245 451,245 Z M406,245 C406.552285,245 407,245.447715 407,246 C407,246.552285 406.552285,247 406,247 C405.447715,247 405,246.552285 405,246 C405,245.447715 405.447715,245 406,245 Z M361,204 C361.552285,204 362,204.447715 362,205 C362,205.512836 361.61396,205.935507 361.116621,205.993272 L361,206 L361,206 C360.447715,206 360,205.552285 360,205 C360,204.447715 360.447715,204 361,204 Z M316,204 C316.552285,204 317,204.447715 317,205 C317,205.512836 316.61396,205.935507 316.116621,205.993272 L316,206 L316,206 C315.447715,206 315,205.552285 315,205 C315,204.447715 315.447715,204 316,204 Z M226,204 C226.552285,204 227,204.447715 227,205 C227,205.512836 226.61396,205.935507 226.116621,205.993272 L226,206 L226,206 C225.447715,206 225,205.552285 225,205 C225,204.447715 225.447715,204 226,204 Z M271,204 C271.552285,204 272,204.447715 272,205 C272,205.512836 271.61396,205.935507 271.116621,205.993272 L271,206 L271,206 C270.447715,206 270,205.552285 270,205 C270,204.447715 270.447715,204 271,204 Z M1,204 C1.55228475,204 2,204.447715 2,205 C2,205.552285 1.55228475,206 1,206 C0.44771525,206 0,205.552285 0,205 C0,204.447715 0.44771525,204 1,204 Z M46,204 C46.5522847,204 47,204.447715 47,205 C47,205.552285 46.5522847,206 46,206 C45.4477153,206 45,205.552285 45,205 C45,204.447715 45.4477153,204 46,204 Z M91,204 C91.5522847,204 92,204.447715 92,205 C92,205.552285 91.5522847,206 91,206 C90.4477153,206 90,205.552285 90,205 C90,204.447715 90.4477153,204 91,204 Z M136,204 C136.552285,204 137,204.447715 137,205 C137,205.552285 136.552285,206 136,206 C135.447715,206 135,205.552285 135,205 C135,204.447715 135.447715,204 136,204 Z M181,204 C181.552285,204 182,204.447715 182,205 C182,205.552285 181.552285,206 181,206 C180.447715,206 180,205.552285 180,205 C180,204.447715 180.447715,204 181,204 Z M451,204 C451.552285,204 452,204.447715 452,205 C452,205.552285 451.552285,206 451,206 C450.447715,206 450,205.552285 450,205 C450,204.447715 450.447715,204 451,204 Z M496,204 C496.552285,204 497,204.447715 497,205 C497,205.552285 496.552285,206 496,206 C495.447715,206 495,205.552285 495,205 C495,204.447715 495.447715,204 496,204 Z M406,204 C406.552285,204 407,204.447715 407,205 C407,205.552285 406.552285,206 406,206 C405.447715,206 405,205.552285 405,205 C405,204.447715 405.447715,204 406,204 Z M586,204 C586.552285,204 587,204.447715 587,205 C587,205.552285 586.552285,206 586,206 C585.447715,206 585,205.552285 585,205 C585,204.447715 585.447715,204 586,204 Z M541,204 C541.552285,204 542,204.447715 542,205 C542,205.552285 541.552285,206 541,206 C540.447715,206 540,205.552285 540,205 C540,204.447715 540.447715,204 541,204 Z" id="Dots-left"></path>
            </g>
        </g>
    </g>
</svg>