<svg xmlns="http://www.w3.org/2000/svg" width="60.024" height="60" viewBox="0 0 60.024 60">
    <defs>
        <style>
            .cls-1{fill:#fff}
        </style>
    </defs>
    <g id="web-browser" transform="translate(0 -.102)">
        <path id="Path_111010" d="M.881 12.93a.881.881 0 0 0 .881-.881v-1.6h52.085V18.8a.881.881 0 1 0 1.761 0v-15A3.7 3.7 0 0 0 51.91.1H3.7A3.7 3.7 0 0 0 0 3.8v8.248a.881.881 0 0 0 .881.881zM3.7 1.863h48.21A1.94 1.94 0 0 1 53.847 3.8v4.892H1.761V3.8A1.94 1.94 0 0 1 3.7 1.863z" class="cls-1"/>
        <path id="Path_111011" d="M19.408 165.342H3.7a1.94 1.94 0 0 1-1.939-1.942v-36.21a.881.881 0 0 0-1.761 0v36.21a3.7 3.7 0 0 0 3.7 3.7h15.708a.881.881 0 1 0 0-1.761z" class="cls-1" transform="translate(0 -111.393)"/>
        <path id="Path_111012" d="M221.629 181.811h-29.7a4.142 4.142 0 0 0-4.138 4.138v11.441a.881.881 0 1 0 1.761 0v-5.91h34.452v24.858a2.379 2.379 0 0 1-2.376 2.376h-29.7a2.379 2.379 0 0 1-2.376-2.376v-15.195a.881.881 0 0 0-1.761 0v15.195a4.142 4.142 0 0 0 4.138 4.138h29.7a4.142 4.142 0 0 0 4.138-4.138v-30.389a4.142 4.142 0 0 0-4.138-4.138zm-32.075 7.908v-3.77a2.379 2.379 0 0 1 2.376-2.376h29.7a2.379 2.379 0 0 1 2.376 2.376v3.77z" class="cls-1" transform="translate(-165.743 -160.373)"/>
        <path id="Path_111013" d="M39.341 38.063H40a.881.881 0 0 0 0-1.763h-.661a.881.881 0 0 0 0 1.761z" class="cls-1" transform="translate(-33.944 -31.95)"/>
        <path id="Path_111014" d="M91.507 38.063h.661a.881.881 0 0 0 0-1.761h-.661a.881.881 0 1 0 0 1.761z" class="cls-1" transform="translate(-79.985 -31.95)"/>
        <path id="Path_111015" d="M143.673 38.063h.661a.881.881 0 1 0 0-1.761h-.661a.881.881 0 1 0 0 1.761z" class="cls-1" transform="translate(-126.026 -31.95)"/>
        <path id="Path_111016" d="M261.731 309.954h-3.708a.881.881 0 1 0 0 1.761h3.708a2.687 2.687 0 0 0 2.684-2.684v-3.739a2.687 2.687 0 0 0-2.684-2.684h-20.745a2.687 2.687 0 0 0-2.684 2.684v3.739a2.687 2.687 0 0 0 2.684 2.684h13.284a.881.881 0 0 0 0-1.761h-13.284a.924.924 0 0 1-.923-.923v-3.739a.924.924 0 0 1 .923-.923h20.744a.924.924 0 0 1 .923.923v3.739a.924.924 0 0 1-.922.923z" class="cls-1" transform="translate(-210.321 -266.987)"/>
        <path id="Path_111017" d="M64.19 136.812h37.34a.881.881 0 0 0 0-1.761H64.19A1.953 1.953 0 0 0 62.239 137v10.982a1.953 1.953 0 0 0 1.951 1.951h7.934a.881.881 0 0 0 0-1.761H64.19a.19.19 0 0 1-.19-.19V137a.19.19 0 0 1 .19-.188z" class="cls-1" transform="translate(-54.931 -119.104)"/>
        <path id="Path_111018" d="M72.094 293.608H63.12a.881.881 0 0 0 0 1.761h8.974a.881.881 0 0 0 0-1.761z" class="cls-1" transform="translate(-54.931 -259.043)"/>
        <path id="Path_111019" d="M72.094 349.831H63.12a.881.881 0 0 0 0 1.761h8.974a.881.881 0 0 0 0-1.761z" class="cls-1" transform="translate(-54.931 -308.665)"/>
        <path id="Path_111020" d="M239.183 431.694h24.352a.881.881 0 0 0 0-1.761h-24.352a.881.881 0 1 0 0 1.761z" class="cls-1" transform="translate(-210.321 -379.362)"/>
    </g>
</svg>
