<svg xmlns="http://www.w3.org/2000/svg" width="40" height="80" viewBox="0 0 40 80">
    <defs>
        <style>
            .cls-1{fill:#fff}
        </style>
    </defs>
    <g id="rocket-launch" transform="translate(-128)">
        <path id="Path_111342" d="M223 119.5a7.493 7.493 0 0 0-.374-2.343 1.25 1.25 0 0 0-2.375.781 4.994 4.994 0 1 1-3.032-3.134 1.25 1.25 0 1 0 .86-2.348A7.5 7.5 0 1 0 223 119.5z" class="cls-1" transform="translate(-67.5 -94.5)"/>
        <path id="Path_111343" d="M164.687 52.772a20.947 20.947 0 0 0-2.609-2.311 51.226 51.226 0 0 0 2.172-14.836c0-14.286-5.781-27.5-15.463-35.346a1.25 1.25 0 0 0-1.574 0c-9.682 7.846-15.463 21.06-15.463 35.346a51.233 51.233 0 0 0 2.172 14.836 20.94 20.94 0 0 0-2.609 2.311c-2.2 2.314-3.313 4.64-3.313 6.915V78.75a1.25 1.25 0 0 0 2.134.884l12.78-12.78a36.789 36.789 0 0 0 3.837 3.729v8.011a1.25 1.25 0 1 0 2.5 0v-8.011a36.8 36.8 0 0 0 3.837-3.729l12.78 12.78A1.25 1.25 0 0 0 168 78.75V59.687c0-2.275-1.115-4.601-3.313-6.915zM130.5 75.732V59.687c0-1.995 1.409-3.906 2.591-5.158a18.1 18.1 0 0 1 1.67-1.55 43.727 43.727 0 0 0 6.547 11.945zm18.75-8.5V51.25a1.25 1.25 0 1 0-2.5 0v15.98a35.279 35.279 0 0 1-2.65-2.83 1.247 1.247 0 0 0-.212-.284c-.027-.027-.056-.053-.085-.077-6.062-7.409-9.549-17.573-9.549-28.414 0-13.145 5.122-25.3 13.75-32.745 8.628 7.447 13.75 19.6 13.75 32.745 0 10.842-3.487 21.006-9.549 28.414-.029.024-.058.05-.085.077a1.247 1.247 0 0 0-.212.284 35.258 35.258 0 0 1-2.658 2.83zm16.25 8.5l-10.807-10.807a43.718 43.718 0 0 0 6.55-11.953c1.759 1.444 4.258 4.073 4.258 6.715z" class="cls-1"/>
    </g>
</svg>
