<svg xmlns="http://www.w3.org/2000/svg" width="41" height="34" viewBox="0 0 41 34">
    <path fill="#E3E7EE" fill-rule="nonzero" d="M13.874.046c.418 0 .779.153 1.084.458.305.305.458.666.458 1.084V4.67c0 .418-.153.779-.458 1.084a1.482 1.482 0 0 1-1.084.458h-1.541c-1.702 0-3.156.602-4.36 1.806-1.205 1.205-1.807 2.658-1.807 4.36v.77c0 .643.225 1.189.674 1.639.45.45.996.674 1.639.674h5.395c1.285 0 2.377.45 3.276 1.349.9.9 1.35 1.99 1.35 3.276v9.249c0 1.285-.45 2.377-1.35 3.276-.899.9-1.99 1.349-3.275 1.349h-9.25c-1.285 0-2.377-.45-3.276-1.349-.9-.9-1.349-1.99-1.349-3.276V12.379c0-1.67.325-3.264.976-4.782.65-1.517 1.529-2.83 2.637-3.938s2.42-1.987 3.938-2.637a12.018 12.018 0 0 1 4.782-.976zm21.584 0c.417 0 .779.153 1.083.458.305.305.458.666.458 1.084V4.67c0 .418-.153.779-.458 1.084a1.482 1.482 0 0 1-1.083.458h-1.542c-1.703 0-3.156.602-4.36 1.806-1.204 1.205-1.806 2.658-1.806 4.36v.77c0 .643.224 1.189.674 1.639.45.45.996.674 1.638.674h5.395c1.285 0 2.377.45 3.276 1.349.9.9 1.348 1.99 1.348 3.276v9.249c0 1.285-.449 2.377-1.348 3.276-.9.9-1.991 1.349-3.276 1.349h-9.25c-1.284 0-2.376-.45-3.275-1.349-.9-.9-1.35-1.99-1.35-3.276V12.379c0-1.67.326-3.264.977-4.782.65-1.517 1.53-2.83 2.637-3.938 1.109-1.108 2.42-1.987 3.938-2.637a12.021 12.021 0 0 1 4.782-.976z"/>
</svg>
