<?xml version="1.0" encoding="UTF-8"?>
<svg width="700pt" height="700pt" version="1.1" viewBox="0 0 700 700" xmlns="http://www.w3.org/2000/svg" xmlns:xlink="http://www.w3.org/1999/xlink">
 <defs>
  <symbol id="v" overflow="visible">
   <path d="m0.75-0.046875c-0.042969 0.023438-0.085938 0.039062-0.125 0.046875-0.042969 0.0078125-0.085938 0.015625-0.125 0.015625-0.13672 0-0.24609-0.035156-0.32812-0.10938-0.074219-0.070312-0.10938-0.17578-0.10938-0.3125 0-0.125 0.035156-0.22266 0.10938-0.29688 0.082031-0.082031 0.19141-0.125 0.32812-0.125 0.039062 0 0.082031 0.007813 0.125 0.015625 0.039062 0.011719 0.082031 0.027344 0.125 0.046875v0.17188c-0.042969-0.03125-0.085938-0.050781-0.125-0.0625-0.03125-0.007812-0.070312-0.015625-0.10938-0.015625-0.074219 0-0.13672 0.027344-0.1875 0.078125-0.042969 0.042969-0.0625 0.10547-0.0625 0.1875 0 0.085938 0.019531 0.15234 0.0625 0.20312 0.050781 0.042969 0.11328 0.0625 0.1875 0.0625 0.039063 0 0.078125-0.003906 0.10938-0.015625 0.039062-0.007812 0.082031-0.03125 0.125-0.0625z"/>
  </symbol>
  <symbol id="b" overflow="visible">
   <path d="m0.54688-0.4375c-0.023437-0.007812-0.042969-0.015625-0.0625-0.015625-0.011719-0.007813-0.027344-0.015625-0.046875-0.015625-0.042969 0-0.078125 0.015625-0.10938 0.046875s-0.046875 0.078125-0.046875 0.14062v0.28125h-0.1875v-0.60938h0.1875v0.10938c0.03125-0.039062 0.0625-0.070312 0.09375-0.09375 0.03125-0.019531 0.066406-0.03125 0.10938-0.03125h0.015625c0.007812 0 0.023438 0.007812 0.046875 0.015625z"/>
  </symbol>
  <symbol id="a" overflow="visible">
   <path d="m0.70312-0.3125v0.0625h-0.45312c0 0.042969 0.015625 0.078125 0.046875 0.10938 0.03125 0.023437 0.066406 0.03125 0.10938 0.03125 0.039062 0 0.082031-0.003906 0.125-0.015625 0.050781-0.019531 0.097656-0.039062 0.14062-0.0625v0.15625c-0.054687 0.011719-0.10156 0.023438-0.14062 0.03125-0.042969 0.0078125-0.089844 0.015625-0.14062 0.015625-0.10547 0-0.1875-0.023438-0.25-0.078125-0.0625-0.0625-0.09375-0.14062-0.09375-0.23438 0-0.10156 0.03125-0.17969 0.09375-0.23438 0.0625-0.0625 0.14453-0.09375 0.25-0.09375 0.09375 0 0.16406 0.03125 0.21875 0.09375 0.0625 0.054688 0.09375 0.125 0.09375 0.21875zm-0.20312-0.0625c0-0.03125-0.011719-0.054688-0.03125-0.078125-0.023438-0.03125-0.046875-0.046875-0.078125-0.046875-0.042969 0-0.078125 0.015625-0.10938 0.046875-0.023438 0.023437-0.03125 0.046875-0.03125 0.078125z"/>
  </symbol>
  <symbol id="i" overflow="visible">
   <path d="m0.35938-0.26562c-0.042969 0-0.074219 0.007813-0.09375 0.015625-0.011719 0.011719-0.015625 0.03125-0.015625 0.0625 0 0.023438 0.003906 0.042969 0.015625 0.0625 0.019531 0.011719 0.046875 0.015625 0.078125 0.015625s0.054688-0.007813 0.078125-0.03125c0.03125-0.03125 0.046875-0.066406 0.046875-0.10938v-0.015625zm0.29688-0.078125v0.34375h-0.1875v-0.09375c-0.03125 0.042969-0.0625 0.074219-0.09375 0.09375-0.03125 0.0078125-0.070312 0.015625-0.10938 0.015625-0.0625 0-0.11719-0.015625-0.15625-0.046875-0.042969-0.039062-0.0625-0.09375-0.0625-0.15625s0.019531-0.10938 0.0625-0.14062c0.050781-0.039063 0.12891-0.0625 0.23438-0.0625h0.125v-0.015625c0-0.03125-0.015625-0.050781-0.046875-0.0625-0.023437-0.019531-0.058594-0.03125-0.10938-0.03125-0.042969 0-0.085938 0.007812-0.125 0.015625-0.03125 0.011719-0.0625 0.027344-0.09375 0.046875v-0.15625c0.039062-0.007812 0.082031-0.015625 0.125-0.015625 0.039062-0.007813 0.082031-0.015625 0.125-0.015625 0.11328 0 0.19141 0.027344 0.23438 0.078125 0.050781 0.042969 0.078125 0.10938 0.078125 0.20312z"/>
  </symbol>
  <symbol id="d" overflow="visible">
   <path d="m0.3125-0.78125v0.17188h0.1875v0.14062h-0.1875v0.26562c0 0.023437 0.003906 0.039063 0.015625 0.046875 0.007813 0.011719 0.03125 0.015625 0.0625 0.015625h0.09375v0.14062h-0.15625c-0.085937 0-0.14062-0.015625-0.17188-0.046875s-0.046875-0.082031-0.046875-0.15625v-0.26562h-0.09375v-0.14062h0.09375v-0.17188z"/>
  </symbol>
  <symbol id="h" overflow="visible">
   <path d="m0.5-0.51562v-0.32812h0.20312v0.84375h-0.20312v-0.09375c-0.023438 0.042969-0.046875 0.074219-0.078125 0.09375-0.03125 0.0078125-0.070313 0.015625-0.10938 0.015625-0.085938 0-0.15234-0.023438-0.20312-0.078125-0.042969-0.0625-0.0625-0.14062-0.0625-0.23438s0.019531-0.17188 0.0625-0.23438c0.050781-0.0625 0.11719-0.09375 0.20312-0.09375 0.039062 0 0.078125 0.011719 0.10938 0.03125 0.03125 0.011719 0.054687 0.039062 0.078125 0.078125zm-0.125 0.39062c0.039062 0 0.070312-0.015625 0.09375-0.046875 0.019531-0.03125 0.03125-0.070313 0.03125-0.125 0-0.0625-0.011719-0.10938-0.03125-0.14062-0.023438-0.03125-0.054688-0.046875-0.09375-0.046875-0.042969 0-0.074219 0.015625-0.09375 0.046875-0.023438 0.03125-0.03125 0.078125-0.03125 0.14062 0 0.054687 0.007812 0.09375 0.03125 0.125 0.019531 0.03125 0.050781 0.046875 0.09375 0.046875z"/>
  </symbol>
  <symbol id="g" overflow="visible">
   <path d="m0.42188-0.125c0.039063 0 0.070313-0.015625 0.09375-0.046875 0.019531-0.03125 0.03125-0.070313 0.03125-0.125 0-0.0625-0.011719-0.10938-0.03125-0.14062-0.023437-0.03125-0.054687-0.046875-0.09375-0.046875-0.042969 0-0.078125 0.015625-0.10938 0.046875-0.023438 0.03125-0.03125 0.078125-0.03125 0.14062 0 0.054687 0.007812 0.09375 0.03125 0.125 0.03125 0.03125 0.066406 0.046875 0.10938 0.046875zm-0.14062-0.39062c0.03125-0.039063 0.0625-0.066406 0.09375-0.078125 0.03125-0.019531 0.066406-0.03125 0.10938-0.03125 0.070313 0 0.13281 0.03125 0.1875 0.09375 0.050781 0.0625 0.078125 0.14062 0.078125 0.23438s-0.027344 0.17188-0.078125 0.23438c-0.054687 0.054688-0.11719 0.078125-0.1875 0.078125-0.042969 0-0.078125-0.0078125-0.10938-0.015625-0.03125-0.019531-0.0625-0.050781-0.09375-0.09375v0.09375h-0.1875v-0.84375h0.1875z"/>
  </symbol>
  <symbol id="f" overflow="visible">
   <path d="m0.015625-0.60938h0.1875l0.17188 0.42188 0.14062-0.42188h0.1875l-0.25 0.67188c-0.03125 0.0625-0.0625 0.10156-0.09375 0.125-0.03125 0.03125-0.078125 0.046875-0.14062 0.046875h-0.10938v-0.125h0.0625c0.03125 0 0.050781-0.007813 0.0625-0.015625 0.019531-0.011719 0.035156-0.027344 0.046875-0.046875v-0.03125z"/>
  </symbol>
  <symbol id="e" overflow="visible">
   <path d="m0.015625-0.60938h0.1875l0.15625 0.42188 0.15625-0.42188h0.1875l-0.23438 0.60938h-0.21875z"/>
  </symbol>
  <symbol id="c" overflow="visible">
   <path d="m0.375-0.48438c-0.042969 0-0.074219 0.015625-0.09375 0.046875-0.023438 0.03125-0.03125 0.078125-0.03125 0.14062 0 0.054687 0.007812 0.09375 0.03125 0.125 0.019531 0.03125 0.050781 0.046875 0.09375 0.046875 0.039062 0 0.070312-0.015625 0.09375-0.046875 0.03125-0.03125 0.046875-0.070313 0.046875-0.125 0-0.0625-0.015625-0.10938-0.046875-0.14062-0.023438-0.03125-0.054688-0.046875-0.09375-0.046875zm0-0.14062c0.10156 0 0.1875 0.03125 0.25 0.09375 0.0625 0.054688 0.09375 0.13281 0.09375 0.23438 0 0.09375-0.03125 0.17188-0.09375 0.23438-0.0625 0.054688-0.14844 0.078125-0.25 0.078125-0.10547 0-0.1875-0.023438-0.25-0.078125-0.054688-0.0625-0.078125-0.14062-0.078125-0.23438 0-0.10156 0.023438-0.17969 0.078125-0.23438 0.0625-0.0625 0.14453-0.09375 0.25-0.09375z"/>
  </symbol>
  <symbol id="u" overflow="visible">
   <path d="m0.3125-0.15625h0.35938v0.15625h-0.57812v-0.15625l0.29688-0.25c0.019531-0.03125 0.035156-0.054688 0.046875-0.078125 0.007812-0.019531 0.015625-0.046875 0.015625-0.078125s-0.011719-0.054688-0.03125-0.078125c-0.023437-0.03125-0.054687-0.046875-0.09375-0.046875-0.042969 0-0.085937 0.011719-0.125 0.03125-0.03125 0.011719-0.070313 0.03125-0.10938 0.0625v-0.1875c0.039062-0.007812 0.082031-0.019531 0.125-0.03125 0.050781-0.007812 0.097656-0.015625 0.14062-0.015625 0.10156 0 0.17969 0.023437 0.23438 0.0625 0.050781 0.042969 0.078125 0.10547 0.078125 0.1875 0 0.042969-0.011719 0.085937-0.03125 0.125-0.023437 0.03125-0.070313 0.078125-0.14062 0.14062z"/>
  </symbol>
  <symbol id="t" overflow="visible">
   <path d="m0.125-0.8125h0.51562v0.15625h-0.35938v0.125h0.046875c0.019531-0.007812 0.035156-0.015625 0.046875-0.015625 0.10156 0 0.17969 0.027344 0.23438 0.078125 0.050781 0.054688 0.078125 0.12109 0.078125 0.20312 0 0.09375-0.03125 0.16797-0.09375 0.21875-0.054688 0.042969-0.13281 0.0625-0.23438 0.0625-0.054687 0-0.10156-0.0078125-0.14062-0.015625-0.042969-0.0078125-0.089844-0.019531-0.14062-0.03125v-0.17188c0.050781 0.023437 0.09375 0.042969 0.125 0.0625 0.039063 0.011719 0.082031 0.015625 0.125 0.015625 0.050781 0 0.085937-0.007812 0.10938-0.03125 0.03125-0.03125 0.046875-0.066406 0.046875-0.10938 0-0.039063-0.015625-0.070313-0.046875-0.09375-0.023438-0.03125-0.058594-0.046875-0.10938-0.046875-0.03125 0-0.070313 0.007812-0.10938 0.015625-0.03125 0.011719-0.0625 0.023437-0.09375 0.03125z"/>
  </symbol>
  <symbol id="s" overflow="visible">
   <path d="m0.51562-0.40625c0-0.10156-0.011719-0.17578-0.03125-0.21875-0.023437-0.039062-0.054687-0.0625-0.09375-0.0625-0.054687 0-0.089844 0.023438-0.10938 0.0625-0.011719 0.042969-0.015625 0.11719-0.015625 0.21875 0 0.10547 0.003906 0.17969 0.015625 0.21875 0.019531 0.042969 0.054688 0.0625 0.10938 0.0625 0.039063 0 0.070313-0.019531 0.09375-0.0625 0.019531-0.039062 0.03125-0.11328 0.03125-0.21875zm0.20312 0c0 0.13672-0.03125 0.24219-0.09375 0.3125-0.054688 0.074219-0.13281 0.10938-0.23438 0.10938-0.11719 0-0.20312-0.035156-0.26562-0.10938-0.054688-0.070312-0.078125-0.17578-0.078125-0.3125 0-0.13281 0.023438-0.23828 0.078125-0.3125 0.0625-0.070312 0.14844-0.10938 0.26562-0.10938 0.10156 0 0.17969 0.039063 0.23438 0.10938 0.0625 0.074219 0.09375 0.17969 0.09375 0.3125z"/>
  </symbol>
  <symbol id="r" overflow="visible">
   <path d="m0.5-0.84375v0.125h-0.10938c-0.03125 0-0.054687 0.007812-0.0625 0.015625-0.011719 0.011719-0.015625 0.027344-0.015625 0.046875v0.046875h0.17188v0.14062h-0.17188v0.46875h-0.1875v-0.46875h-0.10938v-0.14062h0.10938v-0.046875c0-0.0625 0.015625-0.10938 0.046875-0.14062 0.039063-0.03125 0.097656-0.046875 0.17188-0.046875z"/>
  </symbol>
  <symbol id="q" overflow="visible">
   <path d="m0.65625-0.5c0.019531-0.039062 0.046875-0.070312 0.078125-0.09375 0.039063-0.019531 0.082031-0.03125 0.125-0.03125 0.0625 0 0.10938 0.023438 0.14062 0.0625 0.039062 0.042969 0.0625 0.10547 0.0625 0.1875v0.375h-0.1875v-0.3125-0.015625-0.03125c0-0.039063-0.007812-0.066406-0.015625-0.078125-0.011719-0.019531-0.03125-0.03125-0.0625-0.03125-0.042969 0-0.074219 0.015625-0.09375 0.046875-0.023437 0.023437-0.03125 0.0625-0.03125 0.125v0.29688h-0.1875v-0.3125c0-0.070312-0.007813-0.11328-0.015625-0.125-0.011719-0.019531-0.03125-0.03125-0.0625-0.03125-0.042969 0-0.074219 0.015625-0.09375 0.046875-0.023438 0.023437-0.03125 0.0625-0.03125 0.125v0.29688h-0.1875v-0.60938h0.1875v0.09375c0.03125-0.03125 0.0625-0.054687 0.09375-0.078125 0.03125-0.019531 0.0625-0.03125 0.09375-0.03125 0.039062 0 0.078125 0.011719 0.10938 0.03125 0.03125 0.023438 0.054687 0.054688 0.078125 0.09375z"/>
  </symbol>
  <symbol id="p" overflow="visible">
   <path d="m0.70312-0.375v0.375h-0.1875v-0.28125c0-0.050781-0.007813-0.085938-0.015625-0.10938v-0.046875c-0.011719-0.007812-0.027344-0.015625-0.046875-0.015625-0.011719-0.007813-0.023437-0.015625-0.03125-0.015625-0.042969 0-0.078125 0.015625-0.10938 0.046875-0.023438 0.03125-0.03125 0.074219-0.03125 0.125v0.29688h-0.1875v-0.84375h0.1875v0.32812c0.03125-0.039063 0.0625-0.066406 0.09375-0.078125 0.03125-0.019531 0.066406-0.03125 0.10938-0.03125 0.070313 0 0.125 0.023438 0.15625 0.0625 0.039063 0.042969 0.0625 0.10547 0.0625 0.1875z"/>
  </symbol>
  <symbol id="o" overflow="visible">
   <path d="m0.10938-0.8125h0.21875l0.29688 0.5625v-0.5625h0.20312v0.8125h-0.23438l-0.29688-0.5625v0.5625h-0.1875z"/>
  </symbol>
  <symbol id="n" overflow="visible">
   <path d="m0.09375-0.23438v-0.375h0.1875v0.0625 0.125 0.09375 0.10938c0 0.023438 0.003906 0.039062 0.015625 0.046875 0.007813 0.011719 0.019531 0.023437 0.03125 0.03125 0.007813 0.011719 0.023437 0.015625 0.046875 0.015625 0.039062 0 0.070312-0.015625 0.09375-0.046875 0.019531-0.03125 0.03125-0.078125 0.03125-0.14062v-0.29688h0.20312v0.60938h-0.20312v-0.09375c-0.03125 0.042969-0.0625 0.074219-0.09375 0.09375-0.03125 0.0078125-0.070312 0.015625-0.10938 0.015625-0.0625 0-0.11719-0.019531-0.15625-0.0625-0.03125-0.039062-0.046875-0.10156-0.046875-0.1875z"/>
  </symbol>
  <symbol id="m" overflow="visible">
   <path d="m0.70312-0.375v0.375h-0.1875v-0.28125c0-0.050781-0.007813-0.085938-0.015625-0.10938v-0.046875c-0.011719-0.007812-0.027344-0.015625-0.046875-0.015625-0.011719-0.007813-0.023437-0.015625-0.03125-0.015625-0.042969 0-0.078125 0.015625-0.10938 0.046875-0.023438 0.03125-0.03125 0.074219-0.03125 0.125v0.29688h-0.1875v-0.60938h0.1875v0.09375c0.03125-0.039063 0.0625-0.066406 0.09375-0.078125 0.03125-0.019531 0.066406-0.03125 0.10938-0.03125 0.070313 0 0.125 0.023438 0.15625 0.0625 0.039063 0.042969 0.0625 0.10547 0.0625 0.1875z"/>
  </symbol>
  <symbol id="l" overflow="visible">
   <path d="m0.10938-0.8125h0.34375c0.10156 0 0.17969 0.027344 0.23438 0.078125 0.050781 0.042969 0.078125 0.10547 0.078125 0.1875 0 0.085937-0.027344 0.15234-0.078125 0.20312-0.054688 0.042969-0.13281 0.0625-0.23438 0.0625h-0.14062v0.28125h-0.20312zm0.20312 0.15625v0.21875h0.10938c0.039063 0 0.070313-0.003906 0.09375-0.015625 0.019531-0.019531 0.03125-0.050781 0.03125-0.09375 0-0.03125-0.011719-0.054687-0.03125-0.078125-0.023437-0.019531-0.054687-0.03125-0.09375-0.03125z"/>
  </symbol>
  <symbol id="k" overflow="visible">
   <path d="m0.09375-0.60938h0.1875v0.59375c0 0.082031-0.023438 0.14453-0.0625 0.1875-0.03125 0.039063-0.085938 0.0625-0.15625 0.0625h-0.09375v-0.125h0.03125c0.03125 0 0.050781-0.011719 0.0625-0.03125 0.019531-0.011719 0.03125-0.042969 0.03125-0.09375zm0-0.23438h0.1875v0.15625h-0.1875z"/>
  </symbol>
  <symbol id="j" overflow="visible">
   <path d="m0.57812-0.59375v0.17188c-0.023437-0.019531-0.046875-0.035156-0.078125-0.046875-0.023438-0.007812-0.046875-0.015625-0.078125-0.015625-0.054687 0-0.09375 0.015625-0.125 0.046875s-0.046875 0.078125-0.046875 0.14062c0 0.054687 0.015625 0.09375 0.046875 0.125s0.070313 0.046875 0.125 0.046875c0.03125 0 0.054687-0.003906 0.078125-0.015625 0.03125-0.007813 0.054688-0.019531 0.078125-0.03125v0.15625c-0.03125 0.011719-0.0625 0.015625-0.09375 0.015625-0.03125 0.0078125-0.0625 0.015625-0.09375 0.015625-0.10547 0-0.1875-0.023438-0.25-0.078125-0.0625-0.0625-0.09375-0.14062-0.09375-0.23438 0-0.10156 0.03125-0.17969 0.09375-0.23438 0.0625-0.0625 0.14453-0.09375 0.25-0.09375 0.03125 0 0.0625 0.007812 0.09375 0.015625 0.03125 0 0.0625 0.007813 0.09375 0.015625z"/>
  </symbol>
 </defs>
 <g>
  <path d="m238 122.36h228.85c6.1719 0 11.242 5.0703 11.242 11.242v292.79c0 6.1719-5.0703 11.242-11.242 11.242h-228.85c-6.1719 0-11.242-5.0703-11.242-11.242v-292.79c0-6.1719 5.0703-11.242 11.242-11.242zm217.61 22.27h-206.36v270.74h206.36z"/>
  <path d="m215.29 398.84c14.773 0 14.773 22.488 0 22.488h-31.527c-6.1719 0-11.242-5.0703-11.242-11.242v-252c0-6.1719 5.0703-11.242 11.242-11.242h31.969c14.773 0 14.773 22.488 0 22.488h-20.723v229.51h20.285z"/>
  <path d="m490.22 423.53c-14.773 0-14.773-22.488 0-22.488h20.285v-229.73c-13.891 0-31.969 3.3086-31.969-11.242 0-6.1719 4.8516-11.023 11.023-11.023h31.969c6.1719 0 11.242 4.8516 11.242 11.023v252.22c0 6.1719-5.0703 11.242-11.242 11.242z"/>
  <path d="m157.53 377.89c14.551 0 14.551 22.488 0 22.488h-31.527c-6.1719 0-11.242-5.0703-11.242-11.242v-211.21c0-6.1719 5.0703-11.242 11.242-11.242h31.969c14.773 0 14.773 22.488 0 22.488h-20.723v188.72h20.285z"/>
  <path d="m548.64 404.35c-14.773 0-14.773-22.27 0-22.27h14.109v-188.95c-9.9219 0-25.797 2.6445-25.797-11.023 0-14.992 20.062-11.242 37.039-11.242 6.1719 0 11.242 5.0703 11.242 11.242v210.99c0 14.992-20.062 11.242-36.598 11.242z"/>
  <use x="70" y="563.308594" xlink:href="#v"/>
  <use x="70.808594" y="563.308594" xlink:href="#b"/>
  <use x="71.351562" y="563.308594" xlink:href="#a"/>
  <use x="72.101562" y="563.308594" xlink:href="#i"/>
  <use x="72.84375" y="563.308594" xlink:href="#d"/>
  <use x="73.371094" y="563.308594" xlink:href="#a"/>
  <use x="74.117188" y="563.308594" xlink:href="#h"/>
  <use x="75.292969" y="563.308594" xlink:href="#g"/>
  <use x="76.082031" y="563.308594" xlink:href="#f"/>
  <use x="77.183594" y="563.308594" xlink:href="#b"/>
  <use x="77.726562" y="563.308594" xlink:href="#a"/>
  <use x="78.472656" y="563.308594" xlink:href="#e"/>
  <use x="79.191406" y="563.308594" xlink:href="#c"/>
  <use x="79.949219" y="563.308594" xlink:href="#u"/>
  <use x="80.71875" y="563.308594" xlink:href="#t"/>
  <use x="81.484375" y="563.308594" xlink:href="#s"/>
  <use x="70" y="564.410156" xlink:href="#r"/>
  <use x="70.480469" y="564.410156" xlink:href="#b"/>
  <use x="71.023438" y="564.410156" xlink:href="#c"/>
  <use x="71.78125" y="564.410156" xlink:href="#q"/>
  <use x="73.3125" y="564.410156" xlink:href="#d"/>
  <use x="73.839844" y="564.410156" xlink:href="#p"/>
  <use x="74.625" y="564.410156" xlink:href="#a"/>
  <use x="75.757812" y="564.410156" xlink:href="#o"/>
  <use x="76.679688" y="564.410156" xlink:href="#c"/>
  <use x="77.4375" y="564.410156" xlink:href="#n"/>
  <use x="78.222656" y="564.410156" xlink:href="#m"/>
  <use x="79.390625" y="564.410156" xlink:href="#l"/>
  <use x="80.199219" y="564.410156" xlink:href="#b"/>
  <use x="80.742188" y="564.410156" xlink:href="#c"/>
  <use x="81.5" y="564.410156" xlink:href="#k"/>
  <use x="81.875" y="564.410156" xlink:href="#a"/>
  <use x="82.625" y="564.410156" xlink:href="#j"/>
  <use x="83.277344" y="564.410156" xlink:href="#d"/>
 </g>
</svg>
